%TF.GenerationSoftware,KiCad,Pcbnew,9.0.3*%
%TF.CreationDate,2025-08-29T14:27:29-04:00*%
%TF.ProjectId,Simple_LFLNA_RevA,53696d70-6c65-45f4-9c46-4c4e415f5265,rev?*%
%TF.SameCoordinates,Original*%
%TF.FileFunction,Legend,Bot*%
%TF.FilePolarity,Positive*%
%FSLAX46Y46*%
G04 Gerber Fmt 4.6, Leading zero omitted, Abs format (unit mm)*
G04 Created by KiCad (PCBNEW 9.0.3) date 2025-08-29 14:27:29*
%MOMM*%
%LPD*%
G01*
G04 APERTURE LIST*
%ADD10C,0.150000*%
%ADD11C,0.120000*%
%ADD12O,7.000000X3.500000*%
%ADD13O,2.500000X1.600000*%
%ADD14C,2.500000*%
%ADD15C,2.300000*%
%ADD16R,4.020000X2.410000*%
%ADD17O,4.020000X2.410000*%
%ADD18R,1.700000X1.700000*%
%ADD19C,1.700000*%
%ADD20R,2.010000X2.390000*%
%ADD21C,2.400000*%
G04 APERTURE END LIST*
D10*
X39419538Y-127257669D02*
X39533824Y-127210049D01*
X39533824Y-127210049D02*
X39724300Y-127210049D01*
X39724300Y-127210049D02*
X39800491Y-127257669D01*
X39800491Y-127257669D02*
X39838586Y-127305288D01*
X39838586Y-127305288D02*
X39876681Y-127400526D01*
X39876681Y-127400526D02*
X39876681Y-127495764D01*
X39876681Y-127495764D02*
X39838586Y-127591002D01*
X39838586Y-127591002D02*
X39800491Y-127638621D01*
X39800491Y-127638621D02*
X39724300Y-127686240D01*
X39724300Y-127686240D02*
X39571919Y-127733859D01*
X39571919Y-127733859D02*
X39495729Y-127781478D01*
X39495729Y-127781478D02*
X39457634Y-127829097D01*
X39457634Y-127829097D02*
X39419538Y-127924335D01*
X39419538Y-127924335D02*
X39419538Y-128019573D01*
X39419538Y-128019573D02*
X39457634Y-128114811D01*
X39457634Y-128114811D02*
X39495729Y-128162430D01*
X39495729Y-128162430D02*
X39571919Y-128210049D01*
X39571919Y-128210049D02*
X39762396Y-128210049D01*
X39762396Y-128210049D02*
X39876681Y-128162430D01*
X40143348Y-128210049D02*
X40333824Y-127210049D01*
X40333824Y-127210049D02*
X40486205Y-127924335D01*
X40486205Y-127924335D02*
X40638586Y-127210049D01*
X40638586Y-127210049D02*
X40829063Y-128210049D01*
X41057634Y-128210049D02*
X41552872Y-128210049D01*
X41552872Y-128210049D02*
X41286206Y-127829097D01*
X41286206Y-127829097D02*
X41400491Y-127829097D01*
X41400491Y-127829097D02*
X41476682Y-127781478D01*
X41476682Y-127781478D02*
X41514777Y-127733859D01*
X41514777Y-127733859D02*
X41552872Y-127638621D01*
X41552872Y-127638621D02*
X41552872Y-127400526D01*
X41552872Y-127400526D02*
X41514777Y-127305288D01*
X41514777Y-127305288D02*
X41476682Y-127257669D01*
X41476682Y-127257669D02*
X41400491Y-127210049D01*
X41400491Y-127210049D02*
X41171920Y-127210049D01*
X41171920Y-127210049D02*
X41095729Y-127257669D01*
X41095729Y-127257669D02*
X41057634Y-127305288D01*
X39419538Y-143257669D02*
X39533824Y-143210049D01*
X39533824Y-143210049D02*
X39724300Y-143210049D01*
X39724300Y-143210049D02*
X39800491Y-143257669D01*
X39800491Y-143257669D02*
X39838586Y-143305288D01*
X39838586Y-143305288D02*
X39876681Y-143400526D01*
X39876681Y-143400526D02*
X39876681Y-143495764D01*
X39876681Y-143495764D02*
X39838586Y-143591002D01*
X39838586Y-143591002D02*
X39800491Y-143638621D01*
X39800491Y-143638621D02*
X39724300Y-143686240D01*
X39724300Y-143686240D02*
X39571919Y-143733859D01*
X39571919Y-143733859D02*
X39495729Y-143781478D01*
X39495729Y-143781478D02*
X39457634Y-143829097D01*
X39457634Y-143829097D02*
X39419538Y-143924335D01*
X39419538Y-143924335D02*
X39419538Y-144019573D01*
X39419538Y-144019573D02*
X39457634Y-144114811D01*
X39457634Y-144114811D02*
X39495729Y-144162430D01*
X39495729Y-144162430D02*
X39571919Y-144210049D01*
X39571919Y-144210049D02*
X39762396Y-144210049D01*
X39762396Y-144210049D02*
X39876681Y-144162430D01*
X40143348Y-144210049D02*
X40333824Y-143210049D01*
X40333824Y-143210049D02*
X40486205Y-143924335D01*
X40486205Y-143924335D02*
X40638586Y-143210049D01*
X40638586Y-143210049D02*
X40829063Y-144210049D01*
X41095729Y-144114811D02*
X41133825Y-144162430D01*
X41133825Y-144162430D02*
X41210015Y-144210049D01*
X41210015Y-144210049D02*
X41400491Y-144210049D01*
X41400491Y-144210049D02*
X41476682Y-144162430D01*
X41476682Y-144162430D02*
X41514777Y-144114811D01*
X41514777Y-144114811D02*
X41552872Y-144019573D01*
X41552872Y-144019573D02*
X41552872Y-143924335D01*
X41552872Y-143924335D02*
X41514777Y-143781478D01*
X41514777Y-143781478D02*
X41057634Y-143210049D01*
X41057634Y-143210049D02*
X41552872Y-143210049D01*
X39419538Y-111257669D02*
X39533824Y-111210049D01*
X39533824Y-111210049D02*
X39724300Y-111210049D01*
X39724300Y-111210049D02*
X39800491Y-111257669D01*
X39800491Y-111257669D02*
X39838586Y-111305288D01*
X39838586Y-111305288D02*
X39876681Y-111400526D01*
X39876681Y-111400526D02*
X39876681Y-111495764D01*
X39876681Y-111495764D02*
X39838586Y-111591002D01*
X39838586Y-111591002D02*
X39800491Y-111638621D01*
X39800491Y-111638621D02*
X39724300Y-111686240D01*
X39724300Y-111686240D02*
X39571919Y-111733859D01*
X39571919Y-111733859D02*
X39495729Y-111781478D01*
X39495729Y-111781478D02*
X39457634Y-111829097D01*
X39457634Y-111829097D02*
X39419538Y-111924335D01*
X39419538Y-111924335D02*
X39419538Y-112019573D01*
X39419538Y-112019573D02*
X39457634Y-112114811D01*
X39457634Y-112114811D02*
X39495729Y-112162430D01*
X39495729Y-112162430D02*
X39571919Y-112210049D01*
X39571919Y-112210049D02*
X39762396Y-112210049D01*
X39762396Y-112210049D02*
X39876681Y-112162430D01*
X40143348Y-112210049D02*
X40333824Y-111210049D01*
X40333824Y-111210049D02*
X40486205Y-111924335D01*
X40486205Y-111924335D02*
X40638586Y-111210049D01*
X40638586Y-111210049D02*
X40829063Y-112210049D01*
X41552872Y-111210049D02*
X41095729Y-111210049D01*
X41324301Y-111210049D02*
X41324301Y-112210049D01*
X41324301Y-112210049D02*
X41248110Y-112067192D01*
X41248110Y-112067192D02*
X41171920Y-111971954D01*
X41171920Y-111971954D02*
X41095729Y-111924335D01*
X123752215Y-144571297D02*
X123799834Y-144685583D01*
X123799834Y-144685583D02*
X123847453Y-144723678D01*
X123847453Y-144723678D02*
X123942691Y-144761774D01*
X123942691Y-144761774D02*
X124085548Y-144761774D01*
X124085548Y-144761774D02*
X124180786Y-144723678D01*
X124180786Y-144723678D02*
X124228406Y-144685583D01*
X124228406Y-144685583D02*
X124276025Y-144609393D01*
X124276025Y-144609393D02*
X124276025Y-144304631D01*
X124276025Y-144304631D02*
X123276025Y-144304631D01*
X123276025Y-144304631D02*
X123276025Y-144571297D01*
X123276025Y-144571297D02*
X123323644Y-144647488D01*
X123323644Y-144647488D02*
X123371263Y-144685583D01*
X123371263Y-144685583D02*
X123466501Y-144723678D01*
X123466501Y-144723678D02*
X123561739Y-144723678D01*
X123561739Y-144723678D02*
X123656977Y-144685583D01*
X123656977Y-144685583D02*
X123704596Y-144647488D01*
X123704596Y-144647488D02*
X123752215Y-144571297D01*
X123752215Y-144571297D02*
X123752215Y-144304631D01*
X123276025Y-144990345D02*
X123276025Y-145447488D01*
X124276025Y-145218916D02*
X123276025Y-145218916D01*
X123371263Y-145676059D02*
X123323644Y-145714155D01*
X123323644Y-145714155D02*
X123276025Y-145790345D01*
X123276025Y-145790345D02*
X123276025Y-145980821D01*
X123276025Y-145980821D02*
X123323644Y-146057012D01*
X123323644Y-146057012D02*
X123371263Y-146095107D01*
X123371263Y-146095107D02*
X123466501Y-146133202D01*
X123466501Y-146133202D02*
X123561739Y-146133202D01*
X123561739Y-146133202D02*
X123704596Y-146095107D01*
X123704596Y-146095107D02*
X124276025Y-145637964D01*
X124276025Y-145637964D02*
X124276025Y-146133202D01*
X116395072Y-140501185D02*
X116395072Y-141263090D01*
X116776025Y-140882137D02*
X116014120Y-140882137D01*
X103515072Y-140501185D02*
X103515072Y-141263090D01*
X87752215Y-144571297D02*
X87799834Y-144685583D01*
X87799834Y-144685583D02*
X87847453Y-144723678D01*
X87847453Y-144723678D02*
X87942691Y-144761774D01*
X87942691Y-144761774D02*
X88085548Y-144761774D01*
X88085548Y-144761774D02*
X88180786Y-144723678D01*
X88180786Y-144723678D02*
X88228406Y-144685583D01*
X88228406Y-144685583D02*
X88276025Y-144609393D01*
X88276025Y-144609393D02*
X88276025Y-144304631D01*
X88276025Y-144304631D02*
X87276025Y-144304631D01*
X87276025Y-144304631D02*
X87276025Y-144571297D01*
X87276025Y-144571297D02*
X87323644Y-144647488D01*
X87323644Y-144647488D02*
X87371263Y-144685583D01*
X87371263Y-144685583D02*
X87466501Y-144723678D01*
X87466501Y-144723678D02*
X87561739Y-144723678D01*
X87561739Y-144723678D02*
X87656977Y-144685583D01*
X87656977Y-144685583D02*
X87704596Y-144647488D01*
X87704596Y-144647488D02*
X87752215Y-144571297D01*
X87752215Y-144571297D02*
X87752215Y-144304631D01*
X87276025Y-144990345D02*
X87276025Y-145447488D01*
X88276025Y-145218916D02*
X87276025Y-145218916D01*
X88276025Y-146133202D02*
X88276025Y-145676059D01*
X88276025Y-145904631D02*
X87276025Y-145904631D01*
X87276025Y-145904631D02*
X87418882Y-145828440D01*
X87418882Y-145828440D02*
X87514120Y-145752250D01*
X87514120Y-145752250D02*
X87561739Y-145676059D01*
X80395072Y-140501185D02*
X80395072Y-141263090D01*
X80776025Y-140882137D02*
X80014120Y-140882137D01*
X67515072Y-140501185D02*
X67515072Y-141263090D01*
X39426681Y-146134688D02*
X39426681Y-145134688D01*
X39426681Y-145134688D02*
X39236205Y-145134688D01*
X39236205Y-145134688D02*
X39121919Y-145182307D01*
X39121919Y-145182307D02*
X39045729Y-145277545D01*
X39045729Y-145277545D02*
X39007634Y-145372783D01*
X39007634Y-145372783D02*
X38969538Y-145563259D01*
X38969538Y-145563259D02*
X38969538Y-145706116D01*
X38969538Y-145706116D02*
X39007634Y-145896592D01*
X39007634Y-145896592D02*
X39045729Y-145991830D01*
X39045729Y-145991830D02*
X39121919Y-146087069D01*
X39121919Y-146087069D02*
X39236205Y-146134688D01*
X39236205Y-146134688D02*
X39426681Y-146134688D01*
X38283824Y-145468021D02*
X38283824Y-146134688D01*
X38474300Y-145087069D02*
X38664777Y-145801354D01*
X38664777Y-145801354D02*
X38169538Y-145801354D01*
X60350491Y-79039449D02*
X60388587Y-79087069D01*
X60388587Y-79087069D02*
X60502872Y-79134688D01*
X60502872Y-79134688D02*
X60579063Y-79134688D01*
X60579063Y-79134688D02*
X60693349Y-79087069D01*
X60693349Y-79087069D02*
X60769539Y-78991830D01*
X60769539Y-78991830D02*
X60807634Y-78896592D01*
X60807634Y-78896592D02*
X60845730Y-78706116D01*
X60845730Y-78706116D02*
X60845730Y-78563259D01*
X60845730Y-78563259D02*
X60807634Y-78372783D01*
X60807634Y-78372783D02*
X60769539Y-78277545D01*
X60769539Y-78277545D02*
X60693349Y-78182307D01*
X60693349Y-78182307D02*
X60579063Y-78134688D01*
X60579063Y-78134688D02*
X60502872Y-78134688D01*
X60502872Y-78134688D02*
X60388587Y-78182307D01*
X60388587Y-78182307D02*
X60350491Y-78229926D01*
X59588587Y-79134688D02*
X60045730Y-79134688D01*
X59817158Y-79134688D02*
X59817158Y-78134688D01*
X59817158Y-78134688D02*
X59893349Y-78277545D01*
X59893349Y-78277545D02*
X59969539Y-78372783D01*
X59969539Y-78372783D02*
X60045730Y-78420402D01*
X59321920Y-78134688D02*
X58826682Y-78134688D01*
X58826682Y-78134688D02*
X59093348Y-78515640D01*
X59093348Y-78515640D02*
X58979063Y-78515640D01*
X58979063Y-78515640D02*
X58902872Y-78563259D01*
X58902872Y-78563259D02*
X58864777Y-78610878D01*
X58864777Y-78610878D02*
X58826682Y-78706116D01*
X58826682Y-78706116D02*
X58826682Y-78944211D01*
X58826682Y-78944211D02*
X58864777Y-79039449D01*
X58864777Y-79039449D02*
X58902872Y-79087069D01*
X58902872Y-79087069D02*
X58979063Y-79134688D01*
X58979063Y-79134688D02*
X59207634Y-79134688D01*
X59207634Y-79134688D02*
X59283825Y-79087069D01*
X59283825Y-79087069D02*
X59321920Y-79039449D01*
D11*
%TO.C,J2*%
X46686206Y-96179869D02*
X46686206Y-81179869D01*
X31686206Y-96179869D02*
X46686206Y-96179869D01*
X31886206Y-88679869D02*
X32886206Y-89679869D01*
X31886206Y-88679869D02*
X32886206Y-87679869D01*
X46686206Y-81179869D02*
X31686206Y-81179869D01*
X31686206Y-81179869D02*
X31686206Y-96179869D01*
%TO.C,SW3*%
X34136206Y-126394869D02*
X34136206Y-125124869D01*
X34136206Y-121314869D02*
X34136206Y-120044869D01*
X34136206Y-116234869D02*
X34136206Y-114964869D01*
X34136206Y-114964869D02*
X46201206Y-114964869D01*
X46201206Y-126394869D02*
X34136206Y-126394869D01*
X46201206Y-125124869D02*
X46201206Y-126394869D01*
X46201206Y-120044869D02*
X46201206Y-121314869D01*
X46201206Y-114964869D02*
X46201206Y-116234869D01*
%TO.C,SW2*%
X34136206Y-142394869D02*
X34136206Y-141124869D01*
X34136206Y-137314869D02*
X34136206Y-136044869D01*
X34136206Y-132234869D02*
X34136206Y-130964869D01*
X34136206Y-130964869D02*
X46201206Y-130964869D01*
X46201206Y-142394869D02*
X34136206Y-142394869D01*
X46201206Y-141124869D02*
X46201206Y-142394869D01*
X46201206Y-136044869D02*
X46201206Y-137314869D01*
X46201206Y-130964869D02*
X46201206Y-132234869D01*
%TO.C,SW1*%
X34136206Y-110394869D02*
X34136206Y-109124869D01*
X34136206Y-105314869D02*
X34136206Y-104044869D01*
X34136206Y-100234869D02*
X34136206Y-98964869D01*
X34136206Y-98964869D02*
X46201206Y-98964869D01*
X46201206Y-110394869D02*
X34136206Y-110394869D01*
X46201206Y-109124869D02*
X46201206Y-110394869D01*
X46201206Y-104044869D02*
X46201206Y-105314869D01*
X46201206Y-98964869D02*
X46201206Y-100234869D01*
%TO.C,J5*%
X150456206Y-98179869D02*
X150456206Y-83179869D01*
X135456206Y-98179869D02*
X150456206Y-98179869D01*
X150256206Y-90679869D02*
X149256206Y-91679869D01*
X150256206Y-90679869D02*
X149256206Y-89679869D01*
X150456206Y-83179869D02*
X135456206Y-83179869D01*
X135456206Y-83179869D02*
X135456206Y-98179869D01*
%TO.C,J1*%
X150456206Y-133099869D02*
X150456206Y-118099869D01*
X135456206Y-133099869D02*
X150456206Y-133099869D01*
X150256206Y-125599869D02*
X149256206Y-126599869D01*
X150256206Y-125599869D02*
X149256206Y-124599869D01*
X150456206Y-118099869D02*
X135456206Y-118099869D01*
X135456206Y-118099869D02*
X135456206Y-133099869D01*
%TO.C,BT2*%
X121871206Y-147599869D02*
X118871206Y-147599869D01*
X121871206Y-147599869D02*
X121871206Y-144599869D01*
X121531206Y-147259869D02*
X118971206Y-147259869D01*
X113671206Y-147259869D02*
X105321206Y-147259869D01*
X96941206Y-147259869D02*
X101621206Y-147259869D01*
X125631206Y-141659869D02*
X121531206Y-141659869D01*
X121531206Y-141659869D02*
X121531206Y-147259869D01*
X96941206Y-141659869D02*
X96941206Y-147259869D01*
X94041206Y-141659869D02*
X96941206Y-141659869D01*
X125631206Y-92099869D02*
X125631206Y-141659869D01*
X94041206Y-92099869D02*
X94041206Y-141659869D01*
X94041206Y-92099869D02*
X125631206Y-92099869D01*
%TO.C,BT1*%
X85871206Y-147599869D02*
X82871206Y-147599869D01*
X85871206Y-147599869D02*
X85871206Y-144599869D01*
X85531206Y-147259869D02*
X82971206Y-147259869D01*
X77671206Y-147259869D02*
X69321206Y-147259869D01*
X60941206Y-147259869D02*
X65621206Y-147259869D01*
X89631206Y-141659869D02*
X85531206Y-141659869D01*
X85531206Y-141659869D02*
X85531206Y-147259869D01*
X60941206Y-141659869D02*
X60941206Y-147259869D01*
X58041206Y-141659869D02*
X60941206Y-141659869D01*
X89631206Y-92099869D02*
X89631206Y-141659869D01*
X58041206Y-92099869D02*
X58041206Y-141659869D01*
X58041206Y-92099869D02*
X89631206Y-92099869D01*
%TO.C,D4*%
X37606206Y-143399869D02*
X37606206Y-147959869D01*
X37606206Y-143399869D02*
X31386206Y-143399869D01*
X37606206Y-147959869D02*
X31386206Y-147959869D01*
%TO.C,C13*%
X48266206Y-90749869D02*
X72506206Y-90749869D01*
X48266206Y-86326869D02*
X48266206Y-90749869D01*
X48266206Y-79609869D02*
X48266206Y-84032869D01*
X72506206Y-90749869D02*
X72506206Y-86326869D01*
X72506206Y-84032869D02*
X72506206Y-79609869D01*
X72506206Y-79609869D02*
X48266206Y-79609869D01*
%TD*%
%LPC*%
D12*
%TO.C,J2*%
X39306206Y-93759869D03*
D13*
X44386206Y-86139869D03*
D12*
X39306206Y-83599869D03*
D13*
X44386206Y-88679869D03*
%TD*%
D14*
%TO.C,SW3*%
X46836206Y-123219869D03*
X50646206Y-123219869D03*
X54456206Y-123219869D03*
X46836206Y-118139869D03*
X50646206Y-118139869D03*
X54456206Y-118139869D03*
X34136206Y-123219869D03*
X34136206Y-118139869D03*
%TD*%
%TO.C,SW2*%
X46836206Y-139219869D03*
X50646206Y-139219869D03*
X54456206Y-139219869D03*
X46836206Y-134139869D03*
X50646206Y-134139869D03*
X54456206Y-134139869D03*
X34136206Y-139219869D03*
X34136206Y-134139869D03*
%TD*%
%TO.C,SW1*%
X46836206Y-107219869D03*
X50646206Y-107219869D03*
X54456206Y-107219869D03*
X46836206Y-102139869D03*
X50646206Y-102139869D03*
X54456206Y-102139869D03*
X34136206Y-107219869D03*
X34136206Y-102139869D03*
%TD*%
D13*
%TO.C,J5*%
X137756206Y-90679869D03*
D12*
X142836206Y-95759869D03*
D13*
X137756206Y-93219869D03*
D12*
X142836206Y-85599869D03*
%TD*%
D13*
%TO.C,J1*%
X137756206Y-125599869D03*
D12*
X142836206Y-130679869D03*
D13*
X137756206Y-128139869D03*
D12*
X142836206Y-120519869D03*
%TD*%
D15*
%TO.C,BT2*%
X98701206Y-132909869D03*
X121051206Y-119419869D03*
X98701206Y-105939869D03*
D16*
X116321206Y-145199869D03*
D17*
X103441206Y-145199869D03*
%TD*%
D15*
%TO.C,BT1*%
X62701206Y-132909869D03*
X85051206Y-119419869D03*
X62701206Y-105939869D03*
D16*
X80321206Y-145199869D03*
D17*
X67441206Y-145199869D03*
%TD*%
D18*
%TO.C,J4*%
X131836206Y-138139869D03*
D19*
X131836206Y-140679869D03*
X131836206Y-143219869D03*
%TD*%
D20*
%TO.C,D4*%
X36036206Y-145679869D03*
X32836206Y-145679869D03*
%TD*%
D21*
%TO.C,C13*%
X49136206Y-85179869D03*
X71636206Y-85179869D03*
%TD*%
%LPD*%
M02*
