%TF.GenerationSoftware,KiCad,Pcbnew,9.0.3*%
%TF.CreationDate,2025-08-29T14:27:29-04:00*%
%TF.ProjectId,Simple_LFLNA_RevA,53696d70-6c65-45f4-9c46-4c4e415f5265,rev?*%
%TF.SameCoordinates,Original*%
%TF.FileFunction,Soldermask,Bot*%
%TF.FilePolarity,Negative*%
%FSLAX46Y46*%
G04 Gerber Fmt 4.6, Leading zero omitted, Abs format (unit mm)*
G04 Created by KiCad (PCBNEW 9.0.3) date 2025-08-29 14:27:29*
%MOMM*%
%LPD*%
G01*
G04 APERTURE LIST*
%ADD10O,7.000000X3.500000*%
%ADD11O,2.500000X1.600000*%
%ADD12C,2.500000*%
%ADD13C,2.300000*%
%ADD14R,4.020000X2.410000*%
%ADD15O,4.020000X2.410000*%
%ADD16R,1.700000X1.700000*%
%ADD17C,1.700000*%
%ADD18R,2.010000X2.390000*%
%ADD19C,2.400000*%
G04 APERTURE END LIST*
D10*
%TO.C,J2*%
X39306206Y-93759869D03*
D11*
X44386206Y-86139869D03*
D10*
X39306206Y-83599869D03*
D11*
X44386206Y-88679869D03*
%TD*%
D12*
%TO.C,SW3*%
X46836206Y-123219869D03*
X50646206Y-123219869D03*
X54456206Y-123219869D03*
X46836206Y-118139869D03*
X50646206Y-118139869D03*
X54456206Y-118139869D03*
X34136206Y-123219869D03*
X34136206Y-118139869D03*
%TD*%
%TO.C,SW2*%
X46836206Y-139219869D03*
X50646206Y-139219869D03*
X54456206Y-139219869D03*
X46836206Y-134139869D03*
X50646206Y-134139869D03*
X54456206Y-134139869D03*
X34136206Y-139219869D03*
X34136206Y-134139869D03*
%TD*%
%TO.C,SW1*%
X46836206Y-107219869D03*
X50646206Y-107219869D03*
X54456206Y-107219869D03*
X46836206Y-102139869D03*
X50646206Y-102139869D03*
X54456206Y-102139869D03*
X34136206Y-107219869D03*
X34136206Y-102139869D03*
%TD*%
D11*
%TO.C,J5*%
X137756206Y-90679869D03*
D10*
X142836206Y-95759869D03*
D11*
X137756206Y-93219869D03*
D10*
X142836206Y-85599869D03*
%TD*%
D11*
%TO.C,J1*%
X137756206Y-125599869D03*
D10*
X142836206Y-130679869D03*
D11*
X137756206Y-128139869D03*
D10*
X142836206Y-120519869D03*
%TD*%
D13*
%TO.C,BT2*%
X98701206Y-132909869D03*
X121051206Y-119419869D03*
X98701206Y-105939869D03*
D14*
X116321206Y-145199869D03*
D15*
X103441206Y-145199869D03*
%TD*%
D13*
%TO.C,BT1*%
X62701206Y-132909869D03*
X85051206Y-119419869D03*
X62701206Y-105939869D03*
D14*
X80321206Y-145199869D03*
D15*
X67441206Y-145199869D03*
%TD*%
D16*
%TO.C,J4*%
X131836206Y-138139869D03*
D17*
X131836206Y-140679869D03*
X131836206Y-143219869D03*
%TD*%
D18*
%TO.C,D4*%
X36036206Y-145679869D03*
X32836206Y-145679869D03*
%TD*%
D19*
%TO.C,C13*%
X49136206Y-85179869D03*
X71636206Y-85179869D03*
%TD*%
M02*
