M48
; DRILL file {KiCad 9.0.3} date 2025-08-29T14:27:22-0400
; FORMAT={-:-/ absolute / metric / decimal}
; #@! TF.CreationDate,2025-08-29T14:27:22-04:00
; #@! TF.GenerationSoftware,Kicad,Pcbnew,9.0.3
; #@! TF.FileFunction,Plated,1,4,PTH
FMAT,2
METRIC
; #@! TA.AperFunction,Plated,PTH,ViaDrill
T1C0.300
; #@! TA.AperFunction,Plated,PTH,ViaDrill
T2C0.400
; #@! TA.AperFunction,Plated,PTH,ComponentDrill
T3C0.660
; #@! TA.AperFunction,Plated,PTH,ComponentDrill
T4C0.890
; #@! TA.AperFunction,Plated,PTH,ComponentDrill
T5C1.000
; #@! TA.AperFunction,Plated,PTH,ComponentDrill
T6C1.200
; #@! TA.AperFunction,Plated,PTH,ComponentDrill
T7C1.600
; #@! TA.AperFunction,Plated,PTH,ComponentDrill
T8C2.010
%
G90
G05
T1
X32.486Y-143.98
X32.836Y-145.68
X67.836Y-132.53
X68.236Y-90.53
X68.286Y-120.58
X68.461Y-129.155
X68.636Y-132.53
X70.986Y-99.83
X71.286Y-100.63
X74.436Y-87.18
X74.486Y-87.93
X76.686Y-84.43
X76.736Y-91.58
X76.736Y-92.28
X77.236Y-83.78
X78.686Y-129.73
X79.186Y-90.315
X79.686Y-132.18
X79.736Y-89.48
X85.036Y-130.33
X85.186Y-138.93
X90.286Y-77.88
X92.886Y-111.68
X93.736Y-129.08
X94.236Y-111.38
X94.261Y-128.455
X96.686Y-96.53
X97.511Y-96.08
X103.536Y-108.58
X103.536Y-109.23
X111.136Y-129.73
X111.811Y-129.63
X112.095Y-89.626
X112.186Y-91.23
X115.236Y-103.63
X128.036Y-103.53
T2
X66.186Y-80.1
X66.186Y-82.59
X66.186Y-88.68
X66.186Y-94.68
X66.186Y-100.68
X66.186Y-106.77
X66.186Y-109.26
X67.886Y-94.08
X67.986Y-92.38
X68.561Y-97.58
X68.961Y-80.1
X68.961Y-109.26
X69.736Y-97.43
X72.561Y-102.83
X73.586Y-103.08
X75.286Y-113.18
X75.336Y-80.1
X75.336Y-109.26
X75.836Y-128.18
X75.836Y-130.68
X75.836Y-132.18
X75.836Y-133.18
X75.836Y-135.68
X75.836Y-138.18
X76.336Y-113.18
X76.336Y-116.68
X77.336Y-137.18
X78.386Y-131.63
X78.536Y-130.68
X78.686Y-94.38
X78.836Y-137.18
X79.336Y-126.68
X79.336Y-128.18
X79.336Y-135.68
X79.986Y-99.045
X80.236Y-88.03
X80.386Y-137.48
X80.836Y-132.18
X80.836Y-138.68
X80.936Y-130.68
X81.086Y-128.53
X81.586Y-98.28
X81.711Y-80.1
X81.711Y-109.26
X81.836Y-113.18
X81.836Y-116.68
X81.836Y-130.68
X81.836Y-139.18
X81.911Y-128.405
X82.286Y-137.43
X82.886Y-113.18
X84.486Y-80.1
X84.486Y-82.59
X84.486Y-88.68
X84.486Y-94.68
X84.486Y-100.68
X84.486Y-106.77
X84.486Y-109.26
X84.836Y-122.18
X85.836Y-128.18
X85.836Y-135.68
X86.836Y-102.13
X88.336Y-128.18
X88.336Y-133.18
X88.336Y-135.68
X88.336Y-138.18
X88.336Y-140.68
X90.399Y-96.68
X90.836Y-133.18
X90.836Y-135.68
X90.836Y-138.18
X90.836Y-140.68
X91.036Y-91.53
X94.186Y-117.63
X94.286Y-124.93
X95.886Y-116.68
X95.936Y-125.775
X96.686Y-93.78
X97.536Y-101.83
X99.136Y-102.03
X104.436Y-97.275
X104.736Y-125.68
X104.886Y-112.775
X106.286Y-111.63
X106.386Y-97.58
X106.486Y-124.98
X113.781Y-85.675
X113.886Y-86.63
X114.736Y-117.53
X115.786Y-86.53
X116.286Y-116.585
X116.786Y-86.53
X118.561Y-101.78
X119.636Y-102.08
X125.636Y-112.775
X125.999Y-96.742
X127.386Y-111.93
X127.536Y-96.88
X130.486Y-124.78
X130.586Y-126.58
X130.836Y-89.73
X130.911Y-91.655
T4
X44.386Y-86.14
X44.386Y-88.68
X137.756Y-90.68
X137.756Y-93.22
X137.756Y-125.6
X137.756Y-128.14
T5
X131.836Y-138.14
X131.836Y-140.68
X131.836Y-143.22
T6
X49.136Y-85.18
X71.636Y-85.18
T7
X34.136Y-102.14
X34.136Y-107.22
X34.136Y-118.14
X34.136Y-123.22
X34.136Y-134.14
X34.136Y-139.22
X46.836Y-102.14
X46.836Y-107.22
X46.836Y-118.14
X46.836Y-123.22
X46.836Y-134.14
X46.836Y-139.22
X50.646Y-102.14
X50.646Y-107.22
X50.646Y-118.14
X50.646Y-123.22
X50.646Y-134.14
X50.646Y-139.22
X54.456Y-102.14
X54.456Y-107.22
X54.456Y-118.14
X54.456Y-123.22
X54.456Y-134.14
X54.456Y-139.22
T8
X39.306Y-83.6
X39.306Y-93.76
X142.836Y-85.6
X142.836Y-95.76
X142.836Y-120.52
X142.836Y-130.68
T3
G00X66.636Y-145.2
M15
G01X68.246Y-145.2
M16
G05
G00X79.516Y-145.2
M15
G01X81.126Y-145.2
M16
G05
G00X102.636Y-145.2
M15
G01X104.246Y-145.2
M16
G05
G00X115.516Y-145.2
M15
G01X117.126Y-145.2
M16
G05
M30
