%TF.GenerationSoftware,KiCad,Pcbnew,9.0.3*%
%TF.CreationDate,2025-08-29T14:27:28-04:00*%
%TF.ProjectId,Simple_LFLNA_RevA,53696d70-6c65-45f4-9c46-4c4e415f5265,rev?*%
%TF.SameCoordinates,Original*%
%TF.FileFunction,Paste,Top*%
%TF.FilePolarity,Positive*%
%FSLAX46Y46*%
G04 Gerber Fmt 4.6, Leading zero omitted, Abs format (unit mm)*
G04 Created by KiCad (PCBNEW 9.0.3) date 2025-08-29 14:27:28*
%MOMM*%
%LPD*%
G01*
G04 APERTURE LIST*
G04 Aperture macros list*
%AMRoundRect*
0 Rectangle with rounded corners*
0 $1 Rounding radius*
0 $2 $3 $4 $5 $6 $7 $8 $9 X,Y pos of 4 corners*
0 Add a 4 corners polygon primitive as box body*
4,1,4,$2,$3,$4,$5,$6,$7,$8,$9,$2,$3,0*
0 Add four circle primitives for the rounded corners*
1,1,$1+$1,$2,$3*
1,1,$1+$1,$4,$5*
1,1,$1+$1,$6,$7*
1,1,$1+$1,$8,$9*
0 Add four rect primitives between the rounded corners*
20,1,$1+$1,$2,$3,$4,$5,0*
20,1,$1+$1,$4,$5,$6,$7,0*
20,1,$1+$1,$6,$7,$8,$9,0*
20,1,$1+$1,$8,$9,$2,$3,0*%
G04 Aperture macros list end*
%ADD10RoundRect,0.225000X0.225000X0.250000X-0.225000X0.250000X-0.225000X-0.250000X0.225000X-0.250000X0*%
%ADD11RoundRect,0.150000X-0.825000X-0.150000X0.825000X-0.150000X0.825000X0.150000X-0.825000X0.150000X0*%
%ADD12R,1.000000X1.000000*%
%ADD13R,4.550000X1.000000*%
%ADD14R,3.800000X1.000000*%
%ADD15R,1.000000X3.980000*%
%ADD16R,1.000000X3.800000*%
%ADD17RoundRect,0.150000X-0.512500X-0.150000X0.512500X-0.150000X0.512500X0.150000X-0.512500X0.150000X0*%
%ADD18RoundRect,0.200000X0.200000X0.275000X-0.200000X0.275000X-0.200000X-0.275000X0.200000X-0.275000X0*%
%ADD19RoundRect,0.200000X-0.200000X-0.275000X0.200000X-0.275000X0.200000X0.275000X-0.200000X0.275000X0*%
%ADD20RoundRect,0.200000X0.275000X-0.200000X0.275000X0.200000X-0.275000X0.200000X-0.275000X-0.200000X0*%
%ADD21RoundRect,0.200000X-0.275000X0.200000X-0.275000X-0.200000X0.275000X-0.200000X0.275000X0.200000X0*%
%ADD22RoundRect,0.150000X0.587500X0.150000X-0.587500X0.150000X-0.587500X-0.150000X0.587500X-0.150000X0*%
%ADD23RoundRect,0.150000X0.150000X-0.587500X0.150000X0.587500X-0.150000X0.587500X-0.150000X-0.587500X0*%
%ADD24RoundRect,0.250000X-0.375000X-0.625000X0.375000X-0.625000X0.375000X0.625000X-0.375000X0.625000X0*%
%ADD25RoundRect,0.150000X-0.587500X-0.150000X0.587500X-0.150000X0.587500X0.150000X-0.587500X0.150000X0*%
%ADD26RoundRect,0.150000X-0.150000X-0.200000X0.150000X-0.200000X0.150000X0.200000X-0.150000X0.200000X0*%
%ADD27RoundRect,0.150000X0.150000X0.200000X-0.150000X0.200000X-0.150000X-0.200000X0.150000X-0.200000X0*%
%ADD28RoundRect,0.150000X-0.150000X0.587500X-0.150000X-0.587500X0.150000X-0.587500X0.150000X0.587500X0*%
%ADD29RoundRect,0.250000X0.325000X0.650000X-0.325000X0.650000X-0.325000X-0.650000X0.325000X-0.650000X0*%
%ADD30RoundRect,0.250000X-0.475000X0.250000X-0.475000X-0.250000X0.475000X-0.250000X0.475000X0.250000X0*%
%ADD31RoundRect,0.250000X-0.420000X-0.945000X0.420000X-0.945000X0.420000X0.945000X-0.420000X0.945000X0*%
%ADD32RoundRect,0.250000X-0.250000X-0.475000X0.250000X-0.475000X0.250000X0.475000X-0.250000X0.475000X0*%
%ADD33RoundRect,0.250000X0.650000X-0.325000X0.650000X0.325000X-0.650000X0.325000X-0.650000X-0.325000X0*%
%ADD34RoundRect,0.250000X0.475000X-0.250000X0.475000X0.250000X-0.475000X0.250000X-0.475000X-0.250000X0*%
%ADD35RoundRect,0.250000X-0.325000X-0.650000X0.325000X-0.650000X0.325000X0.650000X-0.325000X0.650000X0*%
%ADD36RoundRect,0.225000X-0.225000X-0.250000X0.225000X-0.250000X0.225000X0.250000X-0.225000X0.250000X0*%
%ADD37RoundRect,0.250000X-0.650000X0.325000X-0.650000X-0.325000X0.650000X-0.325000X0.650000X0.325000X0*%
%ADD38RoundRect,0.250000X0.250000X0.475000X-0.250000X0.475000X-0.250000X-0.475000X0.250000X-0.475000X0*%
G04 APERTURE END LIST*
D10*
%TO.C,C40*%
X115611206Y-116679869D03*
X114061206Y-116679869D03*
%TD*%
%TO.C,C39*%
X128111206Y-112679869D03*
X126561206Y-112679869D03*
%TD*%
%TO.C,C38*%
X95111206Y-116679869D03*
X93561206Y-116679869D03*
%TD*%
%TO.C,C37*%
X107111206Y-112679869D03*
X105561206Y-112679869D03*
%TD*%
%TO.C,C18*%
X95111206Y-125679869D03*
X93561206Y-125679869D03*
%TD*%
%TO.C,C15*%
X107111206Y-125679869D03*
X105561206Y-125679869D03*
%TD*%
D11*
%TO.C,U3*%
X118761206Y-97274869D03*
X118761206Y-98544869D03*
X118761206Y-99814869D03*
X118761206Y-101084869D03*
X123711206Y-101084869D03*
X123711206Y-99814869D03*
X123711206Y-98544869D03*
X123711206Y-97274869D03*
%TD*%
%TO.C,U2*%
X97861206Y-97274869D03*
X97861206Y-98544869D03*
X97861206Y-99814869D03*
X97861206Y-101084869D03*
X102811206Y-101084869D03*
X102811206Y-99814869D03*
X102811206Y-98544869D03*
X102811206Y-97274869D03*
%TD*%
D12*
%TO.C,J3*%
X66186206Y-109259869D03*
D13*
X68961206Y-109259869D03*
D14*
X75336206Y-109259869D03*
D13*
X81711206Y-109259869D03*
D12*
X84486206Y-109259869D03*
D15*
X66186206Y-106769869D03*
X84486206Y-106769869D03*
D16*
X66186206Y-100679869D03*
X84486206Y-100679869D03*
X66186206Y-94679869D03*
X84486206Y-94679869D03*
X66186206Y-88679869D03*
X84486206Y-88679869D03*
D15*
X66186206Y-82589869D03*
X84486206Y-82589869D03*
D12*
X66186206Y-80099869D03*
D13*
X68961206Y-80099869D03*
D14*
X75336206Y-80099869D03*
D13*
X81711206Y-80099869D03*
D12*
X84486206Y-80099869D03*
%TD*%
D11*
%TO.C,U8*%
X97861206Y-112774869D03*
X97861206Y-114044869D03*
X97861206Y-115314869D03*
X97861206Y-116584869D03*
X102811206Y-116584869D03*
X102811206Y-115314869D03*
X102811206Y-114044869D03*
X102811206Y-112774869D03*
%TD*%
%TO.C,U7*%
X97861206Y-125774869D03*
X97861206Y-127044869D03*
X97861206Y-128314869D03*
X97861206Y-129584869D03*
X102811206Y-129584869D03*
X102811206Y-128314869D03*
X102811206Y-127044869D03*
X102811206Y-125774869D03*
%TD*%
D17*
%TO.C,U6*%
X79698706Y-138229869D03*
X79698706Y-139179869D03*
X79698706Y-140129869D03*
X81973706Y-140129869D03*
X81973706Y-138229869D03*
%TD*%
%TO.C,U5*%
X79698706Y-129729869D03*
X79698706Y-130679869D03*
X79698706Y-131629869D03*
X81973706Y-131629869D03*
X81973706Y-129729869D03*
%TD*%
D11*
%TO.C,U4*%
X118861206Y-112774869D03*
X118861206Y-114044869D03*
X118861206Y-115314869D03*
X118861206Y-116584869D03*
X123811206Y-116584869D03*
X123811206Y-115314869D03*
X123811206Y-114044869D03*
X123811206Y-112774869D03*
%TD*%
%TO.C,U1*%
X72861206Y-97774869D03*
X72861206Y-99044869D03*
X72861206Y-100314869D03*
X72861206Y-101584869D03*
X77811206Y-101584869D03*
X77811206Y-100314869D03*
X77811206Y-99044869D03*
X77811206Y-97774869D03*
%TD*%
D18*
%TO.C,R38*%
X107161206Y-98679869D03*
X105511206Y-98679869D03*
%TD*%
%TO.C,R37*%
X67723706Y-123679869D03*
X66073706Y-123679869D03*
%TD*%
D19*
%TO.C,R36*%
X66073706Y-119679869D03*
X67723706Y-119679869D03*
%TD*%
%TO.C,R35*%
X66248706Y-133679869D03*
X67898706Y-133679869D03*
%TD*%
D18*
%TO.C,R34*%
X67898706Y-129679869D03*
X66248706Y-129679869D03*
%TD*%
D19*
%TO.C,R33*%
X93511206Y-114679869D03*
X95161206Y-114679869D03*
%TD*%
D18*
%TO.C,R32*%
X95161206Y-112679869D03*
X93511206Y-112679869D03*
%TD*%
D20*
%TO.C,R31*%
X85836206Y-140004869D03*
X85836206Y-138354869D03*
%TD*%
D19*
%TO.C,R30*%
X93511206Y-110679869D03*
X95161206Y-110679869D03*
%TD*%
D18*
%TO.C,R29*%
X42661206Y-145679869D03*
X41011206Y-145679869D03*
%TD*%
D20*
%TO.C,R28*%
X83836206Y-140004869D03*
X83836206Y-138354869D03*
%TD*%
D18*
%TO.C,R27*%
X107161206Y-127679869D03*
X105511206Y-127679869D03*
%TD*%
D19*
%TO.C,R26*%
X114011206Y-114679869D03*
X115661206Y-114679869D03*
%TD*%
%TO.C,R25*%
X87011206Y-80179869D03*
X88661206Y-80179869D03*
%TD*%
D20*
%TO.C,R24*%
X85836206Y-131504869D03*
X85836206Y-129854869D03*
%TD*%
D18*
%TO.C,R23*%
X115661206Y-112679869D03*
X114011206Y-112679869D03*
%TD*%
D20*
%TO.C,R22*%
X83836206Y-131504869D03*
X83836206Y-129854869D03*
%TD*%
D19*
%TO.C,R21*%
X93511206Y-127679869D03*
X95161206Y-127679869D03*
%TD*%
%TO.C,R20*%
X114011206Y-110679869D03*
X115661206Y-110679869D03*
%TD*%
D18*
%TO.C,R19*%
X99161206Y-93679869D03*
X97511206Y-93679869D03*
%TD*%
D19*
%TO.C,R18*%
X110011206Y-91679869D03*
X111661206Y-91679869D03*
%TD*%
%TO.C,R17*%
X74511206Y-83679869D03*
X76161206Y-83679869D03*
%TD*%
D18*
%TO.C,R16*%
X99161206Y-95179869D03*
X97511206Y-95179869D03*
%TD*%
%TO.C,R15*%
X70661206Y-90179869D03*
X69011206Y-90179869D03*
%TD*%
D19*
%TO.C,R14*%
X76511206Y-93679869D03*
X78161206Y-93679869D03*
%TD*%
%TO.C,R13*%
X47011206Y-97679869D03*
X48661206Y-97679869D03*
%TD*%
D21*
%TO.C,R12*%
X86336206Y-100854869D03*
X86336206Y-102504869D03*
%TD*%
D18*
%TO.C,R11*%
X116161206Y-100679869D03*
X114511206Y-100679869D03*
%TD*%
%TO.C,R10*%
X116161206Y-98679869D03*
X114511206Y-98679869D03*
%TD*%
D19*
%TO.C,R9*%
X126511206Y-102179869D03*
X128161206Y-102179869D03*
%TD*%
D18*
%TO.C,R8*%
X128161206Y-100179869D03*
X126511206Y-100179869D03*
%TD*%
%TO.C,R7*%
X128161206Y-98179869D03*
X126511206Y-98179869D03*
%TD*%
D19*
%TO.C,R6*%
X105511206Y-94679869D03*
X107161206Y-94679869D03*
%TD*%
D18*
%TO.C,R5*%
X78161206Y-95679869D03*
X76511206Y-95679869D03*
%TD*%
D19*
%TO.C,R4*%
X68511206Y-100679869D03*
X70161206Y-100679869D03*
%TD*%
%TO.C,R3*%
X68511206Y-98679869D03*
X70161206Y-98679869D03*
%TD*%
%TO.C,R2*%
X114011206Y-108679869D03*
X115661206Y-108679869D03*
%TD*%
%TO.C,R1*%
X93511206Y-108679869D03*
X95161206Y-108679869D03*
%TD*%
D22*
%TO.C,Q5*%
X67898706Y-127579869D03*
X67898706Y-125679869D03*
X66023706Y-126629869D03*
%TD*%
%TO.C,Q4*%
X67836206Y-137629869D03*
X67836206Y-135729869D03*
X65961206Y-136679869D03*
%TD*%
D23*
%TO.C,Q3*%
X109886206Y-89617369D03*
X111786206Y-89617369D03*
X110836206Y-87742369D03*
%TD*%
D22*
%TO.C,Q2*%
X92273706Y-93629869D03*
X92273706Y-91729869D03*
X90398706Y-92679869D03*
%TD*%
D11*
%TO.C,Q1*%
X72861206Y-87774869D03*
X72861206Y-89044869D03*
X72861206Y-90314869D03*
X72861206Y-91584869D03*
X77811206Y-91584869D03*
X77811206Y-90314869D03*
X77811206Y-89044869D03*
X77811206Y-87774869D03*
%TD*%
D24*
%TO.C,F2*%
X59436206Y-138679869D03*
X62236206Y-138679869D03*
%TD*%
%TO.C,F1*%
X59436206Y-127679869D03*
X62236206Y-127679869D03*
%TD*%
D25*
%TO.C,D8*%
X131898706Y-89729869D03*
X131898706Y-91629869D03*
X133773706Y-90679869D03*
%TD*%
D26*
%TO.C,D7*%
X67598706Y-121679869D03*
X66198706Y-121679869D03*
%TD*%
D27*
%TO.C,D6*%
X66198706Y-131679869D03*
X67598706Y-131679869D03*
%TD*%
D25*
%TO.C,D5*%
X131648706Y-124729869D03*
X131648706Y-126629869D03*
X133523706Y-125679869D03*
%TD*%
%TO.C,D3*%
X68836206Y-92229869D03*
X68836206Y-94129869D03*
X70711206Y-93179869D03*
%TD*%
D28*
%TO.C,D2*%
X115786206Y-87804869D03*
X113886206Y-87804869D03*
X114836206Y-89679869D03*
%TD*%
D25*
%TO.C,D1*%
X90398706Y-95729869D03*
X90398706Y-97629869D03*
X92273706Y-96679869D03*
%TD*%
D29*
%TO.C,C36*%
X103311206Y-119679869D03*
X100361206Y-119679869D03*
%TD*%
%TO.C,C35*%
X111811206Y-128179869D03*
X108861206Y-128179869D03*
%TD*%
%TO.C,C34*%
X111811206Y-131179869D03*
X108861206Y-131179869D03*
%TD*%
D30*
%TO.C,C33*%
X77336206Y-138229869D03*
X77336206Y-140129869D03*
%TD*%
D31*
%TO.C,C32*%
X74296206Y-113179869D03*
X77376206Y-113179869D03*
%TD*%
D32*
%TO.C,C31*%
X80386206Y-136179869D03*
X82286206Y-136179869D03*
%TD*%
D33*
%TO.C,C30*%
X91336206Y-80154869D03*
X91336206Y-77204869D03*
%TD*%
D34*
%TO.C,C29*%
X77336206Y-131629869D03*
X77336206Y-129729869D03*
%TD*%
D31*
%TO.C,C28*%
X80836206Y-113179869D03*
X83916206Y-113179869D03*
%TD*%
D32*
%TO.C,C27*%
X80386206Y-127679869D03*
X82286206Y-127679869D03*
%TD*%
D35*
%TO.C,C26*%
X114361206Y-119179869D03*
X117311206Y-119179869D03*
%TD*%
D36*
%TO.C,C25*%
X118561206Y-102679869D03*
X120111206Y-102679869D03*
%TD*%
%TO.C,C24*%
X97061206Y-102679869D03*
X98611206Y-102679869D03*
%TD*%
%TO.C,C23*%
X72561206Y-103679869D03*
X74111206Y-103679869D03*
%TD*%
D10*
%TO.C,C22*%
X128111206Y-96179869D03*
X126561206Y-96179869D03*
%TD*%
%TO.C,C21*%
X107111206Y-96679869D03*
X105561206Y-96679869D03*
%TD*%
%TO.C,C20*%
X82111206Y-98679869D03*
X80561206Y-98679869D03*
%TD*%
D37*
%TO.C,C19*%
X95336206Y-95204869D03*
X95336206Y-98154869D03*
%TD*%
D32*
%TO.C,C17*%
X116286206Y-102679869D03*
X114386206Y-102679869D03*
%TD*%
D38*
%TO.C,C16*%
X128286206Y-104679869D03*
X126386206Y-104679869D03*
%TD*%
D33*
%TO.C,C14*%
X107336206Y-91654869D03*
X107336206Y-88704869D03*
%TD*%
D37*
%TO.C,C12*%
X88336206Y-100704869D03*
X88336206Y-103654869D03*
%TD*%
D33*
%TO.C,C11*%
X104836206Y-91654869D03*
X104836206Y-88704869D03*
%TD*%
D37*
%TO.C,C10*%
X90836206Y-100704869D03*
X90836206Y-103654869D03*
%TD*%
D33*
%TO.C,C9*%
X81336206Y-90154869D03*
X81336206Y-87204869D03*
%TD*%
%TO.C,C8*%
X102336206Y-91654869D03*
X102336206Y-88704869D03*
%TD*%
D37*
%TO.C,C7*%
X93336206Y-100704869D03*
X93336206Y-103654869D03*
%TD*%
D29*
%TO.C,C6*%
X112861206Y-96679869D03*
X115811206Y-96679869D03*
%TD*%
D37*
%TO.C,C5*%
X132836206Y-99704869D03*
X132836206Y-102654869D03*
%TD*%
D33*
%TO.C,C4*%
X99836206Y-91654869D03*
X99836206Y-88704869D03*
%TD*%
%TO.C,C3*%
X97336206Y-91679869D03*
X97336206Y-88729869D03*
%TD*%
D10*
%TO.C,C2*%
X70111206Y-96679869D03*
X68561206Y-96679869D03*
%TD*%
D29*
%TO.C,C1*%
X74811206Y-95679869D03*
X71861206Y-95679869D03*
%TD*%
M02*
