%TF.GenerationSoftware,KiCad,Pcbnew,9.0.3*%
%TF.CreationDate,2025-08-29T14:27:28-04:00*%
%TF.ProjectId,Simple_LFLNA_RevA,53696d70-6c65-45f4-9c46-4c4e415f5265,rev?*%
%TF.SameCoordinates,Original*%
%TF.FileFunction,Copper,L3,Inr*%
%TF.FilePolarity,Positive*%
%FSLAX46Y46*%
G04 Gerber Fmt 4.6, Leading zero omitted, Abs format (unit mm)*
G04 Created by KiCad (PCBNEW 9.0.3) date 2025-08-29 14:27:28*
%MOMM*%
%LPD*%
G01*
G04 APERTURE LIST*
%TA.AperFunction,ComponentPad*%
%ADD10O,7.000000X3.500000*%
%TD*%
%TA.AperFunction,ComponentPad*%
%ADD11O,2.500000X1.600000*%
%TD*%
%TA.AperFunction,ComponentPad*%
%ADD12C,2.500000*%
%TD*%
%TA.AperFunction,WasherPad*%
%ADD13C,2.300000*%
%TD*%
%TA.AperFunction,ComponentPad*%
%ADD14R,4.020000X2.410000*%
%TD*%
%TA.AperFunction,ComponentPad*%
%ADD15O,4.020000X2.410000*%
%TD*%
%TA.AperFunction,ComponentPad*%
%ADD16R,1.700000X1.700000*%
%TD*%
%TA.AperFunction,ComponentPad*%
%ADD17C,1.700000*%
%TD*%
%TA.AperFunction,ComponentPad*%
%ADD18C,2.400000*%
%TD*%
%TA.AperFunction,ViaPad*%
%ADD19C,0.600000*%
%TD*%
%TA.AperFunction,ViaPad*%
%ADD20C,0.450000*%
%TD*%
G04 APERTURE END LIST*
D10*
%TO.N,GND*%
%TO.C,J2*%
X39306206Y-93759869D03*
D11*
X44386206Y-86139869D03*
D10*
X39306206Y-83599869D03*
D11*
%TO.N,Net-(J2-In)*%
X44386206Y-88679869D03*
%TD*%
D12*
%TO.N,GND*%
%TO.C,SW3*%
X46836206Y-123219869D03*
%TO.N,Net-(SW3A-B)*%
X50646206Y-123219869D03*
%TO.N,-9V*%
X54456206Y-123219869D03*
%TO.N,unconnected-(SW3B-A-Pad4)*%
X46836206Y-118139869D03*
%TO.N,unconnected-(SW3B-B-Pad5)*%
X50646206Y-118139869D03*
%TO.N,unconnected-(SW3B-C-Pad6)*%
X54456206Y-118139869D03*
%TO.N,N/C*%
X34136206Y-123219869D03*
X34136206Y-118139869D03*
%TD*%
%TO.N,Net-(BT1-+)*%
%TO.C,SW2*%
X46836206Y-139219869D03*
%TO.N,Net-(SW2A-B)*%
X50646206Y-139219869D03*
%TO.N,EXT_V+*%
X54456206Y-139219869D03*
%TO.N,Net-(BT2--)*%
X46836206Y-134139869D03*
%TO.N,Net-(SW2B-B)*%
X50646206Y-134139869D03*
%TO.N,EXT_V-*%
X54456206Y-134139869D03*
%TO.N,N/C*%
X34136206Y-139219869D03*
X34136206Y-134139869D03*
%TD*%
%TO.N,unconnected-(SW1A-A-Pad1)*%
%TO.C,SW1*%
X46836206Y-107219869D03*
%TO.N,GND*%
X50646206Y-107219869D03*
%TO.N,/Q1_INP*%
X54456206Y-107219869D03*
%TO.N,Net-(J2-In)*%
X46836206Y-102139869D03*
%TO.N,Net-(SW1B-B)*%
X50646206Y-102139869D03*
%TO.N,unconnected-(SW1B-C-Pad6)*%
X54456206Y-102139869D03*
%TO.N,N/C*%
X34136206Y-107219869D03*
X34136206Y-102139869D03*
%TD*%
D11*
%TO.N,Net-(J5-In)*%
%TO.C,J5*%
X137756206Y-90679869D03*
D10*
%TO.N,GND*%
X142836206Y-95759869D03*
D11*
X137756206Y-93219869D03*
D10*
X142836206Y-85599869D03*
%TD*%
D11*
%TO.N,Net-(J1-In)*%
%TO.C,J1*%
X137756206Y-125599869D03*
D10*
%TO.N,GND*%
X142836206Y-130679869D03*
D11*
X137756206Y-128139869D03*
D10*
X142836206Y-120519869D03*
%TD*%
D13*
%TO.N,*%
%TO.C,BT2*%
X98701206Y-132909869D03*
X121051206Y-119419869D03*
X98701206Y-105939869D03*
D14*
%TO.N,GND*%
X116321206Y-145199869D03*
D15*
%TO.N,Net-(BT2--)*%
X103441206Y-145199869D03*
%TD*%
D13*
%TO.N,*%
%TO.C,BT1*%
X62701206Y-132909869D03*
X85051206Y-119419869D03*
X62701206Y-105939869D03*
D14*
%TO.N,Net-(BT1-+)*%
X80321206Y-145199869D03*
D15*
%TO.N,GND*%
X67441206Y-145199869D03*
%TD*%
D16*
%TO.N,EXT_V+*%
%TO.C,J4*%
X131836206Y-138139869D03*
D17*
%TO.N,GND*%
X131836206Y-140679869D03*
%TO.N,EXT_V-*%
X131836206Y-143219869D03*
%TD*%
D18*
%TO.N,Net-(SW1B-B)*%
%TO.C,C13*%
X49136206Y-85179869D03*
%TO.N,/Q1_INP*%
X71636206Y-85179869D03*
%TD*%
D19*
%TO.N,GND*%
X80836206Y-132179869D03*
X81836206Y-130679869D03*
X75836206Y-132179869D03*
X79336206Y-126679869D03*
X79336206Y-128179869D03*
X77336206Y-137179869D03*
X81836206Y-139179869D03*
X79336206Y-135679869D03*
X78836206Y-137179869D03*
X80836206Y-138679869D03*
X75836206Y-138179869D03*
X75836206Y-128179869D03*
X75836206Y-130679869D03*
X75836206Y-133179869D03*
X75836206Y-135679869D03*
X88336206Y-140679869D03*
X90836206Y-140679869D03*
X90836206Y-138179869D03*
X88336206Y-138179869D03*
X85836206Y-135679869D03*
X88336206Y-135679869D03*
X90836206Y-135679869D03*
X90836206Y-133179869D03*
X88336206Y-133179869D03*
X88336206Y-128179869D03*
X85836206Y-128179869D03*
D20*
%TO.N,Net-(D4-A)*%
X32836206Y-145679869D03*
D19*
%TO.N,+6V*%
X81836206Y-116679869D03*
%TO.N,-6V*%
X76336206Y-116679869D03*
%TO.N,GND*%
X86836206Y-102129869D03*
X84836206Y-122179869D03*
D20*
X32486206Y-143979869D03*
D19*
%TO.N,+6V*%
X81911206Y-128404869D03*
D20*
%TO.N,GND*%
X103536206Y-109229869D03*
%TO.N,Net-(C11-Pad2)*%
X103536206Y-108579869D03*
%TO.N,GND*%
X96686206Y-96529869D03*
%TO.N,Net-(C11-Pad2)*%
X97511206Y-96079869D03*
D19*
%TO.N,GND*%
X116786206Y-86529869D03*
X113780875Y-85674538D03*
D20*
X112095147Y-89626309D03*
X112186206Y-91229869D03*
X90286206Y-77879869D03*
X68636206Y-132529869D03*
%TO.N,-9V*%
X67836206Y-132529869D03*
%TO.N,GND*%
X68461206Y-129154869D03*
%TO.N,+9V*%
X78686206Y-129729869D03*
X79686206Y-132179869D03*
%TO.N,GND*%
X68286206Y-120579869D03*
D19*
X82886206Y-113179869D03*
%TO.N,+6V*%
X81836206Y-113179869D03*
%TO.N,-6V*%
X76336206Y-113179869D03*
%TO.N,GND*%
X75286206Y-113179869D03*
D20*
X92886206Y-111679869D03*
D19*
%TO.N,+6V*%
X130586206Y-126579869D03*
%TO.N,-6V*%
X130486206Y-124779869D03*
X130836206Y-89729869D03*
%TO.N,+6V*%
X130911206Y-91654869D03*
%TO.N,-6V*%
X115786206Y-86529869D03*
%TO.N,+6V*%
X113886206Y-86629869D03*
D20*
%TO.N,GND*%
X85186206Y-138929869D03*
D19*
X80386206Y-137479869D03*
%TO.N,-6V*%
X82286206Y-137429869D03*
%TO.N,GND*%
X81086206Y-128529869D03*
X80936206Y-130679869D03*
X78386206Y-131629869D03*
X78536206Y-130679869D03*
D20*
X85036206Y-130329869D03*
X77236206Y-83779869D03*
%TO.N,-6V*%
X76686206Y-84429869D03*
%TO.N,GND*%
X79736206Y-89479869D03*
%TO.N,/D_INV*%
X79186206Y-90314869D03*
%TO.N,GND*%
X111136206Y-129729869D03*
%TO.N,-6V*%
X111811206Y-129629869D03*
%TO.N,GND*%
X93736206Y-129079869D03*
%TO.N,+6V*%
X94261206Y-128454869D03*
D19*
%TO.N,GND*%
X94286206Y-124929869D03*
%TO.N,+6V*%
X104736206Y-125679869D03*
%TO.N,-6V*%
X95936206Y-125774869D03*
%TO.N,GND*%
X106486206Y-124979869D03*
X80236206Y-88029869D03*
X78686206Y-94379869D03*
%TO.N,+6V*%
X79986206Y-99044869D03*
%TO.N,GND*%
X81586206Y-98279869D03*
%TO.N,-6V*%
X72561206Y-102829869D03*
%TO.N,GND*%
X73586206Y-103079869D03*
X67986206Y-92379869D03*
X67886206Y-94079869D03*
%TO.N,+6V*%
X68561206Y-97579869D03*
%TO.N,GND*%
X69736206Y-97429869D03*
D20*
X70986206Y-99829869D03*
X74436206Y-87179869D03*
%TO.N,/LTP_COMM*%
X74486206Y-87929869D03*
%TO.N,GND*%
X76736206Y-92279869D03*
%TO.N,/LTP_COMM*%
X76736206Y-91579869D03*
%TO.N,GND*%
X68236206Y-90529869D03*
%TO.N,/D_INV*%
X71286206Y-100629869D03*
D19*
%TO.N,+6V*%
X125636206Y-112774869D03*
%TO.N,GND*%
X127386206Y-111929869D03*
D20*
X128036206Y-103529869D03*
X115236206Y-103629869D03*
D19*
X90398706Y-96679869D03*
D20*
%TO.N,+6V*%
X94236206Y-111379869D03*
D19*
%TO.N,GND*%
X91036206Y-91529869D03*
X96686206Y-93779869D03*
X94186206Y-117629869D03*
%TO.N,-6V*%
X95886206Y-116679869D03*
%TO.N,+6V*%
X104886206Y-112774869D03*
%TO.N,GND*%
X114736206Y-117529869D03*
%TO.N,-6V*%
X116286206Y-116584869D03*
%TO.N,+6V*%
X125998706Y-96742369D03*
%TO.N,GND*%
X127536206Y-96879869D03*
X119636206Y-102079869D03*
%TO.N,-6V*%
X118561206Y-101779869D03*
%TO.N,+6V*%
X104436206Y-97274869D03*
%TO.N,GND*%
X106386206Y-97579869D03*
%TO.N,-6V*%
X97536206Y-101829869D03*
%TO.N,GND*%
X99136206Y-102029869D03*
X106286206Y-111629869D03*
X66186206Y-88679869D03*
X66186206Y-94679869D03*
X66186206Y-100679869D03*
X66186206Y-106769869D03*
X66186206Y-109259869D03*
X68961206Y-109259869D03*
X75336206Y-109259869D03*
X81711206Y-109259869D03*
X84486206Y-109259869D03*
X84486206Y-106769869D03*
X84486206Y-100679869D03*
X84486206Y-94679869D03*
X84486206Y-88679869D03*
X84486206Y-82589869D03*
X84486206Y-80099869D03*
X81711206Y-80099869D03*
X75336206Y-80099869D03*
X68961206Y-80099869D03*
X66186206Y-80099869D03*
X66186206Y-82589869D03*
%TD*%
%TA.AperFunction,Conductor*%
%TO.N,GND*%
G36*
X150753745Y-71725054D02*
G01*
X150799500Y-71777858D01*
X150810706Y-71829369D01*
X150810706Y-149530369D01*
X150791021Y-149597408D01*
X150738217Y-149643163D01*
X150686706Y-149654369D01*
X30985706Y-149654369D01*
X30918667Y-149634684D01*
X30872912Y-149581880D01*
X30861706Y-149530369D01*
X30861706Y-145623851D01*
X32410706Y-145623851D01*
X32410706Y-145735887D01*
X32439703Y-145844106D01*
X32495721Y-145941132D01*
X32574943Y-146020354D01*
X32671969Y-146076372D01*
X32780188Y-146105369D01*
X32780190Y-146105369D01*
X32892222Y-146105369D01*
X32892224Y-146105369D01*
X33000443Y-146076372D01*
X33097469Y-146020354D01*
X33176691Y-145941132D01*
X33232709Y-145844106D01*
X33261706Y-145735887D01*
X33261706Y-145623851D01*
X33232709Y-145515632D01*
X33176691Y-145418606D01*
X33097469Y-145339384D01*
X33000443Y-145283366D01*
X32892224Y-145254369D01*
X32780188Y-145254369D01*
X32671969Y-145283366D01*
X32671966Y-145283367D01*
X32574946Y-145339382D01*
X32574940Y-145339386D01*
X32495723Y-145418603D01*
X32495719Y-145418609D01*
X32439704Y-145515629D01*
X32439703Y-145515632D01*
X32410706Y-145623851D01*
X30861706Y-145623851D01*
X30861706Y-144949869D01*
X64949407Y-144949869D01*
X66419515Y-144949869D01*
X66372140Y-144997244D01*
X66328695Y-145072494D01*
X66306206Y-145156424D01*
X66306206Y-145243314D01*
X66328695Y-145327244D01*
X66372140Y-145402494D01*
X66419515Y-145449869D01*
X64949407Y-145449869D01*
X64960378Y-145533208D01*
X65018226Y-145749099D01*
X65103752Y-145955580D01*
X65103760Y-145955596D01*
X65215504Y-146149141D01*
X65215515Y-146149157D01*
X65351567Y-146326464D01*
X65351573Y-146326471D01*
X65509603Y-146484501D01*
X65509610Y-146484507D01*
X65686917Y-146620559D01*
X65686933Y-146620570D01*
X65880478Y-146732314D01*
X65880494Y-146732322D01*
X66086975Y-146817848D01*
X66302866Y-146875696D01*
X66524444Y-146904867D01*
X66524461Y-146904869D01*
X67191206Y-146904869D01*
X67191206Y-145529869D01*
X67691206Y-145529869D01*
X67691206Y-146904869D01*
X68357951Y-146904869D01*
X68357967Y-146904867D01*
X68579545Y-146875696D01*
X68795436Y-146817848D01*
X69001917Y-146732322D01*
X69001933Y-146732314D01*
X69195478Y-146620570D01*
X69195494Y-146620559D01*
X69372801Y-146484507D01*
X69372808Y-146484501D01*
X69530838Y-146326471D01*
X69530844Y-146326464D01*
X69666896Y-146149157D01*
X69666907Y-146149141D01*
X69778651Y-145955596D01*
X69778659Y-145955580D01*
X69864185Y-145749099D01*
X69922033Y-145533208D01*
X69933005Y-145449869D01*
X68462897Y-145449869D01*
X68510272Y-145402494D01*
X68553717Y-145327244D01*
X68576206Y-145243314D01*
X68576206Y-145156424D01*
X68553717Y-145072494D01*
X68510272Y-144997244D01*
X68462897Y-144949869D01*
X69933004Y-144949869D01*
X69922033Y-144866529D01*
X69864185Y-144650638D01*
X69778659Y-144444157D01*
X69778651Y-144444141D01*
X69666907Y-144250596D01*
X69666896Y-144250580D01*
X69530844Y-144073273D01*
X69530838Y-144073266D01*
X69432688Y-143975116D01*
X78110706Y-143975116D01*
X78110706Y-146424621D01*
X78122337Y-146483098D01*
X78122338Y-146483099D01*
X78166653Y-146549421D01*
X78232975Y-146593736D01*
X78232976Y-146593737D01*
X78291453Y-146605368D01*
X78291456Y-146605369D01*
X78291458Y-146605369D01*
X82350956Y-146605369D01*
X82350957Y-146605368D01*
X82365774Y-146602421D01*
X82409435Y-146593737D01*
X82409435Y-146593736D01*
X82409437Y-146593736D01*
X82475758Y-146549421D01*
X82520073Y-146483100D01*
X82520073Y-146483098D01*
X82520074Y-146483098D01*
X82531705Y-146424621D01*
X82531706Y-146424619D01*
X82531706Y-145089248D01*
X101230706Y-145089248D01*
X101230706Y-145310489D01*
X101265313Y-145528991D01*
X101333679Y-145739398D01*
X101434115Y-145936512D01*
X101564151Y-146115491D01*
X101720584Y-146271924D01*
X101899563Y-146401960D01*
X101944030Y-146424617D01*
X102096676Y-146502395D01*
X102096678Y-146502395D01*
X102096681Y-146502397D01*
X102209463Y-146539042D01*
X102307083Y-146570761D01*
X102525586Y-146605369D01*
X102525591Y-146605369D01*
X104356826Y-146605369D01*
X104575328Y-146570761D01*
X104785731Y-146502397D01*
X104982849Y-146401960D01*
X105161828Y-146271924D01*
X105318261Y-146115491D01*
X105448297Y-145936512D01*
X105548734Y-145739394D01*
X105617098Y-145528991D01*
X105634581Y-145418609D01*
X105640838Y-145379108D01*
X105640838Y-145379106D01*
X105651706Y-145310490D01*
X105651706Y-145089248D01*
X105617098Y-144870746D01*
X105548732Y-144660339D01*
X105448296Y-144463225D01*
X105318261Y-144284247D01*
X105161828Y-144127814D01*
X104982849Y-143997778D01*
X104883240Y-143947024D01*
X113811206Y-143947024D01*
X113811206Y-144949869D01*
X115299515Y-144949869D01*
X115252140Y-144997244D01*
X115208695Y-145072494D01*
X115186206Y-145156424D01*
X115186206Y-145243314D01*
X115208695Y-145327244D01*
X115252140Y-145402494D01*
X115299515Y-145449869D01*
X113811206Y-145449869D01*
X113811206Y-146452713D01*
X113817607Y-146512241D01*
X113817609Y-146512248D01*
X113867851Y-146646955D01*
X113867855Y-146646962D01*
X113954015Y-146762056D01*
X113954018Y-146762059D01*
X114069112Y-146848219D01*
X114069119Y-146848223D01*
X114203826Y-146898465D01*
X114203833Y-146898467D01*
X114263361Y-146904868D01*
X114263378Y-146904869D01*
X116071206Y-146904869D01*
X116071206Y-145529869D01*
X116571206Y-145529869D01*
X116571206Y-146904869D01*
X118379034Y-146904869D01*
X118379050Y-146904868D01*
X118438578Y-146898467D01*
X118438585Y-146898465D01*
X118573292Y-146848223D01*
X118573299Y-146848219D01*
X118688393Y-146762059D01*
X118688396Y-146762056D01*
X118774556Y-146646962D01*
X118774560Y-146646955D01*
X118824802Y-146512248D01*
X118824804Y-146512241D01*
X118831205Y-146452713D01*
X118831206Y-146452696D01*
X118831206Y-145449869D01*
X117342897Y-145449869D01*
X117390272Y-145402494D01*
X117433717Y-145327244D01*
X117456206Y-145243314D01*
X117456206Y-145156424D01*
X117433717Y-145072494D01*
X117390272Y-144997244D01*
X117342897Y-144949869D01*
X118831206Y-144949869D01*
X118831206Y-143947041D01*
X118831205Y-143947024D01*
X118824804Y-143887496D01*
X118824802Y-143887489D01*
X118774560Y-143752782D01*
X118774556Y-143752775D01*
X118688396Y-143637681D01*
X118688393Y-143637678D01*
X118573299Y-143551518D01*
X118573292Y-143551514D01*
X118438585Y-143501272D01*
X118438578Y-143501270D01*
X118379050Y-143494869D01*
X116571206Y-143494869D01*
X116571206Y-144869869D01*
X116071206Y-144869869D01*
X116071206Y-143494869D01*
X114263361Y-143494869D01*
X114203833Y-143501270D01*
X114203826Y-143501272D01*
X114069119Y-143551514D01*
X114069112Y-143551518D01*
X113954018Y-143637678D01*
X113954015Y-143637681D01*
X113867855Y-143752775D01*
X113867851Y-143752782D01*
X113817609Y-143887489D01*
X113817607Y-143887496D01*
X113811206Y-143947024D01*
X104883240Y-143947024D01*
X104785735Y-143897342D01*
X104575328Y-143828976D01*
X104356826Y-143794369D01*
X104356821Y-143794369D01*
X102525591Y-143794369D01*
X102525586Y-143794369D01*
X102307083Y-143828976D01*
X102096676Y-143897342D01*
X101899562Y-143997778D01*
X101797448Y-144071968D01*
X101720584Y-144127814D01*
X101720582Y-144127816D01*
X101720581Y-144127816D01*
X101564153Y-144284244D01*
X101564153Y-144284245D01*
X101564151Y-144284247D01*
X101508305Y-144361111D01*
X101434115Y-144463225D01*
X101333679Y-144660339D01*
X101265313Y-144870746D01*
X101230706Y-145089248D01*
X82531706Y-145089248D01*
X82531706Y-143975118D01*
X82531705Y-143975116D01*
X82520074Y-143916639D01*
X82520073Y-143916638D01*
X82475758Y-143850316D01*
X82409436Y-143806001D01*
X82409435Y-143806000D01*
X82350958Y-143794369D01*
X82350954Y-143794369D01*
X78291458Y-143794369D01*
X78291453Y-143794369D01*
X78232976Y-143806000D01*
X78232975Y-143806001D01*
X78166653Y-143850316D01*
X78122338Y-143916638D01*
X78122337Y-143916639D01*
X78110706Y-143975116D01*
X69432688Y-143975116D01*
X69372808Y-143915236D01*
X69372801Y-143915230D01*
X69195494Y-143779178D01*
X69195478Y-143779167D01*
X69001933Y-143667423D01*
X69001917Y-143667415D01*
X68795436Y-143581889D01*
X68579545Y-143524041D01*
X68357967Y-143494870D01*
X68357951Y-143494869D01*
X67691206Y-143494869D01*
X67691206Y-144869869D01*
X67191206Y-144869869D01*
X67191206Y-143494869D01*
X66524461Y-143494869D01*
X66524444Y-143494870D01*
X66302866Y-143524041D01*
X66086975Y-143581889D01*
X65880494Y-143667415D01*
X65880478Y-143667423D01*
X65686933Y-143779167D01*
X65686917Y-143779178D01*
X65509610Y-143915230D01*
X65509603Y-143915236D01*
X65351573Y-144073266D01*
X65351567Y-144073273D01*
X65215515Y-144250580D01*
X65215504Y-144250596D01*
X65103760Y-144444141D01*
X65103752Y-144444157D01*
X65018226Y-144650638D01*
X64960378Y-144866529D01*
X64949407Y-144949869D01*
X30861706Y-144949869D01*
X30861706Y-139105706D01*
X32685706Y-139105706D01*
X32685706Y-139334031D01*
X32721421Y-139559529D01*
X32791976Y-139776672D01*
X32864064Y-139918151D01*
X32895627Y-139980097D01*
X33029827Y-140164806D01*
X33191269Y-140326248D01*
X33375978Y-140460448D01*
X33427846Y-140486876D01*
X33579402Y-140564098D01*
X33579404Y-140564098D01*
X33579407Y-140564100D01*
X33608713Y-140573622D01*
X33796545Y-140634653D01*
X34022044Y-140670369D01*
X34022049Y-140670369D01*
X34250368Y-140670369D01*
X34475866Y-140634653D01*
X34693005Y-140564100D01*
X34896434Y-140460448D01*
X35081143Y-140326248D01*
X35242585Y-140164806D01*
X35376785Y-139980097D01*
X35480437Y-139776668D01*
X35550990Y-139559529D01*
X35586706Y-139334031D01*
X35586706Y-139105706D01*
X45385706Y-139105706D01*
X45385706Y-139334031D01*
X45421421Y-139559529D01*
X45491976Y-139776672D01*
X45564064Y-139918151D01*
X45595627Y-139980097D01*
X45729827Y-140164806D01*
X45891269Y-140326248D01*
X46075978Y-140460448D01*
X46127846Y-140486876D01*
X46279402Y-140564098D01*
X46279404Y-140564098D01*
X46279407Y-140564100D01*
X46308713Y-140573622D01*
X46496545Y-140634653D01*
X46722044Y-140670369D01*
X46722049Y-140670369D01*
X46950368Y-140670369D01*
X47175866Y-140634653D01*
X47393005Y-140564100D01*
X47596434Y-140460448D01*
X47781143Y-140326248D01*
X47942585Y-140164806D01*
X48076785Y-139980097D01*
X48180437Y-139776668D01*
X48250990Y-139559529D01*
X48286706Y-139334031D01*
X48286706Y-139105706D01*
X49195706Y-139105706D01*
X49195706Y-139334031D01*
X49231421Y-139559529D01*
X49301976Y-139776672D01*
X49374064Y-139918151D01*
X49405627Y-139980097D01*
X49539827Y-140164806D01*
X49701269Y-140326248D01*
X49885978Y-140460448D01*
X49937846Y-140486876D01*
X50089402Y-140564098D01*
X50089404Y-140564098D01*
X50089407Y-140564100D01*
X50118713Y-140573622D01*
X50306545Y-140634653D01*
X50532044Y-140670369D01*
X50532049Y-140670369D01*
X50760368Y-140670369D01*
X50985866Y-140634653D01*
X51203005Y-140564100D01*
X51406434Y-140460448D01*
X51591143Y-140326248D01*
X51752585Y-140164806D01*
X51886785Y-139980097D01*
X51990437Y-139776668D01*
X52060990Y-139559529D01*
X52096706Y-139334031D01*
X52096706Y-139105706D01*
X53005706Y-139105706D01*
X53005706Y-139334031D01*
X53041421Y-139559529D01*
X53111976Y-139776672D01*
X53184064Y-139918151D01*
X53215627Y-139980097D01*
X53349827Y-140164806D01*
X53511269Y-140326248D01*
X53695978Y-140460448D01*
X53747846Y-140486876D01*
X53899402Y-140564098D01*
X53899404Y-140564098D01*
X53899407Y-140564100D01*
X53928713Y-140573622D01*
X54116545Y-140634653D01*
X54342044Y-140670369D01*
X54342049Y-140670369D01*
X54570368Y-140670369D01*
X54795866Y-140634653D01*
X54983699Y-140573622D01*
X130486206Y-140573622D01*
X130486206Y-140786115D01*
X130519448Y-140995996D01*
X130519448Y-140995999D01*
X130585110Y-141198086D01*
X130681581Y-141387419D01*
X130720934Y-141441585D01*
X131353243Y-140809277D01*
X131370281Y-140872862D01*
X131436107Y-140986876D01*
X131529199Y-141079968D01*
X131643213Y-141145794D01*
X131706796Y-141162831D01*
X131074488Y-141795138D01*
X131074488Y-141795139D01*
X131128655Y-141834493D01*
X131317988Y-141930964D01*
X131494179Y-141988212D01*
X131551854Y-142027649D01*
X131579053Y-142092008D01*
X131567138Y-142160854D01*
X131519894Y-142212330D01*
X131503314Y-142220704D01*
X131338609Y-142288926D01*
X131166548Y-142403893D01*
X131020230Y-142550211D01*
X130905264Y-142722272D01*
X130826076Y-142913448D01*
X130826074Y-142913456D01*
X130785706Y-143116399D01*
X130785706Y-143323338D01*
X130826074Y-143526281D01*
X130826076Y-143526289D01*
X130905264Y-143717465D01*
X131020230Y-143889526D01*
X131166548Y-144035844D01*
X131166551Y-144035846D01*
X131338608Y-144150810D01*
X131529786Y-144229999D01*
X131732736Y-144270368D01*
X131732740Y-144270369D01*
X131732741Y-144270369D01*
X131939672Y-144270369D01*
X131939673Y-144270368D01*
X132142626Y-144229999D01*
X132333804Y-144150810D01*
X132505861Y-144035846D01*
X132652183Y-143889524D01*
X132767147Y-143717467D01*
X132846336Y-143526289D01*
X132886706Y-143323334D01*
X132886706Y-143116404D01*
X132846336Y-142913449D01*
X132767147Y-142722271D01*
X132652183Y-142550214D01*
X132652181Y-142550211D01*
X132505863Y-142403893D01*
X132419832Y-142346410D01*
X132333804Y-142288928D01*
X132333799Y-142288926D01*
X132272097Y-142263368D01*
X132169096Y-142220703D01*
X132114694Y-142176863D01*
X132092629Y-142110569D01*
X132109908Y-142042870D01*
X132161045Y-141995259D01*
X132178232Y-141988212D01*
X132354423Y-141930964D01*
X132543760Y-141834491D01*
X132597922Y-141795139D01*
X132597923Y-141795139D01*
X131965614Y-141162831D01*
X132029199Y-141145794D01*
X132143213Y-141079968D01*
X132236305Y-140986876D01*
X132302131Y-140872862D01*
X132319168Y-140809278D01*
X132951476Y-141441586D01*
X132951476Y-141441585D01*
X132990828Y-141387423D01*
X133087301Y-141198086D01*
X133152963Y-140995999D01*
X133152963Y-140995996D01*
X133186206Y-140786115D01*
X133186206Y-140573622D01*
X133152963Y-140363741D01*
X133152963Y-140363738D01*
X133087301Y-140161651D01*
X132990830Y-139972318D01*
X132951476Y-139918151D01*
X132951475Y-139918151D01*
X132319168Y-140550459D01*
X132302131Y-140486876D01*
X132236305Y-140372862D01*
X132143213Y-140279770D01*
X132029199Y-140213944D01*
X131965615Y-140196906D01*
X132597922Y-139564597D01*
X132543756Y-139525244D01*
X132350085Y-139426563D01*
X132350602Y-139425547D01*
X132300398Y-139385090D01*
X132278333Y-139318796D01*
X132295612Y-139251097D01*
X132346748Y-139203486D01*
X132402254Y-139190369D01*
X132705956Y-139190369D01*
X132705957Y-139190368D01*
X132720774Y-139187421D01*
X132764435Y-139178737D01*
X132764435Y-139178736D01*
X132764437Y-139178736D01*
X132830758Y-139134421D01*
X132875073Y-139068100D01*
X132875073Y-139068098D01*
X132875074Y-139068098D01*
X132886705Y-139009621D01*
X132886706Y-139009619D01*
X132886706Y-137270118D01*
X132886705Y-137270116D01*
X132875074Y-137211639D01*
X132875073Y-137211638D01*
X132830758Y-137145316D01*
X132764436Y-137101001D01*
X132764435Y-137101000D01*
X132705958Y-137089369D01*
X132705954Y-137089369D01*
X130966458Y-137089369D01*
X130966453Y-137089369D01*
X130907976Y-137101000D01*
X130907975Y-137101001D01*
X130841653Y-137145316D01*
X130797338Y-137211638D01*
X130797337Y-137211639D01*
X130785706Y-137270116D01*
X130785706Y-139009621D01*
X130797337Y-139068098D01*
X130797338Y-139068099D01*
X130841653Y-139134421D01*
X130907975Y-139178736D01*
X130907976Y-139178737D01*
X130966453Y-139190368D01*
X130966456Y-139190369D01*
X131270158Y-139190369D01*
X131337197Y-139210054D01*
X131382952Y-139262858D01*
X131392896Y-139332016D01*
X131363871Y-139395572D01*
X131321941Y-139425807D01*
X131322327Y-139426563D01*
X131128645Y-139525249D01*
X131074488Y-139564596D01*
X131074488Y-139564597D01*
X131706797Y-140196906D01*
X131643213Y-140213944D01*
X131529199Y-140279770D01*
X131436107Y-140372862D01*
X131370281Y-140486876D01*
X131353243Y-140550460D01*
X130720934Y-139918151D01*
X130720933Y-139918151D01*
X130681586Y-139972308D01*
X130585110Y-140161651D01*
X130519448Y-140363738D01*
X130519448Y-140363741D01*
X130486206Y-140573622D01*
X54983699Y-140573622D01*
X55013005Y-140564100D01*
X55216434Y-140460448D01*
X55401143Y-140326248D01*
X55562585Y-140164806D01*
X55696785Y-139980097D01*
X55800437Y-139776668D01*
X55870990Y-139559529D01*
X55906706Y-139334031D01*
X55906706Y-139105706D01*
X55870990Y-138880208D01*
X55800435Y-138663065D01*
X55696784Y-138459640D01*
X55562585Y-138274932D01*
X55401143Y-138113490D01*
X55216434Y-137979290D01*
X55013009Y-137875639D01*
X54795866Y-137805084D01*
X54570368Y-137769369D01*
X54570363Y-137769369D01*
X54342049Y-137769369D01*
X54342044Y-137769369D01*
X54116545Y-137805084D01*
X53899402Y-137875639D01*
X53695977Y-137979290D01*
X53511267Y-138113491D01*
X53349828Y-138274930D01*
X53215627Y-138459640D01*
X53111976Y-138663065D01*
X53041421Y-138880208D01*
X53005706Y-139105706D01*
X52096706Y-139105706D01*
X52060990Y-138880208D01*
X51990435Y-138663065D01*
X51886784Y-138459640D01*
X51752585Y-138274932D01*
X51591143Y-138113490D01*
X51406434Y-137979290D01*
X51203009Y-137875639D01*
X50985866Y-137805084D01*
X50760368Y-137769369D01*
X50760363Y-137769369D01*
X50532049Y-137769369D01*
X50532044Y-137769369D01*
X50306545Y-137805084D01*
X50089402Y-137875639D01*
X49885977Y-137979290D01*
X49701267Y-138113491D01*
X49539828Y-138274930D01*
X49405627Y-138459640D01*
X49301976Y-138663065D01*
X49231421Y-138880208D01*
X49195706Y-139105706D01*
X48286706Y-139105706D01*
X48250990Y-138880208D01*
X48180435Y-138663065D01*
X48076784Y-138459640D01*
X47942585Y-138274932D01*
X47781143Y-138113490D01*
X47596434Y-137979290D01*
X47393009Y-137875639D01*
X47175866Y-137805084D01*
X46950368Y-137769369D01*
X46950363Y-137769369D01*
X46722049Y-137769369D01*
X46722044Y-137769369D01*
X46496545Y-137805084D01*
X46279402Y-137875639D01*
X46075977Y-137979290D01*
X45891267Y-138113491D01*
X45729828Y-138274930D01*
X45595627Y-138459640D01*
X45491976Y-138663065D01*
X45421421Y-138880208D01*
X45385706Y-139105706D01*
X35586706Y-139105706D01*
X35550990Y-138880208D01*
X35480435Y-138663065D01*
X35376784Y-138459640D01*
X35242585Y-138274932D01*
X35081143Y-138113490D01*
X34896434Y-137979290D01*
X34693009Y-137875639D01*
X34475866Y-137805084D01*
X34250368Y-137769369D01*
X34250363Y-137769369D01*
X34022049Y-137769369D01*
X34022044Y-137769369D01*
X33796545Y-137805084D01*
X33579402Y-137875639D01*
X33375977Y-137979290D01*
X33191267Y-138113491D01*
X33029828Y-138274930D01*
X32895627Y-138459640D01*
X32791976Y-138663065D01*
X32721421Y-138880208D01*
X32685706Y-139105706D01*
X30861706Y-139105706D01*
X30861706Y-137363977D01*
X81785706Y-137363977D01*
X81785706Y-137495760D01*
X81819814Y-137623056D01*
X81852760Y-137680119D01*
X81885706Y-137737183D01*
X81978892Y-137830369D01*
X82093020Y-137896261D01*
X82220314Y-137930369D01*
X82220316Y-137930369D01*
X82352096Y-137930369D01*
X82352098Y-137930369D01*
X82479392Y-137896261D01*
X82593520Y-137830369D01*
X82686706Y-137737183D01*
X82752598Y-137623055D01*
X82786706Y-137495761D01*
X82786706Y-137363977D01*
X82752598Y-137236683D01*
X82686706Y-137122555D01*
X82593520Y-137029369D01*
X82536456Y-136996423D01*
X82479393Y-136963477D01*
X82415745Y-136946423D01*
X82352098Y-136929369D01*
X82220314Y-136929369D01*
X82093018Y-136963477D01*
X81978892Y-137029369D01*
X81978889Y-137029371D01*
X81885708Y-137122552D01*
X81885706Y-137122555D01*
X81819814Y-137236681D01*
X81785706Y-137363977D01*
X30861706Y-137363977D01*
X30861706Y-134025706D01*
X32685706Y-134025706D01*
X32685706Y-134254031D01*
X32721421Y-134479529D01*
X32791976Y-134696672D01*
X32895627Y-134900097D01*
X33029827Y-135084806D01*
X33191269Y-135246248D01*
X33375978Y-135380448D01*
X33472090Y-135429419D01*
X33579402Y-135484098D01*
X33579404Y-135484098D01*
X33579407Y-135484100D01*
X33695798Y-135521918D01*
X33796545Y-135554653D01*
X34022044Y-135590369D01*
X34022049Y-135590369D01*
X34250368Y-135590369D01*
X34475866Y-135554653D01*
X34693005Y-135484100D01*
X34896434Y-135380448D01*
X35081143Y-135246248D01*
X35242585Y-135084806D01*
X35376785Y-134900097D01*
X35480437Y-134696668D01*
X35550990Y-134479529D01*
X35586706Y-134254031D01*
X35586706Y-134025706D01*
X45385706Y-134025706D01*
X45385706Y-134254031D01*
X45421421Y-134479529D01*
X45491976Y-134696672D01*
X45595627Y-134900097D01*
X45729827Y-135084806D01*
X45891269Y-135246248D01*
X46075978Y-135380448D01*
X46172090Y-135429419D01*
X46279402Y-135484098D01*
X46279404Y-135484098D01*
X46279407Y-135484100D01*
X46395798Y-135521918D01*
X46496545Y-135554653D01*
X46722044Y-135590369D01*
X46722049Y-135590369D01*
X46950368Y-135590369D01*
X47175866Y-135554653D01*
X47393005Y-135484100D01*
X47596434Y-135380448D01*
X47781143Y-135246248D01*
X47942585Y-135084806D01*
X48076785Y-134900097D01*
X48180437Y-134696668D01*
X48250990Y-134479529D01*
X48286706Y-134254031D01*
X48286706Y-134025706D01*
X49195706Y-134025706D01*
X49195706Y-134254031D01*
X49231421Y-134479529D01*
X49301976Y-134696672D01*
X49405627Y-134900097D01*
X49539827Y-135084806D01*
X49701269Y-135246248D01*
X49885978Y-135380448D01*
X49982090Y-135429419D01*
X50089402Y-135484098D01*
X50089404Y-135484098D01*
X50089407Y-135484100D01*
X50205798Y-135521918D01*
X50306545Y-135554653D01*
X50532044Y-135590369D01*
X50532049Y-135590369D01*
X50760368Y-135590369D01*
X50985866Y-135554653D01*
X51203005Y-135484100D01*
X51406434Y-135380448D01*
X51591143Y-135246248D01*
X51752585Y-135084806D01*
X51886785Y-134900097D01*
X51990437Y-134696668D01*
X52060990Y-134479529D01*
X52096706Y-134254031D01*
X52096706Y-134025706D01*
X53005706Y-134025706D01*
X53005706Y-134254031D01*
X53041421Y-134479529D01*
X53111976Y-134696672D01*
X53215627Y-134900097D01*
X53349827Y-135084806D01*
X53511269Y-135246248D01*
X53695978Y-135380448D01*
X53792090Y-135429419D01*
X53899402Y-135484098D01*
X53899404Y-135484098D01*
X53899407Y-135484100D01*
X54015798Y-135521918D01*
X54116545Y-135554653D01*
X54342044Y-135590369D01*
X54342049Y-135590369D01*
X54570368Y-135590369D01*
X54795866Y-135554653D01*
X55013005Y-135484100D01*
X55216434Y-135380448D01*
X55401143Y-135246248D01*
X55562585Y-135084806D01*
X55696785Y-134900097D01*
X55800437Y-134696668D01*
X55870990Y-134479529D01*
X55906706Y-134254031D01*
X55906706Y-134025706D01*
X55870990Y-133800208D01*
X55800435Y-133583065D01*
X55696784Y-133379640D01*
X55592894Y-133236649D01*
X55562585Y-133194932D01*
X55401143Y-133033490D01*
X55216434Y-132899290D01*
X55159638Y-132870351D01*
X55021648Y-132800041D01*
X61305706Y-132800041D01*
X61305706Y-133019696D01*
X61340067Y-133236645D01*
X61407947Y-133445557D01*
X61507670Y-133641273D01*
X61636772Y-133818970D01*
X61792104Y-133974302D01*
X61958387Y-134095111D01*
X61969805Y-134103407D01*
X62165520Y-134203129D01*
X62374426Y-134271007D01*
X62591378Y-134305369D01*
X62591379Y-134305369D01*
X62811033Y-134305369D01*
X62811034Y-134305369D01*
X63027986Y-134271007D01*
X63236892Y-134203129D01*
X63432607Y-134103407D01*
X63539554Y-134025706D01*
X63610307Y-133974302D01*
X63610309Y-133974299D01*
X63610313Y-133974297D01*
X63765634Y-133818976D01*
X63765636Y-133818972D01*
X63765639Y-133818970D01*
X63822255Y-133741043D01*
X63894744Y-133641270D01*
X63994466Y-133445555D01*
X64062344Y-133236649D01*
X64096706Y-133019697D01*
X64096706Y-132800041D01*
X64062344Y-132583089D01*
X64026850Y-132473851D01*
X67410706Y-132473851D01*
X67410706Y-132585887D01*
X67439703Y-132694106D01*
X67495721Y-132791132D01*
X67574943Y-132870354D01*
X67671969Y-132926372D01*
X67780188Y-132955369D01*
X67780190Y-132955369D01*
X67892222Y-132955369D01*
X67892224Y-132955369D01*
X68000443Y-132926372D01*
X68097469Y-132870354D01*
X68167782Y-132800041D01*
X97305706Y-132800041D01*
X97305706Y-133019696D01*
X97340067Y-133236645D01*
X97407947Y-133445557D01*
X97507670Y-133641273D01*
X97636772Y-133818970D01*
X97792104Y-133974302D01*
X97958387Y-134095111D01*
X97969805Y-134103407D01*
X98165520Y-134203129D01*
X98374426Y-134271007D01*
X98591378Y-134305369D01*
X98591379Y-134305369D01*
X98811033Y-134305369D01*
X98811034Y-134305369D01*
X99027986Y-134271007D01*
X99236892Y-134203129D01*
X99432607Y-134103407D01*
X99539554Y-134025706D01*
X99610307Y-133974302D01*
X99610309Y-133974299D01*
X99610313Y-133974297D01*
X99765634Y-133818976D01*
X99765636Y-133818972D01*
X99765639Y-133818970D01*
X99822255Y-133741043D01*
X99894744Y-133641270D01*
X99994466Y-133445555D01*
X100062344Y-133236649D01*
X100096706Y-133019697D01*
X100096706Y-132800041D01*
X100062344Y-132583089D01*
X99994466Y-132374183D01*
X99894744Y-132178468D01*
X99886105Y-132166578D01*
X99765639Y-132000767D01*
X99610307Y-131845435D01*
X99432610Y-131716333D01*
X99432609Y-131716332D01*
X99432607Y-131716331D01*
X99236892Y-131616609D01*
X99027986Y-131548731D01*
X99027984Y-131548730D01*
X99027983Y-131548730D01*
X98861326Y-131522334D01*
X98811034Y-131514369D01*
X98591378Y-131514369D01*
X98541085Y-131522334D01*
X98374429Y-131548730D01*
X98165517Y-131616610D01*
X97969801Y-131716333D01*
X97792104Y-131845435D01*
X97636772Y-132000767D01*
X97507670Y-132178464D01*
X97407947Y-132374180D01*
X97340067Y-132583092D01*
X97305706Y-132800041D01*
X68167782Y-132800041D01*
X68176691Y-132791132D01*
X68232709Y-132694106D01*
X68261706Y-132585887D01*
X68261706Y-132473851D01*
X68232709Y-132365632D01*
X68176691Y-132268606D01*
X68097469Y-132189384D01*
X68000443Y-132133366D01*
X67964932Y-132123851D01*
X79260706Y-132123851D01*
X79260706Y-132235887D01*
X79289703Y-132344106D01*
X79345721Y-132441132D01*
X79424943Y-132520354D01*
X79521969Y-132576372D01*
X79630188Y-132605369D01*
X79630190Y-132605369D01*
X79742222Y-132605369D01*
X79742224Y-132605369D01*
X79850443Y-132576372D01*
X79947469Y-132520354D01*
X80026691Y-132441132D01*
X80082709Y-132344106D01*
X80111706Y-132235887D01*
X80111706Y-132123851D01*
X80082709Y-132015632D01*
X80026691Y-131918606D01*
X79947469Y-131839384D01*
X79850443Y-131783366D01*
X79742224Y-131754369D01*
X79630188Y-131754369D01*
X79521969Y-131783366D01*
X79521966Y-131783367D01*
X79424946Y-131839382D01*
X79424940Y-131839386D01*
X79345723Y-131918603D01*
X79345719Y-131918609D01*
X79289704Y-132015629D01*
X79289703Y-132015632D01*
X79260706Y-132123851D01*
X67964932Y-132123851D01*
X67892224Y-132104369D01*
X67780188Y-132104369D01*
X67671969Y-132133366D01*
X67671966Y-132133367D01*
X67574946Y-132189382D01*
X67574940Y-132189386D01*
X67495723Y-132268603D01*
X67495719Y-132268609D01*
X67439704Y-132365629D01*
X67439703Y-132365632D01*
X67410706Y-132473851D01*
X64026850Y-132473851D01*
X63994466Y-132374183D01*
X63994464Y-132374180D01*
X63994464Y-132374178D01*
X63940673Y-132268609D01*
X63894744Y-132178468D01*
X63886105Y-132166578D01*
X63765639Y-132000767D01*
X63610307Y-131845435D01*
X63432610Y-131716333D01*
X63432609Y-131716332D01*
X63432607Y-131716331D01*
X63236892Y-131616609D01*
X63027986Y-131548731D01*
X63027984Y-131548730D01*
X63027983Y-131548730D01*
X62861326Y-131522334D01*
X62811034Y-131514369D01*
X62591378Y-131514369D01*
X62541085Y-131522334D01*
X62374429Y-131548730D01*
X62165517Y-131616610D01*
X61969801Y-131716333D01*
X61792104Y-131845435D01*
X61636772Y-132000767D01*
X61507670Y-132178464D01*
X61407947Y-132374180D01*
X61340067Y-132583092D01*
X61305706Y-132800041D01*
X55021648Y-132800041D01*
X55013009Y-132795639D01*
X54795866Y-132725084D01*
X54570368Y-132689369D01*
X54570363Y-132689369D01*
X54342049Y-132689369D01*
X54342044Y-132689369D01*
X54116545Y-132725084D01*
X53899402Y-132795639D01*
X53695977Y-132899290D01*
X53511267Y-133033491D01*
X53349828Y-133194930D01*
X53215627Y-133379640D01*
X53111976Y-133583065D01*
X53041421Y-133800208D01*
X53005706Y-134025706D01*
X52096706Y-134025706D01*
X52060990Y-133800208D01*
X51990435Y-133583065D01*
X51886784Y-133379640D01*
X51782894Y-133236649D01*
X51752585Y-133194932D01*
X51591143Y-133033490D01*
X51406434Y-132899290D01*
X51349638Y-132870351D01*
X51203009Y-132795639D01*
X50985866Y-132725084D01*
X50760368Y-132689369D01*
X50760363Y-132689369D01*
X50532049Y-132689369D01*
X50532044Y-132689369D01*
X50306545Y-132725084D01*
X50089402Y-132795639D01*
X49885977Y-132899290D01*
X49701267Y-133033491D01*
X49539828Y-133194930D01*
X49405627Y-133379640D01*
X49301976Y-133583065D01*
X49231421Y-133800208D01*
X49195706Y-134025706D01*
X48286706Y-134025706D01*
X48250990Y-133800208D01*
X48180435Y-133583065D01*
X48076784Y-133379640D01*
X47972894Y-133236649D01*
X47942585Y-133194932D01*
X47781143Y-133033490D01*
X47596434Y-132899290D01*
X47539638Y-132870351D01*
X47393009Y-132795639D01*
X47175866Y-132725084D01*
X46950368Y-132689369D01*
X46950363Y-132689369D01*
X46722049Y-132689369D01*
X46722044Y-132689369D01*
X46496545Y-132725084D01*
X46279402Y-132795639D01*
X46075977Y-132899290D01*
X45891267Y-133033491D01*
X45729828Y-133194930D01*
X45595627Y-133379640D01*
X45491976Y-133583065D01*
X45421421Y-133800208D01*
X45385706Y-134025706D01*
X35586706Y-134025706D01*
X35550990Y-133800208D01*
X35480435Y-133583065D01*
X35376784Y-133379640D01*
X35272894Y-133236649D01*
X35242585Y-133194932D01*
X35081143Y-133033490D01*
X34896434Y-132899290D01*
X34839638Y-132870351D01*
X34693009Y-132795639D01*
X34475866Y-132725084D01*
X34250368Y-132689369D01*
X34250363Y-132689369D01*
X34022049Y-132689369D01*
X34022044Y-132689369D01*
X33796545Y-132725084D01*
X33579402Y-132795639D01*
X33375977Y-132899290D01*
X33191267Y-133033491D01*
X33029828Y-133194930D01*
X32895627Y-133379640D01*
X32791976Y-133583065D01*
X32721421Y-133800208D01*
X32685706Y-134025706D01*
X30861706Y-134025706D01*
X30861706Y-130429869D01*
X138849703Y-130429869D01*
X141861244Y-130429869D01*
X141831206Y-130580885D01*
X141831206Y-130778853D01*
X141861244Y-130929869D01*
X138849704Y-130929869D01*
X138874702Y-131119753D01*
X138874705Y-131119766D01*
X138951041Y-131404659D01*
X138951044Y-131404669D01*
X139063910Y-131677150D01*
X139063915Y-131677161D01*
X139211380Y-131932576D01*
X139211391Y-131932592D01*
X139390935Y-132166578D01*
X139390941Y-132166585D01*
X139599489Y-132375133D01*
X139599496Y-132375139D01*
X139833482Y-132554683D01*
X139833498Y-132554694D01*
X140088913Y-132702159D01*
X140088924Y-132702164D01*
X140361405Y-132815030D01*
X140361415Y-132815033D01*
X140646308Y-132891369D01*
X140646321Y-132891372D01*
X140938722Y-132929867D01*
X140938740Y-132929869D01*
X142586206Y-132929869D01*
X142586206Y-131654830D01*
X142737222Y-131684869D01*
X142935190Y-131684869D01*
X143086206Y-131654830D01*
X143086206Y-132929869D01*
X144733672Y-132929869D01*
X144733689Y-132929867D01*
X145026090Y-132891372D01*
X145026103Y-132891369D01*
X145310996Y-132815033D01*
X145311006Y-132815030D01*
X145583487Y-132702164D01*
X145583498Y-132702159D01*
X145838913Y-132554694D01*
X145838929Y-132554683D01*
X146072915Y-132375139D01*
X146072922Y-132375133D01*
X146281470Y-132166585D01*
X146281476Y-132166578D01*
X146461020Y-131932592D01*
X146461031Y-131932576D01*
X146608496Y-131677161D01*
X146608501Y-131677150D01*
X146721367Y-131404669D01*
X146721370Y-131404659D01*
X146797706Y-131119766D01*
X146797709Y-131119753D01*
X146822708Y-130929869D01*
X143811168Y-130929869D01*
X143841206Y-130778853D01*
X143841206Y-130580885D01*
X143811168Y-130429869D01*
X146822708Y-130429869D01*
X146797709Y-130239984D01*
X146797706Y-130239971D01*
X146721370Y-129955078D01*
X146721367Y-129955068D01*
X146608501Y-129682587D01*
X146608496Y-129682576D01*
X146461031Y-129427161D01*
X146461020Y-129427145D01*
X146281476Y-129193159D01*
X146281470Y-129193152D01*
X146072922Y-128984604D01*
X146072915Y-128984598D01*
X145838929Y-128805054D01*
X145838913Y-128805043D01*
X145583498Y-128657578D01*
X145583487Y-128657573D01*
X145311006Y-128544707D01*
X145310996Y-128544704D01*
X145026103Y-128468368D01*
X145026090Y-128468365D01*
X144733689Y-128429870D01*
X144733672Y-128429869D01*
X143086206Y-128429869D01*
X143086206Y-129704907D01*
X142935190Y-129674869D01*
X142737222Y-129674869D01*
X142586206Y-129704907D01*
X142586206Y-128429869D01*
X140938740Y-128429869D01*
X140938722Y-128429870D01*
X140646321Y-128468365D01*
X140646308Y-128468368D01*
X140361415Y-128544704D01*
X140361405Y-128544707D01*
X140088924Y-128657573D01*
X140088913Y-128657578D01*
X139833498Y-128805043D01*
X139833482Y-128805054D01*
X139599496Y-128984598D01*
X139599489Y-128984604D01*
X139390941Y-129193152D01*
X139390935Y-129193159D01*
X139211391Y-129427145D01*
X139211380Y-129427161D01*
X139063915Y-129682576D01*
X139063910Y-129682587D01*
X138951044Y-129955068D01*
X138951041Y-129955078D01*
X138874705Y-130239971D01*
X138874702Y-130239984D01*
X138849703Y-130429869D01*
X30861706Y-130429869D01*
X30861706Y-129673851D01*
X78260706Y-129673851D01*
X78260706Y-129785887D01*
X78289703Y-129894106D01*
X78345721Y-129991132D01*
X78424943Y-130070354D01*
X78521969Y-130126372D01*
X78630188Y-130155369D01*
X78630190Y-130155369D01*
X78742222Y-130155369D01*
X78742224Y-130155369D01*
X78850443Y-130126372D01*
X78947469Y-130070354D01*
X79026691Y-129991132D01*
X79082709Y-129894106D01*
X79111706Y-129785887D01*
X79111706Y-129673851D01*
X79084911Y-129573851D01*
X111385706Y-129573851D01*
X111385706Y-129685887D01*
X111414703Y-129794106D01*
X111470721Y-129891132D01*
X111549943Y-129970354D01*
X111646969Y-130026372D01*
X111755188Y-130055369D01*
X111755190Y-130055369D01*
X111867222Y-130055369D01*
X111867224Y-130055369D01*
X111975443Y-130026372D01*
X112072469Y-129970354D01*
X112151691Y-129891132D01*
X112207709Y-129794106D01*
X112236706Y-129685887D01*
X112236706Y-129573851D01*
X112207709Y-129465632D01*
X112151691Y-129368606D01*
X112072469Y-129289384D01*
X111975443Y-129233366D01*
X111867224Y-129204369D01*
X111755188Y-129204369D01*
X111646969Y-129233366D01*
X111646966Y-129233367D01*
X111549946Y-129289382D01*
X111549940Y-129289386D01*
X111470723Y-129368603D01*
X111470719Y-129368609D01*
X111414704Y-129465629D01*
X111414703Y-129465632D01*
X111385706Y-129573851D01*
X79084911Y-129573851D01*
X79082709Y-129565632D01*
X79026691Y-129468606D01*
X78947469Y-129389384D01*
X78882785Y-129352038D01*
X78850445Y-129333367D01*
X78850444Y-129333366D01*
X78850443Y-129333366D01*
X78742224Y-129304369D01*
X78630188Y-129304369D01*
X78521969Y-129333366D01*
X78521966Y-129333367D01*
X78424946Y-129389382D01*
X78424940Y-129389386D01*
X78345723Y-129468603D01*
X78345719Y-129468609D01*
X78289704Y-129565629D01*
X78289703Y-129565632D01*
X78260706Y-129673851D01*
X30861706Y-129673851D01*
X30861706Y-128338977D01*
X81410706Y-128338977D01*
X81410706Y-128470761D01*
X81421457Y-128510885D01*
X81444814Y-128598056D01*
X81456969Y-128619108D01*
X81510706Y-128712183D01*
X81603892Y-128805369D01*
X81718020Y-128871261D01*
X81845314Y-128905369D01*
X81845316Y-128905369D01*
X81977096Y-128905369D01*
X81977098Y-128905369D01*
X82104392Y-128871261D01*
X82218520Y-128805369D01*
X82311706Y-128712183D01*
X82377598Y-128598055D01*
X82411706Y-128470761D01*
X82411706Y-128398851D01*
X93835706Y-128398851D01*
X93835706Y-128510887D01*
X93864703Y-128619106D01*
X93920721Y-128716132D01*
X93999943Y-128795354D01*
X94096969Y-128851372D01*
X94205188Y-128880369D01*
X94205190Y-128880369D01*
X94317222Y-128880369D01*
X94317224Y-128880369D01*
X94425443Y-128851372D01*
X94522469Y-128795354D01*
X94601691Y-128716132D01*
X94657709Y-128619106D01*
X94686706Y-128510887D01*
X94686706Y-128398851D01*
X94657709Y-128290632D01*
X94601691Y-128193606D01*
X94522469Y-128114384D01*
X94425443Y-128058366D01*
X94317224Y-128029369D01*
X94205188Y-128029369D01*
X94096969Y-128058366D01*
X94096966Y-128058367D01*
X93999946Y-128114382D01*
X93999940Y-128114386D01*
X93920723Y-128193603D01*
X93920719Y-128193609D01*
X93864704Y-128290629D01*
X93864703Y-128290632D01*
X93835706Y-128398851D01*
X82411706Y-128398851D01*
X82411706Y-128338977D01*
X82377598Y-128211683D01*
X82311706Y-128097555D01*
X82218520Y-128004369D01*
X82155709Y-127968105D01*
X82104393Y-127938477D01*
X82040745Y-127921423D01*
X81977098Y-127904369D01*
X81845314Y-127904369D01*
X81718018Y-127938477D01*
X81603892Y-128004369D01*
X81603889Y-128004371D01*
X81510708Y-128097552D01*
X81510706Y-128097555D01*
X81444814Y-128211681D01*
X81423660Y-128290632D01*
X81410706Y-128338977D01*
X30861706Y-128338977D01*
X30861706Y-127889869D01*
X136029597Y-127889869D01*
X137386702Y-127889869D01*
X137341532Y-127968105D01*
X137311206Y-128081284D01*
X137311206Y-128198454D01*
X137341532Y-128311633D01*
X137386702Y-128389869D01*
X136029597Y-128389869D01*
X136038215Y-128444282D01*
X136101450Y-128638898D01*
X136194346Y-128821218D01*
X136314623Y-128986763D01*
X136314623Y-128986764D01*
X136459310Y-129131451D01*
X136624856Y-129251728D01*
X136807174Y-129344624D01*
X137001788Y-129407859D01*
X137203889Y-129439869D01*
X137506206Y-129439869D01*
X137506206Y-128509373D01*
X137584442Y-128554543D01*
X137697621Y-128584869D01*
X137814791Y-128584869D01*
X137927970Y-128554543D01*
X138006206Y-128509373D01*
X138006206Y-129439869D01*
X138308523Y-129439869D01*
X138510623Y-129407859D01*
X138705237Y-129344624D01*
X138887555Y-129251728D01*
X139053100Y-129131451D01*
X139053101Y-129131451D01*
X139197788Y-128986764D01*
X139197788Y-128986763D01*
X139318065Y-128821218D01*
X139410961Y-128638898D01*
X139474196Y-128444282D01*
X139482815Y-128389869D01*
X138125710Y-128389869D01*
X138170880Y-128311633D01*
X138201206Y-128198454D01*
X138201206Y-128081284D01*
X138170880Y-127968105D01*
X138125710Y-127889869D01*
X139482815Y-127889869D01*
X139474196Y-127835455D01*
X139410961Y-127640839D01*
X139318065Y-127458519D01*
X139197788Y-127292974D01*
X139197788Y-127292973D01*
X139053101Y-127148286D01*
X138887555Y-127028009D01*
X138705237Y-126935113D01*
X138510623Y-126871878D01*
X138321937Y-126841993D01*
X138258802Y-126812063D01*
X138221871Y-126752752D01*
X138222869Y-126682889D01*
X138261479Y-126624657D01*
X138317144Y-126597903D01*
X138498041Y-126561920D01*
X138680120Y-126486501D01*
X138843988Y-126377008D01*
X138983345Y-126237651D01*
X139092838Y-126073783D01*
X139168257Y-125891704D01*
X139197287Y-125745761D01*
X139206706Y-125698412D01*
X139206706Y-125501325D01*
X139168258Y-125308039D01*
X139168257Y-125308038D01*
X139168257Y-125308034D01*
X139156798Y-125280369D01*
X139092841Y-125125961D01*
X139092834Y-125125948D01*
X138983345Y-124962087D01*
X138983342Y-124962083D01*
X138843991Y-124822732D01*
X138843987Y-124822729D01*
X138680126Y-124713240D01*
X138680113Y-124713233D01*
X138498045Y-124637819D01*
X138498035Y-124637816D01*
X138304749Y-124599369D01*
X138304747Y-124599369D01*
X137207665Y-124599369D01*
X137207663Y-124599369D01*
X137014376Y-124637816D01*
X137014366Y-124637819D01*
X136832298Y-124713233D01*
X136832285Y-124713240D01*
X136668424Y-124822729D01*
X136668420Y-124822732D01*
X136529069Y-124962083D01*
X136529066Y-124962087D01*
X136419577Y-125125948D01*
X136419570Y-125125961D01*
X136344156Y-125308029D01*
X136344153Y-125308039D01*
X136305706Y-125501325D01*
X136305706Y-125501328D01*
X136305706Y-125698410D01*
X136305706Y-125698412D01*
X136305705Y-125698412D01*
X136344153Y-125891698D01*
X136344156Y-125891708D01*
X136419570Y-126073776D01*
X136419577Y-126073789D01*
X136529066Y-126237650D01*
X136529069Y-126237654D01*
X136668420Y-126377005D01*
X136668424Y-126377008D01*
X136832285Y-126486497D01*
X136832298Y-126486504D01*
X137014366Y-126561918D01*
X137014371Y-126561920D01*
X137146880Y-126588278D01*
X137195267Y-126597903D01*
X137257178Y-126630288D01*
X137291752Y-126691003D01*
X137288013Y-126760773D01*
X137247146Y-126817445D01*
X137190475Y-126841993D01*
X137001787Y-126871879D01*
X136807174Y-126935113D01*
X136624856Y-127028009D01*
X136459311Y-127148286D01*
X136459310Y-127148286D01*
X136314623Y-127292973D01*
X136314623Y-127292974D01*
X136194346Y-127458519D01*
X136101450Y-127640839D01*
X136038215Y-127835455D01*
X136029597Y-127889869D01*
X30861706Y-127889869D01*
X30861706Y-126513977D01*
X130085706Y-126513977D01*
X130085706Y-126645761D01*
X130102760Y-126709408D01*
X130119814Y-126773056D01*
X130142335Y-126812063D01*
X130185706Y-126887183D01*
X130278892Y-126980369D01*
X130393020Y-127046261D01*
X130520314Y-127080369D01*
X130520316Y-127080369D01*
X130652096Y-127080369D01*
X130652098Y-127080369D01*
X130779392Y-127046261D01*
X130893520Y-126980369D01*
X130986706Y-126887183D01*
X131052598Y-126773055D01*
X131086706Y-126645761D01*
X131086706Y-126513977D01*
X131052598Y-126386683D01*
X130986706Y-126272555D01*
X130893520Y-126179369D01*
X130836174Y-126146260D01*
X130779393Y-126113477D01*
X130715745Y-126096423D01*
X130652098Y-126079369D01*
X130520314Y-126079369D01*
X130393018Y-126113477D01*
X130278892Y-126179369D01*
X130278889Y-126179371D01*
X130185708Y-126272552D01*
X130185706Y-126272555D01*
X130119814Y-126386681D01*
X130093069Y-126486497D01*
X130085706Y-126513977D01*
X30861706Y-126513977D01*
X30861706Y-125708977D01*
X95435706Y-125708977D01*
X95435706Y-125840760D01*
X95469814Y-125968056D01*
X95502760Y-126025119D01*
X95535706Y-126082183D01*
X95628892Y-126175369D01*
X95727727Y-126232432D01*
X95736772Y-126237654D01*
X95743020Y-126241261D01*
X95870314Y-126275369D01*
X95870316Y-126275369D01*
X96002096Y-126275369D01*
X96002098Y-126275369D01*
X96129392Y-126241261D01*
X96243520Y-126175369D01*
X96336706Y-126082183D01*
X96402598Y-125968055D01*
X96436706Y-125840761D01*
X96436706Y-125708977D01*
X96411251Y-125613977D01*
X104235706Y-125613977D01*
X104235706Y-125745760D01*
X104269814Y-125873056D01*
X104280581Y-125891704D01*
X104335706Y-125987183D01*
X104428892Y-126080369D01*
X104543020Y-126146261D01*
X104670314Y-126180369D01*
X104670316Y-126180369D01*
X104802096Y-126180369D01*
X104802098Y-126180369D01*
X104929392Y-126146261D01*
X105043520Y-126080369D01*
X105136706Y-125987183D01*
X105202598Y-125873055D01*
X105236706Y-125745761D01*
X105236706Y-125613977D01*
X105202598Y-125486683D01*
X105136706Y-125372555D01*
X105043520Y-125279369D01*
X104986174Y-125246260D01*
X104929393Y-125213477D01*
X104865745Y-125196423D01*
X104802098Y-125179369D01*
X104670314Y-125179369D01*
X104543018Y-125213477D01*
X104428892Y-125279369D01*
X104428889Y-125279371D01*
X104335708Y-125372552D01*
X104335706Y-125372555D01*
X104269814Y-125486681D01*
X104235706Y-125613977D01*
X96411251Y-125613977D01*
X96402598Y-125581683D01*
X96336706Y-125467555D01*
X96243520Y-125374369D01*
X96186456Y-125341423D01*
X96129393Y-125308477D01*
X96065745Y-125291423D01*
X96002098Y-125274369D01*
X95870314Y-125274369D01*
X95743018Y-125308477D01*
X95628892Y-125374369D01*
X95628889Y-125374371D01*
X95535708Y-125467552D01*
X95535706Y-125467555D01*
X95469814Y-125581681D01*
X95435706Y-125708977D01*
X30861706Y-125708977D01*
X30861706Y-123105706D01*
X32685706Y-123105706D01*
X32685706Y-123334031D01*
X32721421Y-123559529D01*
X32791976Y-123776672D01*
X32824891Y-123841270D01*
X32895627Y-123980097D01*
X33029827Y-124164806D01*
X33191269Y-124326248D01*
X33375978Y-124460448D01*
X33472090Y-124509419D01*
X33579402Y-124564098D01*
X33579404Y-124564098D01*
X33579407Y-124564100D01*
X33652714Y-124587919D01*
X33796545Y-124634653D01*
X34022044Y-124670369D01*
X34022049Y-124670369D01*
X34250368Y-124670369D01*
X34475866Y-124634653D01*
X34693005Y-124564100D01*
X34896434Y-124460448D01*
X35081143Y-124326248D01*
X35242585Y-124164806D01*
X35376785Y-123980097D01*
X35480437Y-123776668D01*
X35550990Y-123559529D01*
X35567828Y-123453220D01*
X35586706Y-123334031D01*
X35586706Y-123105706D01*
X35586622Y-123105174D01*
X45086206Y-123105174D01*
X45086206Y-123334563D01*
X45086207Y-123334579D01*
X45116148Y-123562006D01*
X45175524Y-123783599D01*
X45263308Y-123995528D01*
X45263312Y-123995538D01*
X45378005Y-124194193D01*
X45378011Y-124194200D01*
X45434587Y-124267933D01*
X46120358Y-123582161D01*
X46127255Y-123598811D01*
X46214805Y-123729839D01*
X46326236Y-123841270D01*
X46457264Y-123928820D01*
X46473911Y-123935715D01*
X45788140Y-124621486D01*
X45788140Y-124621487D01*
X45861872Y-124678063D01*
X46060536Y-124792762D01*
X46060546Y-124792766D01*
X46272475Y-124880550D01*
X46494068Y-124939926D01*
X46721495Y-124969867D01*
X46721512Y-124969869D01*
X46950900Y-124969869D01*
X46950916Y-124969867D01*
X47178343Y-124939926D01*
X47399936Y-124880550D01*
X47611865Y-124792766D01*
X47611874Y-124792762D01*
X47748333Y-124713977D01*
X129985706Y-124713977D01*
X129985706Y-124845760D01*
X130019814Y-124973056D01*
X130052760Y-125030119D01*
X130085706Y-125087183D01*
X130178892Y-125180369D01*
X130293020Y-125246261D01*
X130420314Y-125280369D01*
X130420316Y-125280369D01*
X130552096Y-125280369D01*
X130552098Y-125280369D01*
X130679392Y-125246261D01*
X130793520Y-125180369D01*
X130886706Y-125087183D01*
X130952598Y-124973055D01*
X130986706Y-124845761D01*
X130986706Y-124713977D01*
X130952598Y-124586683D01*
X130886706Y-124472555D01*
X130793520Y-124379369D01*
X130736456Y-124346423D01*
X130679393Y-124313477D01*
X130615745Y-124296423D01*
X130552098Y-124279369D01*
X130420314Y-124279369D01*
X130293018Y-124313477D01*
X130178892Y-124379369D01*
X130178889Y-124379371D01*
X130085708Y-124472552D01*
X130085706Y-124472555D01*
X130019814Y-124586681D01*
X129985706Y-124713977D01*
X47748333Y-124713977D01*
X47810533Y-124678066D01*
X47810540Y-124678061D01*
X47884270Y-124621486D01*
X47198499Y-123935715D01*
X47215148Y-123928820D01*
X47346176Y-123841270D01*
X47457607Y-123729839D01*
X47545157Y-123598811D01*
X47552052Y-123582162D01*
X48237823Y-124267933D01*
X48294398Y-124194203D01*
X48294403Y-124194196D01*
X48409099Y-123995537D01*
X48409103Y-123995528D01*
X48496887Y-123783599D01*
X48556263Y-123562006D01*
X48586204Y-123334579D01*
X48586206Y-123334563D01*
X48586206Y-123105706D01*
X49195706Y-123105706D01*
X49195706Y-123334031D01*
X49231421Y-123559529D01*
X49301976Y-123776672D01*
X49334891Y-123841270D01*
X49405627Y-123980097D01*
X49539827Y-124164806D01*
X49701269Y-124326248D01*
X49885978Y-124460448D01*
X49982090Y-124509419D01*
X50089402Y-124564098D01*
X50089404Y-124564098D01*
X50089407Y-124564100D01*
X50162714Y-124587919D01*
X50306545Y-124634653D01*
X50532044Y-124670369D01*
X50532049Y-124670369D01*
X50760368Y-124670369D01*
X50985866Y-124634653D01*
X51203005Y-124564100D01*
X51406434Y-124460448D01*
X51591143Y-124326248D01*
X51752585Y-124164806D01*
X51886785Y-123980097D01*
X51990437Y-123776668D01*
X52060990Y-123559529D01*
X52077828Y-123453220D01*
X52096706Y-123334031D01*
X52096706Y-123105706D01*
X53005706Y-123105706D01*
X53005706Y-123334031D01*
X53041421Y-123559529D01*
X53111976Y-123776672D01*
X53144891Y-123841270D01*
X53215627Y-123980097D01*
X53349827Y-124164806D01*
X53511269Y-124326248D01*
X53695978Y-124460448D01*
X53792090Y-124509419D01*
X53899402Y-124564098D01*
X53899404Y-124564098D01*
X53899407Y-124564100D01*
X53972714Y-124587919D01*
X54116545Y-124634653D01*
X54342044Y-124670369D01*
X54342049Y-124670369D01*
X54570368Y-124670369D01*
X54795866Y-124634653D01*
X55013005Y-124564100D01*
X55216434Y-124460448D01*
X55401143Y-124326248D01*
X55562585Y-124164806D01*
X55696785Y-123980097D01*
X55800437Y-123776668D01*
X55870990Y-123559529D01*
X55887828Y-123453220D01*
X55906706Y-123334031D01*
X55906706Y-123105706D01*
X55870990Y-122880208D01*
X55822629Y-122731369D01*
X55800437Y-122663070D01*
X55800435Y-122663067D01*
X55800435Y-122663065D01*
X55696784Y-122459640D01*
X55685573Y-122444209D01*
X55562585Y-122274932D01*
X55401143Y-122113490D01*
X55216434Y-121979290D01*
X55211327Y-121976688D01*
X55013009Y-121875639D01*
X54795866Y-121805084D01*
X54570368Y-121769369D01*
X54570363Y-121769369D01*
X54342049Y-121769369D01*
X54342044Y-121769369D01*
X54116545Y-121805084D01*
X53899402Y-121875639D01*
X53695977Y-121979290D01*
X53511267Y-122113491D01*
X53349828Y-122274930D01*
X53215627Y-122459640D01*
X53111976Y-122663065D01*
X53041421Y-122880208D01*
X53005706Y-123105706D01*
X52096706Y-123105706D01*
X52060990Y-122880208D01*
X52012629Y-122731369D01*
X51990437Y-122663070D01*
X51990435Y-122663067D01*
X51990435Y-122663065D01*
X51886784Y-122459640D01*
X51875573Y-122444209D01*
X51752585Y-122274932D01*
X51591143Y-122113490D01*
X51406434Y-121979290D01*
X51401327Y-121976688D01*
X51203009Y-121875639D01*
X50985866Y-121805084D01*
X50760368Y-121769369D01*
X50760363Y-121769369D01*
X50532049Y-121769369D01*
X50532044Y-121769369D01*
X50306545Y-121805084D01*
X50089402Y-121875639D01*
X49885977Y-121979290D01*
X49701267Y-122113491D01*
X49539828Y-122274930D01*
X49405627Y-122459640D01*
X49301976Y-122663065D01*
X49231421Y-122880208D01*
X49195706Y-123105706D01*
X48586206Y-123105706D01*
X48586206Y-123105172D01*
X48586205Y-123105160D01*
X48556263Y-122877731D01*
X48496887Y-122656138D01*
X48409103Y-122444209D01*
X48409099Y-122444199D01*
X48294400Y-122245535D01*
X48237824Y-122171803D01*
X48237823Y-122171803D01*
X47552052Y-122857574D01*
X47545157Y-122840927D01*
X47457607Y-122709899D01*
X47346176Y-122598468D01*
X47215148Y-122510918D01*
X47198498Y-122504021D01*
X47884270Y-121818250D01*
X47884270Y-121818249D01*
X47810537Y-121761674D01*
X47810530Y-121761668D01*
X47611875Y-121646975D01*
X47611865Y-121646971D01*
X47399936Y-121559187D01*
X47178343Y-121499811D01*
X46950916Y-121469870D01*
X46950900Y-121469869D01*
X46721512Y-121469869D01*
X46721495Y-121469870D01*
X46494068Y-121499811D01*
X46272475Y-121559187D01*
X46060546Y-121646971D01*
X46060536Y-121646975D01*
X45861879Y-121761670D01*
X45861865Y-121761679D01*
X45788140Y-121818249D01*
X46473912Y-122504022D01*
X46457264Y-122510918D01*
X46326236Y-122598468D01*
X46214805Y-122709899D01*
X46127255Y-122840927D01*
X46120359Y-122857575D01*
X45434586Y-122171803D01*
X45378016Y-122245528D01*
X45378007Y-122245542D01*
X45263312Y-122444199D01*
X45263308Y-122444209D01*
X45175524Y-122656138D01*
X45116148Y-122877731D01*
X45086207Y-123105158D01*
X45086206Y-123105174D01*
X35586622Y-123105174D01*
X35550990Y-122880208D01*
X35502629Y-122731369D01*
X35480437Y-122663070D01*
X35480435Y-122663067D01*
X35480435Y-122663065D01*
X35376784Y-122459640D01*
X35365573Y-122444209D01*
X35242585Y-122274932D01*
X35081143Y-122113490D01*
X34896434Y-121979290D01*
X34867740Y-121964670D01*
X34693009Y-121875639D01*
X34475866Y-121805084D01*
X34250368Y-121769369D01*
X34250363Y-121769369D01*
X34022049Y-121769369D01*
X34022044Y-121769369D01*
X33796545Y-121805084D01*
X33579402Y-121875639D01*
X33375977Y-121979290D01*
X33191267Y-122113491D01*
X33029828Y-122274930D01*
X32895627Y-122459640D01*
X32791976Y-122663065D01*
X32721421Y-122880208D01*
X32685706Y-123105706D01*
X30861706Y-123105706D01*
X30861706Y-118025706D01*
X32685706Y-118025706D01*
X32685706Y-118254031D01*
X32721421Y-118479529D01*
X32791976Y-118696672D01*
X32857158Y-118824598D01*
X32895627Y-118900097D01*
X33029827Y-119084806D01*
X33191269Y-119246248D01*
X33375978Y-119380448D01*
X33472090Y-119429419D01*
X33579402Y-119484098D01*
X33579404Y-119484098D01*
X33579407Y-119484100D01*
X33674104Y-119514869D01*
X33796545Y-119554653D01*
X34022044Y-119590369D01*
X34022049Y-119590369D01*
X34250368Y-119590369D01*
X34475866Y-119554653D01*
X34552675Y-119529696D01*
X34693005Y-119484100D01*
X34896434Y-119380448D01*
X35081143Y-119246248D01*
X35242585Y-119084806D01*
X35376785Y-118900097D01*
X35480437Y-118696668D01*
X35550990Y-118479529D01*
X35586706Y-118254031D01*
X35586706Y-118025706D01*
X45385706Y-118025706D01*
X45385706Y-118254031D01*
X45421421Y-118479529D01*
X45491976Y-118696672D01*
X45557158Y-118824598D01*
X45595627Y-118900097D01*
X45729827Y-119084806D01*
X45891269Y-119246248D01*
X46075978Y-119380448D01*
X46172090Y-119429419D01*
X46279402Y-119484098D01*
X46279404Y-119484098D01*
X46279407Y-119484100D01*
X46374104Y-119514869D01*
X46496545Y-119554653D01*
X46722044Y-119590369D01*
X46722049Y-119590369D01*
X46950368Y-119590369D01*
X47175866Y-119554653D01*
X47252675Y-119529696D01*
X47393005Y-119484100D01*
X47596434Y-119380448D01*
X47781143Y-119246248D01*
X47942585Y-119084806D01*
X48076785Y-118900097D01*
X48180437Y-118696668D01*
X48250990Y-118479529D01*
X48286706Y-118254031D01*
X48286706Y-118025706D01*
X49195706Y-118025706D01*
X49195706Y-118254031D01*
X49231421Y-118479529D01*
X49301976Y-118696672D01*
X49367158Y-118824598D01*
X49405627Y-118900097D01*
X49539827Y-119084806D01*
X49701269Y-119246248D01*
X49885978Y-119380448D01*
X49982090Y-119429419D01*
X50089402Y-119484098D01*
X50089404Y-119484098D01*
X50089407Y-119484100D01*
X50184104Y-119514869D01*
X50306545Y-119554653D01*
X50532044Y-119590369D01*
X50532049Y-119590369D01*
X50760368Y-119590369D01*
X50985866Y-119554653D01*
X51062675Y-119529696D01*
X51203005Y-119484100D01*
X51406434Y-119380448D01*
X51591143Y-119246248D01*
X51752585Y-119084806D01*
X51886785Y-118900097D01*
X51990437Y-118696668D01*
X52060990Y-118479529D01*
X52096706Y-118254031D01*
X52096706Y-118025706D01*
X53005706Y-118025706D01*
X53005706Y-118254031D01*
X53041421Y-118479529D01*
X53111976Y-118696672D01*
X53177158Y-118824598D01*
X53215627Y-118900097D01*
X53349827Y-119084806D01*
X53511269Y-119246248D01*
X53695978Y-119380448D01*
X53792090Y-119429419D01*
X53899402Y-119484098D01*
X53899404Y-119484098D01*
X53899407Y-119484100D01*
X53994104Y-119514869D01*
X54116545Y-119554653D01*
X54342044Y-119590369D01*
X54342049Y-119590369D01*
X54570368Y-119590369D01*
X54795866Y-119554653D01*
X54872675Y-119529696D01*
X55013005Y-119484100D01*
X55216434Y-119380448D01*
X55313340Y-119310041D01*
X83655706Y-119310041D01*
X83655706Y-119529697D01*
X83659659Y-119554653D01*
X83688893Y-119739234D01*
X83690068Y-119746649D01*
X83757946Y-119955555D01*
X83857667Y-120151269D01*
X83857670Y-120151273D01*
X83986772Y-120328970D01*
X84142104Y-120484302D01*
X84308387Y-120605111D01*
X84319805Y-120613407D01*
X84515520Y-120713129D01*
X84724426Y-120781007D01*
X84941378Y-120815369D01*
X84941379Y-120815369D01*
X85161033Y-120815369D01*
X85161034Y-120815369D01*
X85377986Y-120781007D01*
X85586892Y-120713129D01*
X85782607Y-120613407D01*
X85882380Y-120540918D01*
X85960307Y-120484302D01*
X85960309Y-120484299D01*
X85960313Y-120484297D01*
X86115634Y-120328976D01*
X86115636Y-120328972D01*
X86115639Y-120328970D01*
X86172255Y-120251043D01*
X86244744Y-120151270D01*
X86344466Y-119955555D01*
X86412344Y-119746649D01*
X86446706Y-119529697D01*
X86446706Y-119310041D01*
X119655706Y-119310041D01*
X119655706Y-119529697D01*
X119659659Y-119554653D01*
X119688893Y-119739234D01*
X119690068Y-119746649D01*
X119757946Y-119955555D01*
X119857667Y-120151269D01*
X119857670Y-120151273D01*
X119986772Y-120328970D01*
X120142104Y-120484302D01*
X120308387Y-120605111D01*
X120319805Y-120613407D01*
X120515520Y-120713129D01*
X120724426Y-120781007D01*
X120941378Y-120815369D01*
X120941379Y-120815369D01*
X121161033Y-120815369D01*
X121161034Y-120815369D01*
X121377986Y-120781007D01*
X121586892Y-120713129D01*
X121782607Y-120613407D01*
X121835760Y-120574789D01*
X121960307Y-120484302D01*
X121960309Y-120484299D01*
X121960313Y-120484297D01*
X122115634Y-120328976D01*
X122127778Y-120312259D01*
X122158577Y-120269869D01*
X138849703Y-120269869D01*
X141861244Y-120269869D01*
X141831206Y-120420885D01*
X141831206Y-120618853D01*
X141861244Y-120769869D01*
X138849704Y-120769869D01*
X138874702Y-120959753D01*
X138874705Y-120959766D01*
X138951041Y-121244659D01*
X138951044Y-121244669D01*
X139063910Y-121517150D01*
X139063915Y-121517161D01*
X139211380Y-121772576D01*
X139211391Y-121772592D01*
X139390935Y-122006578D01*
X139390941Y-122006585D01*
X139599489Y-122215133D01*
X139599496Y-122215139D01*
X139833482Y-122394683D01*
X139833498Y-122394694D01*
X140088913Y-122542159D01*
X140088924Y-122542164D01*
X140361405Y-122655030D01*
X140361415Y-122655033D01*
X140646308Y-122731369D01*
X140646321Y-122731372D01*
X140938722Y-122769867D01*
X140938740Y-122769869D01*
X142586206Y-122769869D01*
X142586206Y-121494830D01*
X142737222Y-121524869D01*
X142935190Y-121524869D01*
X143086206Y-121494830D01*
X143086206Y-122769869D01*
X144733672Y-122769869D01*
X144733689Y-122769867D01*
X145026090Y-122731372D01*
X145026103Y-122731369D01*
X145310996Y-122655033D01*
X145311006Y-122655030D01*
X145583487Y-122542164D01*
X145583498Y-122542159D01*
X145838913Y-122394694D01*
X145838929Y-122394683D01*
X146072915Y-122215139D01*
X146072922Y-122215133D01*
X146281470Y-122006585D01*
X146281476Y-122006578D01*
X146461020Y-121772592D01*
X146461031Y-121772576D01*
X146608496Y-121517161D01*
X146608501Y-121517150D01*
X146721367Y-121244669D01*
X146721370Y-121244659D01*
X146797706Y-120959766D01*
X146797709Y-120959753D01*
X146822708Y-120769869D01*
X143811168Y-120769869D01*
X143841206Y-120618853D01*
X143841206Y-120420885D01*
X143811168Y-120269869D01*
X146822708Y-120269869D01*
X146797709Y-120079984D01*
X146797706Y-120079971D01*
X146721370Y-119795078D01*
X146721367Y-119795068D01*
X146608501Y-119522587D01*
X146608496Y-119522576D01*
X146461031Y-119267161D01*
X146461020Y-119267145D01*
X146281476Y-119033159D01*
X146281470Y-119033152D01*
X146072922Y-118824604D01*
X146072915Y-118824598D01*
X145838929Y-118645054D01*
X145838913Y-118645043D01*
X145583498Y-118497578D01*
X145583487Y-118497573D01*
X145311006Y-118384707D01*
X145310996Y-118384704D01*
X145026103Y-118308368D01*
X145026090Y-118308365D01*
X144733689Y-118269870D01*
X144733672Y-118269869D01*
X143086206Y-118269869D01*
X143086206Y-119544907D01*
X142935190Y-119514869D01*
X142737222Y-119514869D01*
X142586206Y-119544907D01*
X142586206Y-118269869D01*
X140938740Y-118269869D01*
X140938722Y-118269870D01*
X140646321Y-118308365D01*
X140646308Y-118308368D01*
X140361415Y-118384704D01*
X140361405Y-118384707D01*
X140088924Y-118497573D01*
X140088913Y-118497578D01*
X139833498Y-118645043D01*
X139833482Y-118645054D01*
X139599496Y-118824598D01*
X139599489Y-118824604D01*
X139390941Y-119033152D01*
X139390935Y-119033159D01*
X139211391Y-119267145D01*
X139211380Y-119267161D01*
X139063915Y-119522576D01*
X139063910Y-119522587D01*
X138951044Y-119795068D01*
X138951041Y-119795078D01*
X138874705Y-120079971D01*
X138874702Y-120079984D01*
X138849703Y-120269869D01*
X122158577Y-120269869D01*
X122182818Y-120236505D01*
X122182820Y-120236502D01*
X122196664Y-120217446D01*
X122244744Y-120151270D01*
X122344466Y-119955555D01*
X122412344Y-119746649D01*
X122446706Y-119529697D01*
X122446706Y-119310041D01*
X122412344Y-119093089D01*
X122344466Y-118884183D01*
X122244744Y-118688468D01*
X122213194Y-118645043D01*
X122115639Y-118510767D01*
X121960307Y-118355435D01*
X121782610Y-118226333D01*
X121782609Y-118226332D01*
X121782607Y-118226331D01*
X121586892Y-118126609D01*
X121377986Y-118058731D01*
X121377984Y-118058730D01*
X121377983Y-118058730D01*
X121211326Y-118032334D01*
X121161034Y-118024369D01*
X120941378Y-118024369D01*
X120891085Y-118032334D01*
X120724429Y-118058730D01*
X120515517Y-118126610D01*
X120319801Y-118226333D01*
X120142104Y-118355435D01*
X119986772Y-118510767D01*
X119857670Y-118688464D01*
X119757947Y-118884180D01*
X119690067Y-119093092D01*
X119655706Y-119310041D01*
X86446706Y-119310041D01*
X86412344Y-119093089D01*
X86344466Y-118884183D01*
X86244744Y-118688468D01*
X86213194Y-118645043D01*
X86115639Y-118510767D01*
X85960307Y-118355435D01*
X85782610Y-118226333D01*
X85782609Y-118226332D01*
X85782607Y-118226331D01*
X85586892Y-118126609D01*
X85377986Y-118058731D01*
X85377984Y-118058730D01*
X85377983Y-118058730D01*
X85211326Y-118032334D01*
X85161034Y-118024369D01*
X84941378Y-118024369D01*
X84891085Y-118032334D01*
X84724429Y-118058730D01*
X84515517Y-118126610D01*
X84319801Y-118226333D01*
X84142104Y-118355435D01*
X83986772Y-118510767D01*
X83857670Y-118688464D01*
X83757947Y-118884180D01*
X83690067Y-119093092D01*
X83655706Y-119310041D01*
X55313340Y-119310041D01*
X55401143Y-119246248D01*
X55562585Y-119084806D01*
X55696785Y-118900097D01*
X55800437Y-118696668D01*
X55870990Y-118479529D01*
X55906706Y-118254031D01*
X55906706Y-118025706D01*
X55870990Y-117800208D01*
X55800435Y-117583065D01*
X55696784Y-117379640D01*
X55562585Y-117194932D01*
X55401143Y-117033490D01*
X55216434Y-116899290D01*
X55164945Y-116873055D01*
X55013009Y-116795639D01*
X54795867Y-116725085D01*
X54570368Y-116689369D01*
X54570363Y-116689369D01*
X54342049Y-116689369D01*
X54342044Y-116689369D01*
X54116545Y-116725084D01*
X53899402Y-116795639D01*
X53695977Y-116899290D01*
X53511267Y-117033491D01*
X53349828Y-117194930D01*
X53215627Y-117379640D01*
X53111976Y-117583065D01*
X53041421Y-117800208D01*
X53005706Y-118025706D01*
X52096706Y-118025706D01*
X52060990Y-117800208D01*
X51990435Y-117583065D01*
X51886784Y-117379640D01*
X51752585Y-117194932D01*
X51591143Y-117033490D01*
X51406434Y-116899290D01*
X51354945Y-116873055D01*
X51203009Y-116795639D01*
X50985866Y-116725084D01*
X50760368Y-116689369D01*
X50760363Y-116689369D01*
X50532049Y-116689369D01*
X50532044Y-116689369D01*
X50306545Y-116725084D01*
X50089402Y-116795639D01*
X49885977Y-116899290D01*
X49701267Y-117033491D01*
X49539828Y-117194930D01*
X49405627Y-117379640D01*
X49301976Y-117583065D01*
X49231421Y-117800208D01*
X49195706Y-118025706D01*
X48286706Y-118025706D01*
X48250990Y-117800208D01*
X48180435Y-117583065D01*
X48076784Y-117379640D01*
X47942585Y-117194932D01*
X47781143Y-117033490D01*
X47596434Y-116899290D01*
X47544945Y-116873055D01*
X47393009Y-116795639D01*
X47175866Y-116725084D01*
X46950368Y-116689369D01*
X46950363Y-116689369D01*
X46722049Y-116689369D01*
X46722044Y-116689369D01*
X46496545Y-116725084D01*
X46279402Y-116795639D01*
X46075977Y-116899290D01*
X45891267Y-117033491D01*
X45729828Y-117194930D01*
X45595627Y-117379640D01*
X45491976Y-117583065D01*
X45421421Y-117800208D01*
X45385706Y-118025706D01*
X35586706Y-118025706D01*
X35550990Y-117800208D01*
X35480435Y-117583065D01*
X35376784Y-117379640D01*
X35242585Y-117194932D01*
X35081143Y-117033490D01*
X34896434Y-116899290D01*
X34844945Y-116873055D01*
X34693009Y-116795639D01*
X34475866Y-116725084D01*
X34250368Y-116689369D01*
X34250363Y-116689369D01*
X34022049Y-116689369D01*
X34022044Y-116689369D01*
X33796545Y-116725084D01*
X33579402Y-116795639D01*
X33375977Y-116899290D01*
X33191267Y-117033491D01*
X33029828Y-117194930D01*
X32895627Y-117379640D01*
X32791976Y-117583065D01*
X32721421Y-117800208D01*
X32685706Y-118025706D01*
X30861706Y-118025706D01*
X30861706Y-116613977D01*
X75835706Y-116613977D01*
X75835706Y-116745760D01*
X75869814Y-116873056D01*
X75884961Y-116899290D01*
X75935706Y-116987183D01*
X76028892Y-117080369D01*
X76143020Y-117146261D01*
X76270314Y-117180369D01*
X76270316Y-117180369D01*
X76402096Y-117180369D01*
X76402098Y-117180369D01*
X76529392Y-117146261D01*
X76643520Y-117080369D01*
X76736706Y-116987183D01*
X76802598Y-116873055D01*
X76836706Y-116745761D01*
X76836706Y-116613977D01*
X81335706Y-116613977D01*
X81335706Y-116745760D01*
X81369814Y-116873056D01*
X81384961Y-116899290D01*
X81435706Y-116987183D01*
X81528892Y-117080369D01*
X81643020Y-117146261D01*
X81770314Y-117180369D01*
X81770316Y-117180369D01*
X81902096Y-117180369D01*
X81902098Y-117180369D01*
X82029392Y-117146261D01*
X82143520Y-117080369D01*
X82236706Y-116987183D01*
X82302598Y-116873055D01*
X82336706Y-116745761D01*
X82336706Y-116613977D01*
X95385706Y-116613977D01*
X95385706Y-116745760D01*
X95419814Y-116873056D01*
X95434961Y-116899290D01*
X95485706Y-116987183D01*
X95578892Y-117080369D01*
X95693020Y-117146261D01*
X95820314Y-117180369D01*
X95820316Y-117180369D01*
X95952096Y-117180369D01*
X95952098Y-117180369D01*
X96079392Y-117146261D01*
X96193520Y-117080369D01*
X96286706Y-116987183D01*
X96352598Y-116873055D01*
X96386706Y-116745761D01*
X96386706Y-116613977D01*
X96361251Y-116518977D01*
X115785706Y-116518977D01*
X115785706Y-116650760D01*
X115819814Y-116778056D01*
X115829966Y-116795639D01*
X115885706Y-116892183D01*
X115978892Y-116985369D01*
X116093020Y-117051261D01*
X116220314Y-117085369D01*
X116220316Y-117085369D01*
X116352096Y-117085369D01*
X116352098Y-117085369D01*
X116479392Y-117051261D01*
X116593520Y-116985369D01*
X116686706Y-116892183D01*
X116752598Y-116778055D01*
X116786706Y-116650761D01*
X116786706Y-116518977D01*
X116752598Y-116391683D01*
X116686706Y-116277555D01*
X116593520Y-116184369D01*
X116536456Y-116151423D01*
X116479393Y-116118477D01*
X116415745Y-116101423D01*
X116352098Y-116084369D01*
X116220314Y-116084369D01*
X116093018Y-116118477D01*
X115978892Y-116184369D01*
X115978889Y-116184371D01*
X115885708Y-116277552D01*
X115885706Y-116277555D01*
X115819814Y-116391681D01*
X115785706Y-116518977D01*
X96361251Y-116518977D01*
X96352598Y-116486683D01*
X96286706Y-116372555D01*
X96193520Y-116279369D01*
X96136456Y-116246423D01*
X96079393Y-116213477D01*
X96015745Y-116196423D01*
X95952098Y-116179369D01*
X95820314Y-116179369D01*
X95693018Y-116213477D01*
X95578892Y-116279369D01*
X95578889Y-116279371D01*
X95485708Y-116372552D01*
X95485706Y-116372555D01*
X95419814Y-116486681D01*
X95385706Y-116613977D01*
X82336706Y-116613977D01*
X82302598Y-116486683D01*
X82236706Y-116372555D01*
X82143520Y-116279369D01*
X82086456Y-116246423D01*
X82029393Y-116213477D01*
X81965745Y-116196423D01*
X81902098Y-116179369D01*
X81770314Y-116179369D01*
X81643018Y-116213477D01*
X81528892Y-116279369D01*
X81528889Y-116279371D01*
X81435708Y-116372552D01*
X81435706Y-116372555D01*
X81369814Y-116486681D01*
X81335706Y-116613977D01*
X76836706Y-116613977D01*
X76802598Y-116486683D01*
X76736706Y-116372555D01*
X76643520Y-116279369D01*
X76586456Y-116246423D01*
X76529393Y-116213477D01*
X76465745Y-116196423D01*
X76402098Y-116179369D01*
X76270314Y-116179369D01*
X76143018Y-116213477D01*
X76028892Y-116279369D01*
X76028889Y-116279371D01*
X75935708Y-116372552D01*
X75935706Y-116372555D01*
X75869814Y-116486681D01*
X75835706Y-116613977D01*
X30861706Y-116613977D01*
X30861706Y-113113977D01*
X75835706Y-113113977D01*
X75835706Y-113245761D01*
X75852760Y-113309408D01*
X75869814Y-113373056D01*
X75902760Y-113430119D01*
X75935706Y-113487183D01*
X76028892Y-113580369D01*
X76143020Y-113646261D01*
X76270314Y-113680369D01*
X76270316Y-113680369D01*
X76402096Y-113680369D01*
X76402098Y-113680369D01*
X76529392Y-113646261D01*
X76643520Y-113580369D01*
X76736706Y-113487183D01*
X76802598Y-113373055D01*
X76836706Y-113245761D01*
X76836706Y-113113977D01*
X81335706Y-113113977D01*
X81335706Y-113245761D01*
X81352760Y-113309408D01*
X81369814Y-113373056D01*
X81402760Y-113430119D01*
X81435706Y-113487183D01*
X81528892Y-113580369D01*
X81643020Y-113646261D01*
X81770314Y-113680369D01*
X81770316Y-113680369D01*
X81902096Y-113680369D01*
X81902098Y-113680369D01*
X82029392Y-113646261D01*
X82143520Y-113580369D01*
X82236706Y-113487183D01*
X82302598Y-113373055D01*
X82336706Y-113245761D01*
X82336706Y-113113977D01*
X82302598Y-112986683D01*
X82236706Y-112872555D01*
X82143520Y-112779369D01*
X82086456Y-112746423D01*
X82029393Y-112713477D01*
X82012598Y-112708977D01*
X104385706Y-112708977D01*
X104385706Y-112840760D01*
X104419814Y-112968056D01*
X104430569Y-112986683D01*
X104485706Y-113082183D01*
X104578892Y-113175369D01*
X104693020Y-113241261D01*
X104820314Y-113275369D01*
X104820316Y-113275369D01*
X104952096Y-113275369D01*
X104952098Y-113275369D01*
X105079392Y-113241261D01*
X105193520Y-113175369D01*
X105286706Y-113082183D01*
X105352598Y-112968055D01*
X105386706Y-112840761D01*
X105386706Y-112708977D01*
X125135706Y-112708977D01*
X125135706Y-112840760D01*
X125169814Y-112968056D01*
X125180569Y-112986683D01*
X125235706Y-113082183D01*
X125328892Y-113175369D01*
X125443020Y-113241261D01*
X125570314Y-113275369D01*
X125570316Y-113275369D01*
X125702096Y-113275369D01*
X125702098Y-113275369D01*
X125829392Y-113241261D01*
X125943520Y-113175369D01*
X126036706Y-113082183D01*
X126102598Y-112968055D01*
X126136706Y-112840761D01*
X126136706Y-112708977D01*
X126102598Y-112581683D01*
X126036706Y-112467555D01*
X125943520Y-112374369D01*
X125886456Y-112341423D01*
X125829393Y-112308477D01*
X125765745Y-112291423D01*
X125702098Y-112274369D01*
X125570314Y-112274369D01*
X125443018Y-112308477D01*
X125328892Y-112374369D01*
X125328889Y-112374371D01*
X125235708Y-112467552D01*
X125235706Y-112467555D01*
X125169814Y-112581681D01*
X125135706Y-112708977D01*
X105386706Y-112708977D01*
X105352598Y-112581683D01*
X105286706Y-112467555D01*
X105193520Y-112374369D01*
X105136456Y-112341423D01*
X105079393Y-112308477D01*
X105015745Y-112291423D01*
X104952098Y-112274369D01*
X104820314Y-112274369D01*
X104693018Y-112308477D01*
X104578892Y-112374369D01*
X104578889Y-112374371D01*
X104485708Y-112467552D01*
X104485706Y-112467555D01*
X104419814Y-112581681D01*
X104385706Y-112708977D01*
X82012598Y-112708977D01*
X81965745Y-112696423D01*
X81902098Y-112679369D01*
X81770314Y-112679369D01*
X81643018Y-112713477D01*
X81528892Y-112779369D01*
X81528889Y-112779371D01*
X81435708Y-112872552D01*
X81435706Y-112872555D01*
X81369814Y-112986681D01*
X81335706Y-113113977D01*
X76836706Y-113113977D01*
X76802598Y-112986683D01*
X76736706Y-112872555D01*
X76643520Y-112779369D01*
X76586456Y-112746423D01*
X76529393Y-112713477D01*
X76465745Y-112696423D01*
X76402098Y-112679369D01*
X76270314Y-112679369D01*
X76143018Y-112713477D01*
X76028892Y-112779369D01*
X76028889Y-112779371D01*
X75935708Y-112872552D01*
X75935706Y-112872555D01*
X75869814Y-112986681D01*
X75835706Y-113113977D01*
X30861706Y-113113977D01*
X30861706Y-111323851D01*
X93810706Y-111323851D01*
X93810706Y-111435887D01*
X93839703Y-111544106D01*
X93895721Y-111641132D01*
X93974943Y-111720354D01*
X94071969Y-111776372D01*
X94180188Y-111805369D01*
X94180190Y-111805369D01*
X94292222Y-111805369D01*
X94292224Y-111805369D01*
X94400443Y-111776372D01*
X94497469Y-111720354D01*
X94576691Y-111641132D01*
X94632709Y-111544106D01*
X94661706Y-111435887D01*
X94661706Y-111323851D01*
X94632709Y-111215632D01*
X94576691Y-111118606D01*
X94497469Y-111039384D01*
X94400443Y-110983366D01*
X94292224Y-110954369D01*
X94180188Y-110954369D01*
X94071969Y-110983366D01*
X94071966Y-110983367D01*
X93974946Y-111039382D01*
X93974940Y-111039386D01*
X93895723Y-111118603D01*
X93895719Y-111118609D01*
X93839704Y-111215629D01*
X93839703Y-111215632D01*
X93810706Y-111323851D01*
X30861706Y-111323851D01*
X30861706Y-107105706D01*
X32685706Y-107105706D01*
X32685706Y-107334031D01*
X32721421Y-107559529D01*
X32791976Y-107776672D01*
X32824891Y-107841270D01*
X32895627Y-107980097D01*
X33029827Y-108164806D01*
X33191269Y-108326248D01*
X33375978Y-108460448D01*
X33472090Y-108509419D01*
X33579402Y-108564098D01*
X33579404Y-108564098D01*
X33579407Y-108564100D01*
X33695798Y-108601918D01*
X33796545Y-108634653D01*
X34022044Y-108670369D01*
X34022049Y-108670369D01*
X34250368Y-108670369D01*
X34475866Y-108634653D01*
X34693005Y-108564100D01*
X34896434Y-108460448D01*
X35081143Y-108326248D01*
X35242585Y-108164806D01*
X35376785Y-107980097D01*
X35480437Y-107776668D01*
X35550990Y-107559529D01*
X35567828Y-107453220D01*
X35586706Y-107334031D01*
X35586706Y-107105706D01*
X45385706Y-107105706D01*
X45385706Y-107334031D01*
X45421421Y-107559529D01*
X45491976Y-107776672D01*
X45524891Y-107841270D01*
X45595627Y-107980097D01*
X45729827Y-108164806D01*
X45891269Y-108326248D01*
X46075978Y-108460448D01*
X46172090Y-108509419D01*
X46279402Y-108564098D01*
X46279404Y-108564098D01*
X46279407Y-108564100D01*
X46395798Y-108601918D01*
X46496545Y-108634653D01*
X46722044Y-108670369D01*
X46722049Y-108670369D01*
X46950368Y-108670369D01*
X47175866Y-108634653D01*
X47393005Y-108564100D01*
X47596434Y-108460448D01*
X47781143Y-108326248D01*
X47942585Y-108164806D01*
X48076785Y-107980097D01*
X48180437Y-107776668D01*
X48250990Y-107559529D01*
X48267828Y-107453220D01*
X48286706Y-107334031D01*
X48286706Y-107105706D01*
X48286622Y-107105174D01*
X48896206Y-107105174D01*
X48896206Y-107334563D01*
X48896207Y-107334579D01*
X48926148Y-107562006D01*
X48985524Y-107783599D01*
X49073308Y-107995528D01*
X49073312Y-107995538D01*
X49188005Y-108194193D01*
X49188011Y-108194200D01*
X49244587Y-108267933D01*
X49930358Y-107582161D01*
X49937255Y-107598811D01*
X50024805Y-107729839D01*
X50136236Y-107841270D01*
X50267264Y-107928820D01*
X50283911Y-107935715D01*
X49598140Y-108621486D01*
X49598140Y-108621487D01*
X49671872Y-108678063D01*
X49870536Y-108792762D01*
X49870546Y-108792766D01*
X50082475Y-108880550D01*
X50304068Y-108939926D01*
X50531495Y-108969867D01*
X50531512Y-108969869D01*
X50760900Y-108969869D01*
X50760916Y-108969867D01*
X50988343Y-108939926D01*
X51209936Y-108880550D01*
X51421865Y-108792766D01*
X51421874Y-108792762D01*
X51620533Y-108678066D01*
X51620540Y-108678061D01*
X51694270Y-108621486D01*
X51008499Y-107935715D01*
X51025148Y-107928820D01*
X51156176Y-107841270D01*
X51267607Y-107729839D01*
X51355157Y-107598811D01*
X51362052Y-107582162D01*
X52047823Y-108267933D01*
X52104398Y-108194203D01*
X52104403Y-108194196D01*
X52219099Y-107995537D01*
X52219103Y-107995528D01*
X52306887Y-107783599D01*
X52366263Y-107562006D01*
X52396204Y-107334579D01*
X52396206Y-107334563D01*
X52396206Y-107105706D01*
X53005706Y-107105706D01*
X53005706Y-107334031D01*
X53041421Y-107559529D01*
X53111976Y-107776672D01*
X53144891Y-107841270D01*
X53215627Y-107980097D01*
X53349827Y-108164806D01*
X53511269Y-108326248D01*
X53695978Y-108460448D01*
X53792090Y-108509419D01*
X53899402Y-108564098D01*
X53899404Y-108564098D01*
X53899407Y-108564100D01*
X54015798Y-108601918D01*
X54116545Y-108634653D01*
X54342044Y-108670369D01*
X54342049Y-108670369D01*
X54570368Y-108670369D01*
X54795866Y-108634653D01*
X55013005Y-108564100D01*
X55091998Y-108523851D01*
X103110706Y-108523851D01*
X103110706Y-108635887D01*
X103139703Y-108744106D01*
X103195721Y-108841132D01*
X103274943Y-108920354D01*
X103371969Y-108976372D01*
X103480188Y-109005369D01*
X103480190Y-109005369D01*
X103592222Y-109005369D01*
X103592224Y-109005369D01*
X103700443Y-108976372D01*
X103797469Y-108920354D01*
X103876691Y-108841132D01*
X103932709Y-108744106D01*
X103961706Y-108635887D01*
X103961706Y-108523851D01*
X103932709Y-108415632D01*
X103876691Y-108318606D01*
X103797469Y-108239384D01*
X103700443Y-108183366D01*
X103592224Y-108154369D01*
X103480188Y-108154369D01*
X103371969Y-108183366D01*
X103371966Y-108183367D01*
X103274946Y-108239382D01*
X103274940Y-108239386D01*
X103195723Y-108318603D01*
X103195719Y-108318609D01*
X103139704Y-108415629D01*
X103139703Y-108415632D01*
X103110706Y-108523851D01*
X55091998Y-108523851D01*
X55216434Y-108460448D01*
X55401143Y-108326248D01*
X55562585Y-108164806D01*
X55696785Y-107980097D01*
X55800437Y-107776668D01*
X55870990Y-107559529D01*
X55887828Y-107453220D01*
X55906706Y-107334031D01*
X55906706Y-107105706D01*
X55870990Y-106880208D01*
X55838255Y-106779461D01*
X55800437Y-106663070D01*
X55800435Y-106663067D01*
X55800435Y-106663065D01*
X55722912Y-106510918D01*
X55696785Y-106459641D01*
X55562585Y-106274932D01*
X55401143Y-106113490D01*
X55216434Y-105979290D01*
X55114838Y-105927524D01*
X55013009Y-105875639D01*
X54872675Y-105830041D01*
X61305706Y-105830041D01*
X61305706Y-106049696D01*
X61336722Y-106245528D01*
X61340068Y-106266649D01*
X61407946Y-106475555D01*
X61503487Y-106663065D01*
X61507670Y-106671273D01*
X61636772Y-106848970D01*
X61792104Y-107004302D01*
X61931686Y-107105712D01*
X61969805Y-107133407D01*
X62165520Y-107233129D01*
X62374426Y-107301007D01*
X62591378Y-107335369D01*
X62591379Y-107335369D01*
X62811033Y-107335369D01*
X62811034Y-107335369D01*
X63027986Y-107301007D01*
X63236892Y-107233129D01*
X63432607Y-107133407D01*
X63532380Y-107060918D01*
X63610307Y-107004302D01*
X63610309Y-107004299D01*
X63610313Y-107004297D01*
X63765634Y-106848976D01*
X63765636Y-106848972D01*
X63765639Y-106848970D01*
X63822255Y-106771043D01*
X63894744Y-106671270D01*
X63994466Y-106475555D01*
X64062344Y-106266649D01*
X64096706Y-106049697D01*
X64096706Y-105830041D01*
X97305706Y-105830041D01*
X97305706Y-106049696D01*
X97336722Y-106245528D01*
X97340068Y-106266649D01*
X97407946Y-106475555D01*
X97503487Y-106663065D01*
X97507670Y-106671273D01*
X97636772Y-106848970D01*
X97792104Y-107004302D01*
X97931686Y-107105712D01*
X97969805Y-107133407D01*
X98165520Y-107233129D01*
X98374426Y-107301007D01*
X98591378Y-107335369D01*
X98591379Y-107335369D01*
X98811033Y-107335369D01*
X98811034Y-107335369D01*
X99027986Y-107301007D01*
X99236892Y-107233129D01*
X99432607Y-107133407D01*
X99532380Y-107060918D01*
X99610307Y-107004302D01*
X99610309Y-107004299D01*
X99610313Y-107004297D01*
X99765634Y-106848976D01*
X99765636Y-106848972D01*
X99765639Y-106848970D01*
X99822255Y-106771043D01*
X99894744Y-106671270D01*
X99994466Y-106475555D01*
X100062344Y-106266649D01*
X100096706Y-106049697D01*
X100096706Y-105830041D01*
X100062344Y-105613089D01*
X99994466Y-105404183D01*
X99894744Y-105208468D01*
X99886448Y-105197050D01*
X99765639Y-105030767D01*
X99610307Y-104875435D01*
X99432610Y-104746333D01*
X99432609Y-104746332D01*
X99432607Y-104746331D01*
X99236892Y-104646609D01*
X99027986Y-104578731D01*
X99027984Y-104578730D01*
X99027983Y-104578730D01*
X98861326Y-104552334D01*
X98811034Y-104544369D01*
X98591378Y-104544369D01*
X98541085Y-104552334D01*
X98374429Y-104578730D01*
X98165517Y-104646610D01*
X97969801Y-104746333D01*
X97792104Y-104875435D01*
X97636772Y-105030767D01*
X97507670Y-105208464D01*
X97407947Y-105404180D01*
X97340067Y-105613092D01*
X97305706Y-105830041D01*
X64096706Y-105830041D01*
X64062344Y-105613089D01*
X63994466Y-105404183D01*
X63894744Y-105208468D01*
X63886448Y-105197050D01*
X63765639Y-105030767D01*
X63610307Y-104875435D01*
X63432610Y-104746333D01*
X63432609Y-104746332D01*
X63432607Y-104746331D01*
X63236892Y-104646609D01*
X63027986Y-104578731D01*
X63027984Y-104578730D01*
X63027983Y-104578730D01*
X62861326Y-104552334D01*
X62811034Y-104544369D01*
X62591378Y-104544369D01*
X62541085Y-104552334D01*
X62374429Y-104578730D01*
X62165517Y-104646610D01*
X61969801Y-104746333D01*
X61792104Y-104875435D01*
X61636772Y-105030767D01*
X61507670Y-105208464D01*
X61407947Y-105404180D01*
X61340067Y-105613092D01*
X61305706Y-105830041D01*
X54872675Y-105830041D01*
X54795866Y-105805084D01*
X54570368Y-105769369D01*
X54570363Y-105769369D01*
X54342049Y-105769369D01*
X54342044Y-105769369D01*
X54116545Y-105805084D01*
X53899402Y-105875639D01*
X53695977Y-105979290D01*
X53511267Y-106113491D01*
X53349828Y-106274930D01*
X53215627Y-106459640D01*
X53111976Y-106663065D01*
X53041421Y-106880208D01*
X53005706Y-107105706D01*
X52396206Y-107105706D01*
X52396206Y-107105172D01*
X52396205Y-107105160D01*
X52366263Y-106877731D01*
X52306887Y-106656138D01*
X52219103Y-106444209D01*
X52219099Y-106444199D01*
X52104400Y-106245535D01*
X52047824Y-106171803D01*
X52047823Y-106171803D01*
X51362052Y-106857574D01*
X51355157Y-106840927D01*
X51267607Y-106709899D01*
X51156176Y-106598468D01*
X51025148Y-106510918D01*
X51008498Y-106504021D01*
X51694270Y-105818250D01*
X51694270Y-105818249D01*
X51620537Y-105761674D01*
X51620530Y-105761668D01*
X51421875Y-105646975D01*
X51421865Y-105646971D01*
X51209936Y-105559187D01*
X50988343Y-105499811D01*
X50760916Y-105469870D01*
X50760900Y-105469869D01*
X50531512Y-105469869D01*
X50531495Y-105469870D01*
X50304068Y-105499811D01*
X50082475Y-105559187D01*
X49870546Y-105646971D01*
X49870536Y-105646975D01*
X49671879Y-105761670D01*
X49671865Y-105761679D01*
X49598140Y-105818249D01*
X50283912Y-106504022D01*
X50267264Y-106510918D01*
X50136236Y-106598468D01*
X50024805Y-106709899D01*
X49937255Y-106840927D01*
X49930359Y-106857575D01*
X49244586Y-106171803D01*
X49188016Y-106245528D01*
X49188007Y-106245542D01*
X49073312Y-106444199D01*
X49073308Y-106444209D01*
X48985524Y-106656138D01*
X48926148Y-106877731D01*
X48896207Y-107105158D01*
X48896206Y-107105174D01*
X48286622Y-107105174D01*
X48250990Y-106880208D01*
X48218255Y-106779461D01*
X48180437Y-106663070D01*
X48180435Y-106663067D01*
X48180435Y-106663065D01*
X48102912Y-106510918D01*
X48076785Y-106459641D01*
X47942585Y-106274932D01*
X47781143Y-106113490D01*
X47596434Y-105979290D01*
X47567740Y-105964670D01*
X47393009Y-105875639D01*
X47175866Y-105805084D01*
X46950368Y-105769369D01*
X46950363Y-105769369D01*
X46722049Y-105769369D01*
X46722044Y-105769369D01*
X46496545Y-105805084D01*
X46279402Y-105875639D01*
X46075977Y-105979290D01*
X45891267Y-106113491D01*
X45729828Y-106274930D01*
X45595627Y-106459640D01*
X45491976Y-106663065D01*
X45421421Y-106880208D01*
X45385706Y-107105706D01*
X35586706Y-107105706D01*
X35550990Y-106880208D01*
X35518255Y-106779461D01*
X35480437Y-106663070D01*
X35480435Y-106663067D01*
X35480435Y-106663065D01*
X35402912Y-106510918D01*
X35376785Y-106459641D01*
X35242585Y-106274932D01*
X35081143Y-106113490D01*
X34896434Y-105979290D01*
X34891327Y-105976688D01*
X34693009Y-105875639D01*
X34475866Y-105805084D01*
X34250368Y-105769369D01*
X34250363Y-105769369D01*
X34022049Y-105769369D01*
X34022044Y-105769369D01*
X33796545Y-105805084D01*
X33579402Y-105875639D01*
X33375977Y-105979290D01*
X33191267Y-106113491D01*
X33029828Y-106274930D01*
X32895627Y-106459640D01*
X32791976Y-106663065D01*
X32721421Y-106880208D01*
X32685706Y-107105706D01*
X30861706Y-107105706D01*
X30861706Y-102025706D01*
X32685706Y-102025706D01*
X32685706Y-102254031D01*
X32721421Y-102479529D01*
X32791976Y-102696672D01*
X32893417Y-102895759D01*
X32895627Y-102900097D01*
X33029827Y-103084806D01*
X33191269Y-103246248D01*
X33375978Y-103380448D01*
X33472090Y-103429419D01*
X33579402Y-103484098D01*
X33579404Y-103484098D01*
X33579407Y-103484100D01*
X33695798Y-103521918D01*
X33796545Y-103554653D01*
X34022044Y-103590369D01*
X34022049Y-103590369D01*
X34250368Y-103590369D01*
X34475866Y-103554653D01*
X34693005Y-103484100D01*
X34896434Y-103380448D01*
X35081143Y-103246248D01*
X35242585Y-103084806D01*
X35376785Y-102900097D01*
X35480437Y-102696668D01*
X35550990Y-102479529D01*
X35582534Y-102280369D01*
X35586706Y-102254031D01*
X35586706Y-102025706D01*
X45385706Y-102025706D01*
X45385706Y-102254031D01*
X45421421Y-102479529D01*
X45491976Y-102696672D01*
X45593417Y-102895759D01*
X45595627Y-102900097D01*
X45729827Y-103084806D01*
X45891269Y-103246248D01*
X46075978Y-103380448D01*
X46172090Y-103429419D01*
X46279402Y-103484098D01*
X46279404Y-103484098D01*
X46279407Y-103484100D01*
X46395798Y-103521918D01*
X46496545Y-103554653D01*
X46722044Y-103590369D01*
X46722049Y-103590369D01*
X46950368Y-103590369D01*
X47175866Y-103554653D01*
X47393005Y-103484100D01*
X47596434Y-103380448D01*
X47781143Y-103246248D01*
X47942585Y-103084806D01*
X48076785Y-102900097D01*
X48180437Y-102696668D01*
X48250990Y-102479529D01*
X48282534Y-102280369D01*
X48286706Y-102254031D01*
X48286706Y-102025706D01*
X49195706Y-102025706D01*
X49195706Y-102254031D01*
X49231421Y-102479529D01*
X49301976Y-102696672D01*
X49403417Y-102895759D01*
X49405627Y-102900097D01*
X49539827Y-103084806D01*
X49701269Y-103246248D01*
X49885978Y-103380448D01*
X49982090Y-103429419D01*
X50089402Y-103484098D01*
X50089404Y-103484098D01*
X50089407Y-103484100D01*
X50205798Y-103521918D01*
X50306545Y-103554653D01*
X50532044Y-103590369D01*
X50532049Y-103590369D01*
X50760368Y-103590369D01*
X50985866Y-103554653D01*
X51203005Y-103484100D01*
X51406434Y-103380448D01*
X51591143Y-103246248D01*
X51752585Y-103084806D01*
X51886785Y-102900097D01*
X51990437Y-102696668D01*
X52060990Y-102479529D01*
X52092534Y-102280369D01*
X52096706Y-102254031D01*
X52096706Y-102025706D01*
X53005706Y-102025706D01*
X53005706Y-102254031D01*
X53041421Y-102479529D01*
X53111976Y-102696672D01*
X53213417Y-102895759D01*
X53215627Y-102900097D01*
X53349827Y-103084806D01*
X53511269Y-103246248D01*
X53695978Y-103380448D01*
X53792090Y-103429419D01*
X53899402Y-103484098D01*
X53899404Y-103484098D01*
X53899407Y-103484100D01*
X54015798Y-103521918D01*
X54116545Y-103554653D01*
X54342044Y-103590369D01*
X54342049Y-103590369D01*
X54570368Y-103590369D01*
X54795866Y-103554653D01*
X55013005Y-103484100D01*
X55216434Y-103380448D01*
X55401143Y-103246248D01*
X55562585Y-103084806D01*
X55696785Y-102900097D01*
X55766141Y-102763977D01*
X72060706Y-102763977D01*
X72060706Y-102895760D01*
X72094814Y-103023056D01*
X72127760Y-103080119D01*
X72160706Y-103137183D01*
X72253892Y-103230369D01*
X72368020Y-103296261D01*
X72495314Y-103330369D01*
X72495316Y-103330369D01*
X72627096Y-103330369D01*
X72627098Y-103330369D01*
X72754392Y-103296261D01*
X72868520Y-103230369D01*
X72961706Y-103137183D01*
X73027598Y-103023055D01*
X73061706Y-102895761D01*
X73061706Y-102763977D01*
X73027598Y-102636683D01*
X72961706Y-102522555D01*
X72868520Y-102429369D01*
X72811456Y-102396423D01*
X72754393Y-102363477D01*
X72690745Y-102346423D01*
X72627098Y-102329369D01*
X72495314Y-102329369D01*
X72368018Y-102363477D01*
X72253892Y-102429369D01*
X72253889Y-102429371D01*
X72160708Y-102522552D01*
X72160706Y-102522555D01*
X72094814Y-102636681D01*
X72060706Y-102763977D01*
X55766141Y-102763977D01*
X55800437Y-102696668D01*
X55870990Y-102479529D01*
X55902534Y-102280369D01*
X55906706Y-102254031D01*
X55906706Y-102025706D01*
X55885927Y-101894522D01*
X55870990Y-101800209D01*
X55859217Y-101763977D01*
X97035706Y-101763977D01*
X97035706Y-101895760D01*
X97069814Y-102023056D01*
X97102760Y-102080119D01*
X97135706Y-102137183D01*
X97228892Y-102230369D01*
X97343020Y-102296261D01*
X97470314Y-102330369D01*
X97470316Y-102330369D01*
X97602096Y-102330369D01*
X97602098Y-102330369D01*
X97729392Y-102296261D01*
X97843520Y-102230369D01*
X97936706Y-102137183D01*
X98002598Y-102023055D01*
X98036706Y-101895761D01*
X98036706Y-101763977D01*
X98023309Y-101713977D01*
X118060706Y-101713977D01*
X118060706Y-101845760D01*
X118094814Y-101973056D01*
X118123682Y-102023055D01*
X118160706Y-102087183D01*
X118253892Y-102180369D01*
X118368020Y-102246261D01*
X118495314Y-102280369D01*
X118495316Y-102280369D01*
X118627096Y-102280369D01*
X118627098Y-102280369D01*
X118754392Y-102246261D01*
X118868520Y-102180369D01*
X118961706Y-102087183D01*
X119027598Y-101973055D01*
X119061706Y-101845761D01*
X119061706Y-101713977D01*
X119027598Y-101586683D01*
X118961706Y-101472555D01*
X118868520Y-101379369D01*
X118781918Y-101329369D01*
X118754393Y-101313477D01*
X118690745Y-101296423D01*
X118627098Y-101279369D01*
X118495314Y-101279369D01*
X118368018Y-101313477D01*
X118253892Y-101379369D01*
X118253889Y-101379371D01*
X118160708Y-101472552D01*
X118160706Y-101472555D01*
X118094814Y-101586681D01*
X118060706Y-101713977D01*
X98023309Y-101713977D01*
X98002598Y-101636683D01*
X97936706Y-101522555D01*
X97843520Y-101429369D01*
X97757389Y-101379641D01*
X97729393Y-101363477D01*
X97665745Y-101346423D01*
X97602098Y-101329369D01*
X97470314Y-101329369D01*
X97343018Y-101363477D01*
X97228892Y-101429369D01*
X97228889Y-101429371D01*
X97135708Y-101522552D01*
X97135706Y-101522555D01*
X97069814Y-101636681D01*
X97035706Y-101763977D01*
X55859217Y-101763977D01*
X55800437Y-101583070D01*
X55800435Y-101583067D01*
X55800435Y-101583065D01*
X55744125Y-101472552D01*
X55696785Y-101379641D01*
X55562585Y-101194932D01*
X55401143Y-101033490D01*
X55216434Y-100899290D01*
X55200415Y-100891128D01*
X55013009Y-100795639D01*
X54795866Y-100725084D01*
X54570368Y-100689369D01*
X54570363Y-100689369D01*
X54342049Y-100689369D01*
X54342044Y-100689369D01*
X54116545Y-100725084D01*
X53899402Y-100795639D01*
X53695977Y-100899290D01*
X53511267Y-101033491D01*
X53349828Y-101194930D01*
X53215627Y-101379640D01*
X53111976Y-101583065D01*
X53041421Y-101800208D01*
X53005706Y-102025706D01*
X52096706Y-102025706D01*
X52060990Y-101800208D01*
X51990435Y-101583065D01*
X51934125Y-101472552D01*
X51886785Y-101379641D01*
X51752585Y-101194932D01*
X51591143Y-101033490D01*
X51406434Y-100899290D01*
X51390415Y-100891128D01*
X51203009Y-100795639D01*
X50985866Y-100725084D01*
X50760368Y-100689369D01*
X50760363Y-100689369D01*
X50532049Y-100689369D01*
X50532044Y-100689369D01*
X50306545Y-100725084D01*
X50089402Y-100795639D01*
X49885977Y-100899290D01*
X49701267Y-101033491D01*
X49539828Y-101194930D01*
X49405627Y-101379640D01*
X49301976Y-101583065D01*
X49231421Y-101800208D01*
X49195706Y-102025706D01*
X48286706Y-102025706D01*
X48250990Y-101800208D01*
X48180435Y-101583065D01*
X48124125Y-101472552D01*
X48076785Y-101379641D01*
X47942585Y-101194932D01*
X47781143Y-101033490D01*
X47596434Y-100899290D01*
X47580415Y-100891128D01*
X47393009Y-100795639D01*
X47175866Y-100725084D01*
X46950368Y-100689369D01*
X46950363Y-100689369D01*
X46722049Y-100689369D01*
X46722044Y-100689369D01*
X46496545Y-100725084D01*
X46279402Y-100795639D01*
X46075977Y-100899290D01*
X45891267Y-101033491D01*
X45729828Y-101194930D01*
X45595627Y-101379640D01*
X45491976Y-101583065D01*
X45421421Y-101800208D01*
X45385706Y-102025706D01*
X35586706Y-102025706D01*
X35550990Y-101800208D01*
X35480435Y-101583065D01*
X35424125Y-101472552D01*
X35376785Y-101379641D01*
X35242585Y-101194932D01*
X35081143Y-101033490D01*
X34896434Y-100899290D01*
X34880415Y-100891128D01*
X34693009Y-100795639D01*
X34475866Y-100725084D01*
X34250368Y-100689369D01*
X34250363Y-100689369D01*
X34022049Y-100689369D01*
X34022044Y-100689369D01*
X33796545Y-100725084D01*
X33579402Y-100795639D01*
X33375977Y-100899290D01*
X33191267Y-101033491D01*
X33029828Y-101194930D01*
X32895627Y-101379640D01*
X32791976Y-101583065D01*
X32721421Y-101800208D01*
X32685706Y-102025706D01*
X30861706Y-102025706D01*
X30861706Y-100573851D01*
X70860706Y-100573851D01*
X70860706Y-100685886D01*
X70889703Y-100794105D01*
X70889704Y-100794108D01*
X70890588Y-100795639D01*
X70945721Y-100891132D01*
X71024943Y-100970354D01*
X71121969Y-101026372D01*
X71230188Y-101055369D01*
X71230190Y-101055369D01*
X71342222Y-101055369D01*
X71342224Y-101055369D01*
X71450443Y-101026372D01*
X71547469Y-100970354D01*
X71626691Y-100891132D01*
X71682709Y-100794106D01*
X71711706Y-100685887D01*
X71711706Y-100573851D01*
X71682709Y-100465632D01*
X71626691Y-100368606D01*
X71547469Y-100289384D01*
X71450443Y-100233366D01*
X71342224Y-100204369D01*
X71230188Y-100204369D01*
X71121969Y-100233366D01*
X71121966Y-100233367D01*
X71024946Y-100289382D01*
X71024940Y-100289386D01*
X70945723Y-100368603D01*
X70945719Y-100368609D01*
X70889704Y-100465629D01*
X70889703Y-100465632D01*
X70860706Y-100573851D01*
X30861706Y-100573851D01*
X30861706Y-98978977D01*
X79485706Y-98978977D01*
X79485706Y-99110760D01*
X79519814Y-99238056D01*
X79552760Y-99295119D01*
X79585706Y-99352183D01*
X79678892Y-99445369D01*
X79793020Y-99511261D01*
X79920314Y-99545369D01*
X79920316Y-99545369D01*
X80052096Y-99545369D01*
X80052098Y-99545369D01*
X80179392Y-99511261D01*
X80293520Y-99445369D01*
X80386706Y-99352183D01*
X80452598Y-99238055D01*
X80486706Y-99110761D01*
X80486706Y-98978977D01*
X80452598Y-98851683D01*
X80386706Y-98737555D01*
X80293520Y-98644369D01*
X80236456Y-98611423D01*
X80179393Y-98578477D01*
X80115745Y-98561423D01*
X80052098Y-98544369D01*
X79920314Y-98544369D01*
X79793018Y-98578477D01*
X79678892Y-98644369D01*
X79678889Y-98644371D01*
X79585708Y-98737552D01*
X79585706Y-98737555D01*
X79519814Y-98851681D01*
X79485706Y-98978977D01*
X30861706Y-98978977D01*
X30861706Y-97513977D01*
X68060706Y-97513977D01*
X68060706Y-97645761D01*
X68077760Y-97709408D01*
X68094814Y-97773056D01*
X68100070Y-97782159D01*
X68160706Y-97887183D01*
X68253892Y-97980369D01*
X68368020Y-98046261D01*
X68495314Y-98080369D01*
X68495316Y-98080369D01*
X68627096Y-98080369D01*
X68627098Y-98080369D01*
X68754392Y-98046261D01*
X68868520Y-97980369D01*
X68961706Y-97887183D01*
X69027598Y-97773055D01*
X69061706Y-97645761D01*
X69061706Y-97513977D01*
X69027598Y-97386683D01*
X68961706Y-97272555D01*
X68898128Y-97208977D01*
X103935706Y-97208977D01*
X103935706Y-97340760D01*
X103969814Y-97468056D01*
X103996327Y-97513977D01*
X104035706Y-97582183D01*
X104128892Y-97675369D01*
X104243020Y-97741261D01*
X104370314Y-97775369D01*
X104370316Y-97775369D01*
X104502096Y-97775369D01*
X104502098Y-97775369D01*
X104629392Y-97741261D01*
X104743520Y-97675369D01*
X104836706Y-97582183D01*
X104902598Y-97468055D01*
X104936706Y-97340761D01*
X104936706Y-97208977D01*
X104902598Y-97081683D01*
X104836706Y-96967555D01*
X104743520Y-96874369D01*
X104686456Y-96841423D01*
X104629393Y-96808477D01*
X104599944Y-96800586D01*
X104502098Y-96774369D01*
X104370314Y-96774369D01*
X104243018Y-96808477D01*
X104128892Y-96874369D01*
X104128889Y-96874371D01*
X104035708Y-96967552D01*
X104035706Y-96967555D01*
X103969814Y-97081681D01*
X103935706Y-97208977D01*
X68898128Y-97208977D01*
X68868520Y-97179369D01*
X68805295Y-97142866D01*
X68754393Y-97113477D01*
X68690745Y-97096423D01*
X68627098Y-97079369D01*
X68495314Y-97079369D01*
X68368018Y-97113477D01*
X68253892Y-97179369D01*
X68253889Y-97179371D01*
X68160708Y-97272552D01*
X68160706Y-97272555D01*
X68094814Y-97386681D01*
X68073010Y-97468056D01*
X68060706Y-97513977D01*
X30861706Y-97513977D01*
X30861706Y-96676477D01*
X125498206Y-96676477D01*
X125498206Y-96808260D01*
X125532314Y-96935556D01*
X125550789Y-96967555D01*
X125598206Y-97049683D01*
X125691392Y-97142869D01*
X125805520Y-97208761D01*
X125932814Y-97242869D01*
X125932816Y-97242869D01*
X126064596Y-97242869D01*
X126064598Y-97242869D01*
X126191892Y-97208761D01*
X126306020Y-97142869D01*
X126399206Y-97049683D01*
X126465098Y-96935555D01*
X126499206Y-96808261D01*
X126499206Y-96676477D01*
X126465098Y-96549183D01*
X126399206Y-96435055D01*
X126306020Y-96341869D01*
X126248956Y-96308923D01*
X126191893Y-96275977D01*
X126128245Y-96258923D01*
X126064598Y-96241869D01*
X125932814Y-96241869D01*
X125805518Y-96275977D01*
X125691392Y-96341869D01*
X125691389Y-96341871D01*
X125598208Y-96435052D01*
X125598206Y-96435055D01*
X125532314Y-96549181D01*
X125498206Y-96676477D01*
X30861706Y-96676477D01*
X30861706Y-96023851D01*
X97085706Y-96023851D01*
X97085706Y-96135887D01*
X97114703Y-96244106D01*
X97170721Y-96341132D01*
X97249943Y-96420354D01*
X97346969Y-96476372D01*
X97455188Y-96505369D01*
X97455190Y-96505369D01*
X97567222Y-96505369D01*
X97567224Y-96505369D01*
X97675443Y-96476372D01*
X97772469Y-96420354D01*
X97851691Y-96341132D01*
X97907709Y-96244106D01*
X97936706Y-96135887D01*
X97936706Y-96023851D01*
X97907709Y-95915632D01*
X97851691Y-95818606D01*
X97772469Y-95739384D01*
X97675443Y-95683366D01*
X97567224Y-95654369D01*
X97455188Y-95654369D01*
X97346969Y-95683366D01*
X97346966Y-95683367D01*
X97249946Y-95739382D01*
X97249940Y-95739386D01*
X97170723Y-95818603D01*
X97170719Y-95818609D01*
X97114704Y-95915629D01*
X97114704Y-95915630D01*
X97114703Y-95915632D01*
X97085706Y-96023851D01*
X30861706Y-96023851D01*
X30861706Y-93509869D01*
X35319703Y-93509869D01*
X38331244Y-93509869D01*
X38301206Y-93660885D01*
X38301206Y-93858853D01*
X38331244Y-94009869D01*
X35319704Y-94009869D01*
X35344702Y-94199753D01*
X35344705Y-94199766D01*
X35421041Y-94484659D01*
X35421044Y-94484669D01*
X35533910Y-94757150D01*
X35533915Y-94757161D01*
X35681380Y-95012576D01*
X35681391Y-95012592D01*
X35860935Y-95246578D01*
X35860941Y-95246585D01*
X36069489Y-95455133D01*
X36069496Y-95455139D01*
X36303482Y-95634683D01*
X36303498Y-95634694D01*
X36558913Y-95782159D01*
X36558924Y-95782164D01*
X36831405Y-95895030D01*
X36831415Y-95895033D01*
X37116308Y-95971369D01*
X37116321Y-95971372D01*
X37408722Y-96009867D01*
X37408740Y-96009869D01*
X39056206Y-96009869D01*
X39056206Y-94734830D01*
X39207222Y-94764869D01*
X39405190Y-94764869D01*
X39556206Y-94734830D01*
X39556206Y-96009869D01*
X41203672Y-96009869D01*
X41203689Y-96009867D01*
X41496090Y-95971372D01*
X41496103Y-95971369D01*
X41777559Y-95895954D01*
X41777580Y-95895949D01*
X41780999Y-95895032D01*
X41781006Y-95895030D01*
X42053487Y-95782164D01*
X42053498Y-95782159D01*
X42308913Y-95634694D01*
X42308929Y-95634683D01*
X42471590Y-95509869D01*
X138849703Y-95509869D01*
X141861244Y-95509869D01*
X141831206Y-95660885D01*
X141831206Y-95858853D01*
X141861244Y-96009869D01*
X138849704Y-96009869D01*
X138874702Y-96199753D01*
X138874705Y-96199766D01*
X138951041Y-96484659D01*
X138951044Y-96484669D01*
X139063910Y-96757150D01*
X139063915Y-96757161D01*
X139211380Y-97012576D01*
X139211391Y-97012592D01*
X139390935Y-97246578D01*
X139390941Y-97246585D01*
X139599489Y-97455133D01*
X139599496Y-97455139D01*
X139833482Y-97634683D01*
X139833498Y-97634694D01*
X140088913Y-97782159D01*
X140088924Y-97782164D01*
X140361405Y-97895030D01*
X140361415Y-97895033D01*
X140646308Y-97971369D01*
X140646321Y-97971372D01*
X140938722Y-98009867D01*
X140938740Y-98009869D01*
X142586206Y-98009869D01*
X142586206Y-96734830D01*
X142737222Y-96764869D01*
X142935190Y-96764869D01*
X143086206Y-96734830D01*
X143086206Y-98009869D01*
X144733672Y-98009869D01*
X144733689Y-98009867D01*
X145026090Y-97971372D01*
X145026103Y-97971369D01*
X145310996Y-97895033D01*
X145311006Y-97895030D01*
X145583487Y-97782164D01*
X145583498Y-97782159D01*
X145838913Y-97634694D01*
X145838929Y-97634683D01*
X146072915Y-97455139D01*
X146072922Y-97455133D01*
X146281470Y-97246585D01*
X146281476Y-97246578D01*
X146461020Y-97012592D01*
X146461031Y-97012576D01*
X146608496Y-96757161D01*
X146608501Y-96757150D01*
X146721367Y-96484669D01*
X146721370Y-96484659D01*
X146797706Y-96199766D01*
X146797709Y-96199753D01*
X146822708Y-96009869D01*
X143811168Y-96009869D01*
X143841206Y-95858853D01*
X143841206Y-95660885D01*
X143811168Y-95509869D01*
X146822708Y-95509869D01*
X146797709Y-95319984D01*
X146797706Y-95319971D01*
X146721370Y-95035078D01*
X146721367Y-95035068D01*
X146608501Y-94762587D01*
X146608496Y-94762576D01*
X146461031Y-94507161D01*
X146461020Y-94507145D01*
X146281476Y-94273159D01*
X146281470Y-94273152D01*
X146072922Y-94064604D01*
X146072915Y-94064598D01*
X145838929Y-93885054D01*
X145838913Y-93885043D01*
X145583498Y-93737578D01*
X145583487Y-93737573D01*
X145311006Y-93624707D01*
X145310996Y-93624704D01*
X145026103Y-93548368D01*
X145026090Y-93548365D01*
X144733689Y-93509870D01*
X144733672Y-93509869D01*
X143086206Y-93509869D01*
X143086206Y-94784907D01*
X142935190Y-94754869D01*
X142737222Y-94754869D01*
X142586206Y-94784907D01*
X142586206Y-93509869D01*
X140938740Y-93509869D01*
X140938722Y-93509870D01*
X140646321Y-93548365D01*
X140646308Y-93548368D01*
X140361415Y-93624704D01*
X140361405Y-93624707D01*
X140088924Y-93737573D01*
X140088913Y-93737578D01*
X139833498Y-93885043D01*
X139833482Y-93885054D01*
X139599496Y-94064598D01*
X139599489Y-94064604D01*
X139390941Y-94273152D01*
X139390935Y-94273159D01*
X139211391Y-94507145D01*
X139211380Y-94507161D01*
X139063915Y-94762576D01*
X139063910Y-94762587D01*
X138951044Y-95035068D01*
X138951041Y-95035078D01*
X138874705Y-95319971D01*
X138874702Y-95319984D01*
X138849703Y-95509869D01*
X42471590Y-95509869D01*
X42542915Y-95455139D01*
X42542922Y-95455133D01*
X42751470Y-95246585D01*
X42751476Y-95246578D01*
X42931020Y-95012592D01*
X42931031Y-95012576D01*
X43078496Y-94757161D01*
X43078501Y-94757150D01*
X43191367Y-94484669D01*
X43191370Y-94484659D01*
X43267706Y-94199766D01*
X43267709Y-94199753D01*
X43292708Y-94009869D01*
X40281168Y-94009869D01*
X40311206Y-93858853D01*
X40311206Y-93660885D01*
X40281168Y-93509869D01*
X43292708Y-93509869D01*
X43292708Y-93509868D01*
X43284694Y-93448991D01*
X43267708Y-93319982D01*
X43267706Y-93319971D01*
X43192428Y-93039025D01*
X43192428Y-93039024D01*
X43192427Y-93039022D01*
X43191369Y-93035074D01*
X43191367Y-93035068D01*
X43164361Y-92969869D01*
X136029597Y-92969869D01*
X137386702Y-92969869D01*
X137341532Y-93048105D01*
X137311206Y-93161284D01*
X137311206Y-93278454D01*
X137341532Y-93391633D01*
X137386702Y-93469869D01*
X136029597Y-93469869D01*
X136038215Y-93524282D01*
X136101450Y-93718898D01*
X136194346Y-93901218D01*
X136314623Y-94066763D01*
X136314623Y-94066764D01*
X136459310Y-94211451D01*
X136624856Y-94331728D01*
X136807174Y-94424624D01*
X137001788Y-94487859D01*
X137203889Y-94519869D01*
X137506206Y-94519869D01*
X137506206Y-93589373D01*
X137584442Y-93634543D01*
X137697621Y-93664869D01*
X137814791Y-93664869D01*
X137927970Y-93634543D01*
X138006206Y-93589373D01*
X138006206Y-94519869D01*
X138308523Y-94519869D01*
X138510623Y-94487859D01*
X138705237Y-94424624D01*
X138887555Y-94331728D01*
X139053100Y-94211451D01*
X139053101Y-94211451D01*
X139197788Y-94066764D01*
X139197788Y-94066763D01*
X139318065Y-93901218D01*
X139410961Y-93718898D01*
X139474196Y-93524282D01*
X139482815Y-93469869D01*
X138125710Y-93469869D01*
X138170880Y-93391633D01*
X138201206Y-93278454D01*
X138201206Y-93161284D01*
X138170880Y-93048105D01*
X138125710Y-92969869D01*
X139482815Y-92969869D01*
X139474196Y-92915455D01*
X139410961Y-92720839D01*
X139318065Y-92538519D01*
X139197788Y-92372974D01*
X139197788Y-92372973D01*
X139053101Y-92228286D01*
X138887555Y-92108009D01*
X138705237Y-92015113D01*
X138510623Y-91951878D01*
X138321937Y-91921993D01*
X138258802Y-91892063D01*
X138221871Y-91832752D01*
X138222869Y-91762889D01*
X138261479Y-91704657D01*
X138317144Y-91677903D01*
X138498041Y-91641920D01*
X138680120Y-91566501D01*
X138843988Y-91457008D01*
X138983345Y-91317651D01*
X139092838Y-91153783D01*
X139168257Y-90971704D01*
X139206706Y-90778410D01*
X139206706Y-90581328D01*
X139206706Y-90581325D01*
X139168258Y-90388039D01*
X139168257Y-90388038D01*
X139168257Y-90388034D01*
X139102951Y-90230369D01*
X139092841Y-90205961D01*
X139092834Y-90205948D01*
X138983345Y-90042087D01*
X138983342Y-90042083D01*
X138843991Y-89902732D01*
X138843987Y-89902729D01*
X138680126Y-89793240D01*
X138680113Y-89793233D01*
X138498045Y-89717819D01*
X138498035Y-89717816D01*
X138304749Y-89679369D01*
X138304747Y-89679369D01*
X137207665Y-89679369D01*
X137207663Y-89679369D01*
X137014376Y-89717816D01*
X137014366Y-89717819D01*
X136832298Y-89793233D01*
X136832285Y-89793240D01*
X136668424Y-89902729D01*
X136668420Y-89902732D01*
X136529069Y-90042083D01*
X136529066Y-90042087D01*
X136419577Y-90205948D01*
X136419570Y-90205961D01*
X136344156Y-90388029D01*
X136344153Y-90388039D01*
X136305706Y-90581325D01*
X136305706Y-90581328D01*
X136305706Y-90778410D01*
X136305706Y-90778412D01*
X136305705Y-90778412D01*
X136344153Y-90971698D01*
X136344156Y-90971708D01*
X136419570Y-91153776D01*
X136419577Y-91153789D01*
X136529066Y-91317650D01*
X136529069Y-91317654D01*
X136668420Y-91457005D01*
X136668424Y-91457008D01*
X136832285Y-91566497D01*
X136832298Y-91566504D01*
X136999806Y-91635887D01*
X137014371Y-91641920D01*
X137146880Y-91668278D01*
X137195267Y-91677903D01*
X137257178Y-91710288D01*
X137291752Y-91771003D01*
X137288013Y-91840773D01*
X137247146Y-91897445D01*
X137190475Y-91921993D01*
X137001787Y-91951879D01*
X136807174Y-92015113D01*
X136624856Y-92108009D01*
X136459311Y-92228286D01*
X136459310Y-92228286D01*
X136314623Y-92372973D01*
X136314623Y-92372974D01*
X136194346Y-92538519D01*
X136101450Y-92720839D01*
X136038215Y-92915455D01*
X136029597Y-92969869D01*
X43164361Y-92969869D01*
X43078501Y-92762587D01*
X43078496Y-92762576D01*
X42931031Y-92507161D01*
X42931020Y-92507145D01*
X42751476Y-92273159D01*
X42751470Y-92273152D01*
X42542922Y-92064604D01*
X42542915Y-92064598D01*
X42308929Y-91885054D01*
X42308913Y-91885043D01*
X42053498Y-91737578D01*
X42053487Y-91737573D01*
X41794471Y-91630285D01*
X41794470Y-91630285D01*
X41781000Y-91624705D01*
X41780996Y-91624704D01*
X41496103Y-91548368D01*
X41496090Y-91548365D01*
X41309886Y-91523851D01*
X76310706Y-91523851D01*
X76310706Y-91635887D01*
X76339703Y-91744106D01*
X76395721Y-91841132D01*
X76474943Y-91920354D01*
X76571969Y-91976372D01*
X76680188Y-92005369D01*
X76680190Y-92005369D01*
X76792222Y-92005369D01*
X76792224Y-92005369D01*
X76900443Y-91976372D01*
X76997469Y-91920354D01*
X77076691Y-91841132D01*
X77132709Y-91744106D01*
X77161706Y-91635887D01*
X77161706Y-91588977D01*
X130410706Y-91588977D01*
X130410706Y-91720760D01*
X130444814Y-91848056D01*
X130466169Y-91885043D01*
X130510706Y-91962183D01*
X130603892Y-92055369D01*
X130718020Y-92121261D01*
X130845314Y-92155369D01*
X130845316Y-92155369D01*
X130977096Y-92155369D01*
X130977098Y-92155369D01*
X131104392Y-92121261D01*
X131218520Y-92055369D01*
X131311706Y-91962183D01*
X131377598Y-91848055D01*
X131411706Y-91720761D01*
X131411706Y-91588977D01*
X131377598Y-91461683D01*
X131311706Y-91347555D01*
X131218520Y-91254369D01*
X131161456Y-91221423D01*
X131104393Y-91188477D01*
X131040745Y-91171423D01*
X130977098Y-91154369D01*
X130845314Y-91154369D01*
X130718018Y-91188477D01*
X130603892Y-91254369D01*
X130603889Y-91254371D01*
X130510708Y-91347552D01*
X130510706Y-91347555D01*
X130444814Y-91461681D01*
X130410706Y-91588977D01*
X77161706Y-91588977D01*
X77161706Y-91523851D01*
X77132709Y-91415632D01*
X77076691Y-91318606D01*
X76997469Y-91239384D01*
X76900443Y-91183366D01*
X76792224Y-91154369D01*
X76680188Y-91154369D01*
X76571969Y-91183366D01*
X76571966Y-91183367D01*
X76474946Y-91239382D01*
X76474940Y-91239386D01*
X76395723Y-91318603D01*
X76395719Y-91318609D01*
X76339704Y-91415629D01*
X76339703Y-91415632D01*
X76310706Y-91523851D01*
X41309886Y-91523851D01*
X41203689Y-91509870D01*
X41203672Y-91509869D01*
X39556206Y-91509869D01*
X39556206Y-92784907D01*
X39405190Y-92754869D01*
X39207222Y-92754869D01*
X39056206Y-92784907D01*
X39056206Y-91509869D01*
X37408740Y-91509869D01*
X37408722Y-91509870D01*
X37116321Y-91548365D01*
X37116308Y-91548368D01*
X36831415Y-91624704D01*
X36831405Y-91624707D01*
X36558924Y-91737573D01*
X36558913Y-91737578D01*
X36303498Y-91885043D01*
X36303482Y-91885054D01*
X36069496Y-92064598D01*
X36069489Y-92064604D01*
X35860941Y-92273152D01*
X35860935Y-92273159D01*
X35681391Y-92507145D01*
X35681380Y-92507161D01*
X35533915Y-92762576D01*
X35533910Y-92762587D01*
X35421044Y-93035068D01*
X35421041Y-93035078D01*
X35344705Y-93319971D01*
X35344702Y-93319984D01*
X35319703Y-93509869D01*
X30861706Y-93509869D01*
X30861706Y-90258851D01*
X78760706Y-90258851D01*
X78760706Y-90370887D01*
X78789703Y-90479106D01*
X78845721Y-90576132D01*
X78924943Y-90655354D01*
X79021969Y-90711372D01*
X79130188Y-90740369D01*
X79130190Y-90740369D01*
X79242222Y-90740369D01*
X79242224Y-90740369D01*
X79350443Y-90711372D01*
X79447469Y-90655354D01*
X79526691Y-90576132D01*
X79582709Y-90479106D01*
X79611706Y-90370887D01*
X79611706Y-90258851D01*
X79582709Y-90150632D01*
X79526691Y-90053606D01*
X79447469Y-89974384D01*
X79382785Y-89937038D01*
X79350445Y-89918367D01*
X79350444Y-89918366D01*
X79350443Y-89918366D01*
X79242224Y-89889369D01*
X79130188Y-89889369D01*
X79021969Y-89918366D01*
X79021966Y-89918367D01*
X78924946Y-89974382D01*
X78924940Y-89974386D01*
X78845723Y-90053603D01*
X78845719Y-90053609D01*
X78789704Y-90150629D01*
X78789703Y-90150632D01*
X78760706Y-90258851D01*
X30861706Y-90258851D01*
X30861706Y-85889869D01*
X42659597Y-85889869D01*
X44016702Y-85889869D01*
X43971532Y-85968105D01*
X43941206Y-86081284D01*
X43941206Y-86198454D01*
X43971532Y-86311633D01*
X44016702Y-86389869D01*
X42659597Y-86389869D01*
X42668215Y-86444282D01*
X42731450Y-86638898D01*
X42824346Y-86821218D01*
X42944623Y-86986763D01*
X42944623Y-86986764D01*
X43089310Y-87131451D01*
X43254856Y-87251728D01*
X43437174Y-87344624D01*
X43631788Y-87407859D01*
X43820474Y-87437744D01*
X43883609Y-87467673D01*
X43920540Y-87526985D01*
X43919542Y-87596847D01*
X43880932Y-87655080D01*
X43825268Y-87681834D01*
X43644376Y-87717816D01*
X43644366Y-87717819D01*
X43462298Y-87793233D01*
X43462285Y-87793240D01*
X43298424Y-87902729D01*
X43298420Y-87902732D01*
X43159069Y-88042083D01*
X43159066Y-88042087D01*
X43049577Y-88205948D01*
X43049570Y-88205961D01*
X42974156Y-88388029D01*
X42974153Y-88388039D01*
X42935706Y-88581325D01*
X42935706Y-88581328D01*
X42935706Y-88778410D01*
X42935706Y-88778412D01*
X42935705Y-88778412D01*
X42974153Y-88971698D01*
X42974156Y-88971708D01*
X43049570Y-89153776D01*
X43049577Y-89153789D01*
X43159066Y-89317650D01*
X43159069Y-89317654D01*
X43298420Y-89457005D01*
X43298424Y-89457008D01*
X43462285Y-89566497D01*
X43462298Y-89566504D01*
X43644366Y-89641918D01*
X43644371Y-89641920D01*
X43644375Y-89641920D01*
X43644376Y-89641921D01*
X43837662Y-89680369D01*
X43837665Y-89680369D01*
X44934749Y-89680369D01*
X45017152Y-89663977D01*
X130335706Y-89663977D01*
X130335706Y-89795760D01*
X130369814Y-89923056D01*
X130399448Y-89974382D01*
X130435706Y-90037183D01*
X130528892Y-90130369D01*
X130643020Y-90196261D01*
X130770314Y-90230369D01*
X130770316Y-90230369D01*
X130902096Y-90230369D01*
X130902098Y-90230369D01*
X131029392Y-90196261D01*
X131143520Y-90130369D01*
X131236706Y-90037183D01*
X131302598Y-89923055D01*
X131336706Y-89795761D01*
X131336706Y-89663977D01*
X131302598Y-89536683D01*
X131236706Y-89422555D01*
X131143520Y-89329369D01*
X131086456Y-89296423D01*
X131029393Y-89263477D01*
X130965745Y-89246423D01*
X130902098Y-89229369D01*
X130770314Y-89229369D01*
X130643018Y-89263477D01*
X130528892Y-89329369D01*
X130528889Y-89329371D01*
X130435708Y-89422552D01*
X130435706Y-89422555D01*
X130369814Y-89536681D01*
X130335706Y-89663977D01*
X45017152Y-89663977D01*
X45064788Y-89654501D01*
X45128041Y-89641920D01*
X45310120Y-89566501D01*
X45310127Y-89566495D01*
X45310131Y-89566494D01*
X45330700Y-89552750D01*
X45330704Y-89552748D01*
X45407735Y-89501276D01*
X45473988Y-89457008D01*
X45613345Y-89317651D01*
X45722838Y-89153783D01*
X45798257Y-88971704D01*
X45836706Y-88778410D01*
X45836706Y-88581328D01*
X45836706Y-88581325D01*
X45798258Y-88388039D01*
X45798257Y-88388038D01*
X45798257Y-88388034D01*
X45784727Y-88355369D01*
X45722841Y-88205961D01*
X45722834Y-88205948D01*
X45613345Y-88042087D01*
X45613342Y-88042083D01*
X45473991Y-87902732D01*
X45473987Y-87902729D01*
X45430768Y-87873851D01*
X74060706Y-87873851D01*
X74060706Y-87985887D01*
X74089703Y-88094106D01*
X74145721Y-88191132D01*
X74224943Y-88270354D01*
X74321969Y-88326372D01*
X74430188Y-88355369D01*
X74430190Y-88355369D01*
X74542222Y-88355369D01*
X74542224Y-88355369D01*
X74650443Y-88326372D01*
X74747469Y-88270354D01*
X74826691Y-88191132D01*
X74882709Y-88094106D01*
X74911706Y-87985887D01*
X74911706Y-87873851D01*
X74882709Y-87765632D01*
X74826691Y-87668606D01*
X74747469Y-87589384D01*
X74650443Y-87533366D01*
X74542224Y-87504369D01*
X74430188Y-87504369D01*
X74321969Y-87533366D01*
X74321966Y-87533367D01*
X74224946Y-87589382D01*
X74224940Y-87589386D01*
X74145723Y-87668603D01*
X74145719Y-87668609D01*
X74089704Y-87765629D01*
X74089703Y-87765632D01*
X74060706Y-87873851D01*
X45430768Y-87873851D01*
X45310126Y-87793240D01*
X45310113Y-87793233D01*
X45128045Y-87717819D01*
X45128035Y-87717816D01*
X44947143Y-87681834D01*
X44885232Y-87649449D01*
X44850658Y-87588733D01*
X44854398Y-87518964D01*
X44895265Y-87462292D01*
X44951937Y-87437744D01*
X45140623Y-87407859D01*
X45335237Y-87344624D01*
X45517555Y-87251728D01*
X45683100Y-87131451D01*
X45683101Y-87131451D01*
X45827788Y-86986764D01*
X45827788Y-86986763D01*
X45948065Y-86821218D01*
X46040961Y-86638898D01*
X46104196Y-86444282D01*
X46112815Y-86389869D01*
X44755710Y-86389869D01*
X44800880Y-86311633D01*
X44831206Y-86198454D01*
X44831206Y-86081284D01*
X44800880Y-85968105D01*
X44755710Y-85889869D01*
X46112815Y-85889869D01*
X46104196Y-85835455D01*
X46040961Y-85640839D01*
X45948065Y-85458519D01*
X45827788Y-85292974D01*
X45827788Y-85292973D01*
X45683101Y-85148286D01*
X45574864Y-85069647D01*
X47735706Y-85069647D01*
X47735706Y-85290091D01*
X47736163Y-85292974D01*
X47770191Y-85507821D01*
X47838309Y-85717472D01*
X47838310Y-85717475D01*
X47886153Y-85811369D01*
X47938390Y-85913890D01*
X47938393Y-85913894D01*
X48067958Y-86092227D01*
X48067962Y-86092232D01*
X48223842Y-86248112D01*
X48223847Y-86248116D01*
X48379398Y-86361129D01*
X48402184Y-86377684D01*
X48517971Y-86436681D01*
X48598599Y-86477764D01*
X48598602Y-86477765D01*
X48654596Y-86495958D01*
X48808255Y-86545884D01*
X49025984Y-86580369D01*
X49025985Y-86580369D01*
X49246427Y-86580369D01*
X49246428Y-86580369D01*
X49464157Y-86545884D01*
X49673812Y-86477764D01*
X49870228Y-86377684D01*
X50048571Y-86248111D01*
X50204448Y-86092234D01*
X50334021Y-85913891D01*
X50434101Y-85717475D01*
X50502221Y-85507820D01*
X50536706Y-85290091D01*
X50536706Y-85069647D01*
X70235706Y-85069647D01*
X70235706Y-85290091D01*
X70236163Y-85292974D01*
X70270191Y-85507821D01*
X70338309Y-85717472D01*
X70338310Y-85717475D01*
X70386153Y-85811369D01*
X70438390Y-85913890D01*
X70438393Y-85913894D01*
X70567958Y-86092227D01*
X70567962Y-86092232D01*
X70723842Y-86248112D01*
X70723847Y-86248116D01*
X70879398Y-86361129D01*
X70902184Y-86377684D01*
X71017971Y-86436681D01*
X71098599Y-86477764D01*
X71098602Y-86477765D01*
X71154596Y-86495958D01*
X71308255Y-86545884D01*
X71525984Y-86580369D01*
X71525985Y-86580369D01*
X71746427Y-86580369D01*
X71746428Y-86580369D01*
X71849923Y-86563977D01*
X113385706Y-86563977D01*
X113385706Y-86695760D01*
X113419814Y-86823056D01*
X113427972Y-86837185D01*
X113485706Y-86937183D01*
X113578892Y-87030369D01*
X113693020Y-87096261D01*
X113820314Y-87130369D01*
X113820316Y-87130369D01*
X113952096Y-87130369D01*
X113952098Y-87130369D01*
X114079392Y-87096261D01*
X114193520Y-87030369D01*
X114286706Y-86937183D01*
X114352598Y-86823055D01*
X114386706Y-86695761D01*
X114386706Y-86563977D01*
X114359911Y-86463977D01*
X115285706Y-86463977D01*
X115285706Y-86595761D01*
X115302760Y-86659408D01*
X115319814Y-86723056D01*
X115352760Y-86780119D01*
X115385706Y-86837183D01*
X115478892Y-86930369D01*
X115593020Y-86996261D01*
X115720314Y-87030369D01*
X115720316Y-87030369D01*
X115852096Y-87030369D01*
X115852098Y-87030369D01*
X115979392Y-86996261D01*
X116093520Y-86930369D01*
X116186706Y-86837183D01*
X116252598Y-86723055D01*
X116286706Y-86595761D01*
X116286706Y-86463977D01*
X116252598Y-86336683D01*
X116186706Y-86222555D01*
X116093520Y-86129369D01*
X116036456Y-86096423D01*
X115979393Y-86063477D01*
X115915745Y-86046423D01*
X115852098Y-86029369D01*
X115720314Y-86029369D01*
X115593018Y-86063477D01*
X115478892Y-86129369D01*
X115478889Y-86129371D01*
X115385708Y-86222552D01*
X115385706Y-86222555D01*
X115319814Y-86336681D01*
X115308828Y-86377684D01*
X115285706Y-86463977D01*
X114359911Y-86463977D01*
X114352598Y-86436683D01*
X114286706Y-86322555D01*
X114193520Y-86229369D01*
X114136456Y-86196423D01*
X114079393Y-86163477D01*
X114015745Y-86146423D01*
X113952098Y-86129369D01*
X113820314Y-86129369D01*
X113693018Y-86163477D01*
X113578892Y-86229369D01*
X113578889Y-86229371D01*
X113485708Y-86322552D01*
X113485706Y-86322555D01*
X113419814Y-86436681D01*
X113385706Y-86563977D01*
X71849923Y-86563977D01*
X71964157Y-86545884D01*
X72173812Y-86477764D01*
X72370228Y-86377684D01*
X72548571Y-86248111D01*
X72704448Y-86092234D01*
X72834021Y-85913891D01*
X72846261Y-85889869D01*
X72915460Y-85754061D01*
X72915462Y-85754056D01*
X72934101Y-85717475D01*
X72934102Y-85717472D01*
X72965069Y-85622164D01*
X73002221Y-85507820D01*
X73027238Y-85349869D01*
X138849703Y-85349869D01*
X141861244Y-85349869D01*
X141831206Y-85500885D01*
X141831206Y-85698853D01*
X141861244Y-85849869D01*
X138849704Y-85849869D01*
X138874702Y-86039753D01*
X138874705Y-86039766D01*
X138951041Y-86324659D01*
X138951044Y-86324669D01*
X139063910Y-86597150D01*
X139063915Y-86597161D01*
X139211380Y-86852576D01*
X139211391Y-86852592D01*
X139390935Y-87086578D01*
X139390941Y-87086585D01*
X139599489Y-87295133D01*
X139599496Y-87295139D01*
X139833482Y-87474683D01*
X139833498Y-87474694D01*
X140088913Y-87622159D01*
X140088924Y-87622164D01*
X140361405Y-87735030D01*
X140361415Y-87735033D01*
X140646308Y-87811369D01*
X140646321Y-87811372D01*
X140938722Y-87849867D01*
X140938740Y-87849869D01*
X142586206Y-87849869D01*
X142586206Y-86574830D01*
X142737222Y-86604869D01*
X142935190Y-86604869D01*
X143086206Y-86574830D01*
X143086206Y-87849869D01*
X144733672Y-87849869D01*
X144733689Y-87849867D01*
X145026090Y-87811372D01*
X145026103Y-87811369D01*
X145310996Y-87735033D01*
X145311006Y-87735030D01*
X145583487Y-87622164D01*
X145583498Y-87622159D01*
X145838913Y-87474694D01*
X145838929Y-87474683D01*
X146072915Y-87295139D01*
X146072922Y-87295133D01*
X146281470Y-87086585D01*
X146281476Y-87086578D01*
X146461020Y-86852592D01*
X146461031Y-86852576D01*
X146608496Y-86597161D01*
X146608501Y-86597150D01*
X146721367Y-86324669D01*
X146721370Y-86324659D01*
X146797706Y-86039766D01*
X146797709Y-86039753D01*
X146822708Y-85849869D01*
X143811168Y-85849869D01*
X143841206Y-85698853D01*
X143841206Y-85500885D01*
X143811168Y-85349869D01*
X146822708Y-85349869D01*
X146797709Y-85159984D01*
X146797706Y-85159971D01*
X146721370Y-84875078D01*
X146721367Y-84875068D01*
X146608501Y-84602587D01*
X146608496Y-84602576D01*
X146461031Y-84347161D01*
X146461020Y-84347145D01*
X146281476Y-84113159D01*
X146281470Y-84113152D01*
X146072922Y-83904604D01*
X146072915Y-83904598D01*
X145838929Y-83725054D01*
X145838913Y-83725043D01*
X145583498Y-83577578D01*
X145583487Y-83577573D01*
X145311006Y-83464707D01*
X145310996Y-83464704D01*
X145026103Y-83388368D01*
X145026090Y-83388365D01*
X144733689Y-83349870D01*
X144733672Y-83349869D01*
X143086206Y-83349869D01*
X143086206Y-84624907D01*
X142935190Y-84594869D01*
X142737222Y-84594869D01*
X142586206Y-84624907D01*
X142586206Y-83349869D01*
X140938740Y-83349869D01*
X140938722Y-83349870D01*
X140646321Y-83388365D01*
X140646308Y-83388368D01*
X140361415Y-83464704D01*
X140361405Y-83464707D01*
X140088924Y-83577573D01*
X140088913Y-83577578D01*
X139833498Y-83725043D01*
X139833482Y-83725054D01*
X139599496Y-83904598D01*
X139599489Y-83904604D01*
X139390941Y-84113152D01*
X139390935Y-84113159D01*
X139211391Y-84347145D01*
X139211380Y-84347161D01*
X139063915Y-84602576D01*
X139063910Y-84602587D01*
X138951044Y-84875068D01*
X138951041Y-84875078D01*
X138874705Y-85159971D01*
X138874702Y-85159984D01*
X138849703Y-85349869D01*
X73027238Y-85349869D01*
X73036706Y-85290091D01*
X73036706Y-85069647D01*
X73002221Y-84851918D01*
X72934101Y-84642263D01*
X72934101Y-84642262D01*
X72856767Y-84490489D01*
X72834021Y-84445847D01*
X72833383Y-84444969D01*
X72828763Y-84438609D01*
X72781714Y-84373851D01*
X76260706Y-84373851D01*
X76260706Y-84485886D01*
X76289703Y-84594105D01*
X76289704Y-84594108D01*
X76295917Y-84604869D01*
X76345721Y-84691132D01*
X76424943Y-84770354D01*
X76521969Y-84826372D01*
X76630188Y-84855369D01*
X76630190Y-84855369D01*
X76742222Y-84855369D01*
X76742224Y-84855369D01*
X76850443Y-84826372D01*
X76947469Y-84770354D01*
X77026691Y-84691132D01*
X77082709Y-84594106D01*
X77111706Y-84485887D01*
X77111706Y-84373851D01*
X77082709Y-84265632D01*
X77026691Y-84168606D01*
X76947469Y-84089384D01*
X76850443Y-84033366D01*
X76742224Y-84004369D01*
X76630188Y-84004369D01*
X76521969Y-84033366D01*
X76521966Y-84033367D01*
X76424946Y-84089382D01*
X76424940Y-84089386D01*
X76345723Y-84168603D01*
X76345719Y-84168609D01*
X76289704Y-84265629D01*
X76289703Y-84265632D01*
X76260706Y-84373851D01*
X72781714Y-84373851D01*
X72704453Y-84267510D01*
X72704449Y-84267505D01*
X72548569Y-84111625D01*
X72548564Y-84111621D01*
X72370231Y-83982056D01*
X72370230Y-83982055D01*
X72370228Y-83982054D01*
X72307302Y-83949991D01*
X72173812Y-83881973D01*
X72173809Y-83881972D01*
X71964158Y-83813854D01*
X71855292Y-83796611D01*
X71746428Y-83779369D01*
X71525984Y-83779369D01*
X71453407Y-83790864D01*
X71308253Y-83813854D01*
X71098602Y-83881972D01*
X71098599Y-83881973D01*
X70902180Y-83982056D01*
X70723847Y-84111621D01*
X70723842Y-84111625D01*
X70567962Y-84267505D01*
X70567958Y-84267510D01*
X70438393Y-84445843D01*
X70338310Y-84642262D01*
X70338309Y-84642265D01*
X70270191Y-84851916D01*
X70266524Y-84875068D01*
X70235706Y-85069647D01*
X50536706Y-85069647D01*
X50502221Y-84851918D01*
X50434101Y-84642263D01*
X50434101Y-84642262D01*
X50356767Y-84490489D01*
X50334021Y-84445847D01*
X50262322Y-84347161D01*
X50204453Y-84267510D01*
X50204449Y-84267505D01*
X50048569Y-84111625D01*
X50048564Y-84111621D01*
X49870231Y-83982056D01*
X49870230Y-83982055D01*
X49870228Y-83982054D01*
X49807302Y-83949991D01*
X49673812Y-83881973D01*
X49673809Y-83881972D01*
X49464158Y-83813854D01*
X49355292Y-83796611D01*
X49246428Y-83779369D01*
X49025984Y-83779369D01*
X48953407Y-83790864D01*
X48808253Y-83813854D01*
X48598602Y-83881972D01*
X48598599Y-83881973D01*
X48402180Y-83982056D01*
X48223847Y-84111621D01*
X48223842Y-84111625D01*
X48067962Y-84267505D01*
X48067958Y-84267510D01*
X47938393Y-84445843D01*
X47838310Y-84642262D01*
X47838309Y-84642265D01*
X47770191Y-84851916D01*
X47766524Y-84875068D01*
X47735706Y-85069647D01*
X45574864Y-85069647D01*
X45517555Y-85028009D01*
X45335237Y-84935113D01*
X45140623Y-84871878D01*
X44938523Y-84839869D01*
X44636206Y-84839869D01*
X44636206Y-85770364D01*
X44557970Y-85725195D01*
X44444791Y-85694869D01*
X44327621Y-85694869D01*
X44214442Y-85725195D01*
X44136206Y-85770364D01*
X44136206Y-84839869D01*
X43833889Y-84839869D01*
X43631788Y-84871878D01*
X43437174Y-84935113D01*
X43254856Y-85028009D01*
X43089311Y-85148286D01*
X43089310Y-85148286D01*
X42944623Y-85292973D01*
X42944623Y-85292974D01*
X42824346Y-85458519D01*
X42731450Y-85640839D01*
X42668215Y-85835455D01*
X42659597Y-85889869D01*
X30861706Y-85889869D01*
X30861706Y-83349869D01*
X35319703Y-83349869D01*
X38331244Y-83349869D01*
X38301206Y-83500885D01*
X38301206Y-83698853D01*
X38331244Y-83849869D01*
X35319704Y-83849869D01*
X35344702Y-84039753D01*
X35344705Y-84039766D01*
X35421041Y-84324659D01*
X35421044Y-84324669D01*
X35533910Y-84597150D01*
X35533915Y-84597161D01*
X35681380Y-84852576D01*
X35681391Y-84852592D01*
X35860935Y-85086578D01*
X35860941Y-85086585D01*
X36069489Y-85295133D01*
X36069496Y-85295139D01*
X36303482Y-85474683D01*
X36303498Y-85474694D01*
X36558913Y-85622159D01*
X36558924Y-85622164D01*
X36831405Y-85735030D01*
X36831415Y-85735033D01*
X37116308Y-85811369D01*
X37116321Y-85811372D01*
X37408722Y-85849867D01*
X37408740Y-85849869D01*
X39056206Y-85849869D01*
X39056206Y-84574830D01*
X39207222Y-84604869D01*
X39405190Y-84604869D01*
X39556206Y-84574830D01*
X39556206Y-85849869D01*
X41203672Y-85849869D01*
X41203689Y-85849867D01*
X41496090Y-85811372D01*
X41496103Y-85811369D01*
X41511826Y-85807157D01*
X41780996Y-85735033D01*
X41781006Y-85735030D01*
X42053487Y-85622164D01*
X42053498Y-85622159D01*
X42308913Y-85474694D01*
X42308929Y-85474683D01*
X42542915Y-85295139D01*
X42542922Y-85295133D01*
X42751470Y-85086585D01*
X42751476Y-85086578D01*
X42931020Y-84852592D01*
X42931031Y-84852576D01*
X43078496Y-84597161D01*
X43078501Y-84597150D01*
X43191367Y-84324669D01*
X43191370Y-84324659D01*
X43267706Y-84039766D01*
X43267709Y-84039753D01*
X43292708Y-83849869D01*
X40281168Y-83849869D01*
X40311206Y-83698853D01*
X40311206Y-83500885D01*
X40281168Y-83349869D01*
X43292708Y-83349869D01*
X43267709Y-83159984D01*
X43267706Y-83159971D01*
X43191370Y-82875078D01*
X43191367Y-82875068D01*
X43078501Y-82602587D01*
X43078496Y-82602576D01*
X42931031Y-82347161D01*
X42931020Y-82347145D01*
X42751476Y-82113159D01*
X42751470Y-82113152D01*
X42542922Y-81904604D01*
X42542915Y-81904598D01*
X42308929Y-81725054D01*
X42308913Y-81725043D01*
X42053498Y-81577578D01*
X42053487Y-81577573D01*
X41781006Y-81464707D01*
X41780996Y-81464704D01*
X41496103Y-81388368D01*
X41496090Y-81388365D01*
X41203689Y-81349870D01*
X41203672Y-81349869D01*
X39556206Y-81349869D01*
X39556206Y-82624907D01*
X39405190Y-82594869D01*
X39207222Y-82594869D01*
X39056206Y-82624907D01*
X39056206Y-81349869D01*
X37408740Y-81349869D01*
X37408722Y-81349870D01*
X37116321Y-81388365D01*
X37116308Y-81388368D01*
X36831415Y-81464704D01*
X36831405Y-81464707D01*
X36558924Y-81577573D01*
X36558913Y-81577578D01*
X36303498Y-81725043D01*
X36303482Y-81725054D01*
X36069496Y-81904598D01*
X36069489Y-81904604D01*
X35860941Y-82113152D01*
X35860935Y-82113159D01*
X35681391Y-82347145D01*
X35681380Y-82347161D01*
X35533915Y-82602576D01*
X35533910Y-82602587D01*
X35421044Y-82875068D01*
X35421041Y-82875078D01*
X35344705Y-83159971D01*
X35344702Y-83159984D01*
X35319703Y-83349869D01*
X30861706Y-83349869D01*
X30861706Y-71829369D01*
X30881391Y-71762330D01*
X30934195Y-71716575D01*
X30985706Y-71705369D01*
X150686706Y-71705369D01*
X150753745Y-71725054D01*
G37*
%TD.AperFunction*%
%TD*%
M02*
